<svg id="Covid_Medical_Illustration" data-name="Covid Medical Illustration" xmlns="http://www.w3.org/2000/svg" xmlns:xlink="http://www.w3.org/1999/xlink" viewBox="0 0 700 500"><defs><style>.cls-1{fill:#6851f9;}.cls-2,.cls-9{fill:#fff;}.cls-12,.cls-15,.cls-2,.cls-27,.cls-3,.cls-4,.cls-6{stroke:#303870;}.cls-12,.cls-15,.cls-2,.cls-27,.cls-3,.cls-4,.cls-45,.cls-55,.cls-6{stroke-linecap:round;stroke-linejoin:round;}.cls-12,.cls-15,.cls-2,.cls-27,.cls-3,.cls-4,.cls-41,.cls-42,.cls-43,.cls-44,.cls-45,.cls-6{stroke-width:2px;}.cls-23,.cls-3{fill:#f4b3a8;}.cls-4,.cls-5{fill:#80d8ff;}.cls-50,.cls-6{fill:#feded5;}.cls-7{clip-path:url(#clip-path);}.cls-36,.cls-8{fill:#8981ea;}.cls-8{opacity:0.5;}.cls-10{clip-path:url(#clip-path-2);}.cls-11{fill:#b8f0ff;}.cls-12,.cls-41,.cls-42,.cls-43,.cls-44,.cls-45,.cls-55{fill:none;}.cls-13{clip-path:url(#clip-path-3);}.cls-14{clip-path:url(#clip-path-4);}.cls-15{fill:#62b7e8;}.cls-16{clip-path:url(#clip-path-5);}.cls-17{clip-path:url(#clip-path-6);}.cls-18{clip-path:url(#clip-path-7);}.cls-19{clip-path:url(#clip-path-8);}.cls-20{clip-path:url(#clip-path-9);}.cls-21{clip-path:url(#clip-path-10);}.cls-22{clip-path:url(#clip-path-11);}.cls-24,.cls-27{fill:#f87b5a;}.cls-25{clip-path:url(#clip-path-12);}.cls-26{clip-path:url(#clip-path-13);}.cls-28{clip-path:url(#clip-path-14);}.cls-29{clip-path:url(#clip-path-15);}.cls-30{clip-path:url(#clip-path-16);}.cls-31{clip-path:url(#clip-path-17);}.cls-32{clip-path:url(#clip-path-18);}.cls-33{clip-path:url(#clip-path-19);}.cls-34{clip-path:url(#clip-path-20);}.cls-35{clip-path:url(#clip-path-21);}.cls-37{fill:#303870;}.cls-38{clip-path:url(#clip-path-22);}.cls-39{clip-path:url(#clip-path-23);}.cls-40{fill:#5abadb;}.cls-41,.cls-42,.cls-43,.cls-44,.cls-45{stroke:#5abadb;}.cls-41,.cls-42,.cls-43,.cls-44{stroke-miterlimit:10;}.cls-42{stroke-dasharray:6.73 6.73;}.cls-43{stroke-dasharray:7.24 7.24;}.cls-44{stroke-dasharray:7;}.cls-46{clip-path:url(#clip-path-24);}.cls-47{clip-path:url(#clip-path-25);}.cls-48{clip-path:url(#clip-path-26);}.cls-49{clip-path:url(#clip-path-27);}.cls-51{clip-path:url(#clip-path-28);}.cls-52{clip-path:url(#clip-path-29);}.cls-53{clip-path:url(#clip-path-30);}.cls-54{fill:#83ffcc;}.cls-55{stroke:#fff;stroke-width:2.25px;}</style><clipPath id="clip-path"><path class="cls-1" d="M222.8,412.87S101.91,266.53,113.37,191.45,193.53,104.92,247,145.64s11.45-36.9,36.9-56.62,62.35,25.84,90.79,59.64c20.07,23.86,68.28,51.7,106.45,7.16s117.07-53.44,99.26,31.81-101.8,225.24-101.8,225.24Z"/></clipPath><clipPath id="clip-path-2"><circle class="cls-2" cx="494.94" cy="173.15" r="58.33"/></clipPath><clipPath id="clip-path-3"><path class="cls-4" d="M512,106.27c-2.92-.72-5.49-.51-5.73.48l-1.37,16.89c-.13.49,1,1.18,2.42,1.54s2.74.26,2.86-.23l6.67-15.59C517,108.38,514.87,107,512,106.27Z"/></clipPath><clipPath id="clip-path-4"><path class="cls-4" d="M458.12,119.32c-2.58,1.55-4.32,3.38-3.9,4.09l9.36,10.24c.22.35,1.43,0,2.72-.77s2.16-1.69,1.95-2l-4.7-13.06C463.13,117.08,460.69,117.76,458.12,119.32Z"/></clipPath><clipPath id="clip-path-5"><path class="cls-4" d="M423.38,159.42c-.72,2.92-.51,5.49.48,5.73l16.89,1.37c.49.12,1.18-1,1.54-2.42s.26-2.74-.23-2.86l-15.59-6.67C425.49,154.33,424.11,156.5,423.38,159.42Z"/></clipPath><clipPath id="clip-path-6"><path class="cls-4" d="M437.53,204.33c1.65,2.72,3.56,4.59,4.27,4.16L452,198.94c.36-.21,0-1.49-.84-2.86s-1.78-2.29-2.14-2.08l-13.21,4.61C435.13,199,435.88,201.6,437.53,204.33Z"/></clipPath><clipPath id="clip-path-7"><path class="cls-4" d="M477.59,243.71c2.92.72,5.49.51,5.73-.48l1.37-16.89c.12-.49-1-1.18-2.42-1.55s-2.74-.25-2.87.24l-6.66,15.59C472.5,241.6,474.67,243,477.59,243.71Z"/></clipPath><clipPath id="clip-path-8"><path class="cls-4" d="M525.25,229.69c1.88-1.13,3-2.62,2.62-3.34l-8.8-10.74c-.22-.36-1.15-.19-2.09.37s-1.52,1.32-1.31,1.67l5.41,12.8C521.51,231.16,523.38,230.82,525.25,229.69Z"/></clipPath><clipPath id="clip-path-9"><path class="cls-4" d="M565.1,194.84c.72-2.92.51-5.49-.48-5.73l-16.89-1.37c-.49-.12-1.18,1-1.54,2.42s-.26,2.74.23,2.86L562,199.69C563,199.93,564.37,197.76,565.1,194.84Z"/></clipPath><clipPath id="clip-path-10"><path class="cls-4" d="M555.45,141.08c-1.55-2.58-3.62-4.18-4.62-3.57l-15.07,12.27c-.5.31-.28,1.59.5,2.88s1.81,2.09,2.31,1.79l17.89-7.61C557.46,146.23,557,143.66,555.45,141.08Z"/></clipPath><clipPath id="clip-path-11"><circle class="cls-2" cx="453.11" cy="313.76" r="34.54"/></clipPath><clipPath id="clip-path-12"><path class="cls-3" d="M483.23,286.14c-1.21-1.3-2.55-2-3-1.62l-6.16,7.92c-.22.21.09.9.7,1.55s1.27,1,1.49.82l8.36-5.56C485.07,288.84,484.44,287.45,483.23,286.14Z"/></clipPath><clipPath id="clip-path-13"><path class="cls-3" d="M452.33,275.14c-1.78-.06-3.24.28-3.25.77l1.31,8.11c0,.24.71.47,1.6.5s1.62-.14,1.62-.38l1.91-8C455.54,275.66,454.11,275.21,452.33,275.14Z"/></clipPath><clipPath id="clip-path-14"><path class="cls-3" d="M422.12,283.74c-1.31,1.22-2,2.55-1.63,3l7.93,6.16c.2.22.9-.09,1.55-.7s1-1.27.81-1.49l-5.56-8.36C424.81,281.9,423.42,282.53,422.12,283.74Z"/></clipPath><clipPath id="clip-path-15"><path class="cls-3" d="M414.56,310.58c-.07,1.88.27,3.42.76,3.44l8.17-1.41c.25,0,.47-.74.51-1.69s-.14-1.71-.38-1.72l-8-2C415.08,307.18,414.63,308.69,414.56,310.58Z"/></clipPath><clipPath id="clip-path-16"><path class="cls-3" d="M421.63,343.08c1.21,1.3,2.55,2,3,1.62l6.16-7.92c.22-.21-.09-.9-.7-1.55s-1.27-1-1.49-.81L420.23,340C419.79,340.38,420.42,341.77,421.63,343.08Z"/></clipPath><clipPath id="clip-path-17"><path class="cls-3" d="M449.79,351.6c1.29,0,2.36-.32,2.37-.81l-.87-8.18c0-.24-.51-.46-1.15-.49s-1.18.16-1.19.41l-1.48,8.09C447.46,351.11,448.49,351.55,449.79,351.6Z"/></clipPath><clipPath id="clip-path-18"><path class="cls-3" d="M480.83,347.26c1.3-1.22,2-2.56,1.62-3l-7.92-6.16c-.2-.22-.9.1-1.55.7s-1,1.28-.81,1.5l5.56,8.35C478.13,349.09,479.52,348.47,480.83,347.26Z"/></clipPath><clipPath id="clip-path-19"><path class="cls-3" d="M493.49,317.5c.07-1.78-.44-3.25-1.13-3.27l-11.45,1.19c-.35,0-.65.7-.69,1.59s.22,1.62.57,1.63l11.33,2C492.81,320.7,493.42,319.28,493.49,317.5Z"/></clipPath><clipPath id="clip-path-20"><path class="cls-2" d="M279.07,386.54s-5.06,7-5.82,11.41,1.27,6.78,4.43,7.49l33.39,7.42s6.64.45,6.33-4.46-14.2-10-17.29-12.76a12.62,12.62,0,0,1-3.85-5.61Z"/></clipPath><clipPath id="clip-path-21"><rect class="cls-2" x="273.1" y="166.06" width="72.02" height="20.22" transform="translate(-41.55 115.99) rotate(-19.94)"/></clipPath><clipPath id="clip-path-22"><path class="cls-2" d="M267,133.23s5.68,1.13,11.69,1.75c3.61.37,6.81.49,8.8.53a7.07,7.07,0,0,1,4.06,1.36c3.18,2.31,9.24,7.31,10.67,12.73,1.94,7.41-.3,54.11-1.39,64.8s-4.36,19.85,9.82,53.67,16.8,41,12,53.67c-4.19,11.05-19.85,57.52-23.76,69.14a3.9,3.9,0,0,1-3.69,2.64H276.16a3.88,3.88,0,0,1-3.74-5c4.61-15.87,18.66-64.8,18.84-72.27.22-9-15.92-40.15-15.92-40.15L248.67,390a4.63,4.63,0,0,1-4.43,3.58l-20.71.41a4.64,4.64,0,0,1-4.7-5.21c3.41-27.81,19-156.57,19.42-187.27.43-34.47,2.38-56.72,8.92-64.8S267,133.23,267,133.23Z"/></clipPath><clipPath id="clip-path-23"><path class="cls-5" d="M263.07,133.23s5.68,1.13,11.69,1.75c3.61.37,6.81.49,8.8.53a7.07,7.07,0,0,1,4.06,1.36c3.18,2.31,9.24,7.31,10.67,12.73,1.94,7.41-.3,54.11-1.39,64.8s-4.36,19.85,9.82,53.67,16.8,41,12,53.67c-4.19,11.05-19.85,57.52-23.76,69.14a3.9,3.9,0,0,1-3.69,2.64H272.2a3.88,3.88,0,0,1-3.74-5c4.61-15.87,18.66-64.8,18.84-72.27.22-9-11.51-35-11.51-35L250.34,390a4.63,4.63,0,0,1-4.43,3.58l-26.34.41a4.63,4.63,0,0,1-4.7-5.21c3.41-27.81,19-156.57,19.42-187.27.43-34.47,2.38-56.72,8.92-64.8S263.07,133.23,263.07,133.23Z"/></clipPath><clipPath id="clip-path-24"><path class="cls-4" d="M257.73,153.93c-1.55,5.5-1.92,13.51-.94,24.9,2.4,27.93,2.91,48,20.22,48.66s58.11-15.28,58.11-15.28l-2.84-14.4s-41.78,7.86-45.65,3.93,0-33.82-2.92-46"/></clipPath><clipPath id="clip-path-25"><path class="cls-3" d="M345.06,263v.07c-1.6-.11-13.17-1.51-27.61-19.36-12.34-15.25-15.13-39.38-15.75-50.56,6.56-.6,16.17-2.25,25-6.64a83.34,83.34,0,0,0,18.71-13.09,83.34,83.34,0,0,0,18.72,13.09c8.87,4.39,18.48,6,25,6.64-.62,11.18-3.41,35.31-15.75,50.56-14.77,18.26-26.54,19.3-27.71,19.36Z"/></clipPath><clipPath id="clip-path-26"><path class="cls-2" d="M223.61,394.12s-3.42,7.93-3.2,12.41,2.7,6.34,5.94,6.34h34.2s6.59-1,5.22-5.72-16-6.72-19.64-8.71a12.64,12.64,0,0,1-5-4.65Z"/></clipPath><clipPath id="clip-path-27"><path class="cls-2" d="M286.46,119.92s-9.27,5-16.9,3.6-16.7-6.43-16.15-17,8.29-10.7,8.29-10.7-.46-7.2,8.23-11,13.81-.55,13.81-.55,6-3.49,12.22,2.07S304.9,110.54,286.46,119.92Z"/></clipPath><clipPath id="clip-path-28"><path class="cls-6" d="M293.56,98.11s7.63,12.32,6.76,20-5,10.25-9.06,11.13-5.45,0-5.45,0l-1.64,9.71s-5.12,1.09-9.05-.77-4.69-4.14-4.69-4.14l3.27-10.48s-7.74-2.51-6.54-8.83,7.3-1.86,7.3-1.86a12.11,12.11,0,0,0,5.9-4.69c2.18-3.49,2-5.89,2-5.89A13.52,13.52,0,0,0,293.56,98.11Z"/></clipPath><clipPath id="clip-path-29"><path class="cls-2" d="M283.71,117.89l17.66-8s3.28,6.25,1.24,11.34a12.76,12.76,0,0,1-11.35,8c-4.65.25-11.7-2.51-11.7-2.51a8.09,8.09,0,0,0,3.41-4.37A8.3,8.3,0,0,0,283.71,117.89Z"/></clipPath><clipPath id="clip-path-30"><path class="cls-2" d="M298.79,102.36l-16.47,7.09s2.11,1.06,2.51,2.73a43.71,43.71,0,0,1,.66,4.88L300.86,110S301.81,105.41,298.79,102.36Z"/></clipPath></defs><g id="Fight_Covid" data-name="Fight Covid"><path class="cls-1" d="M222.8,412.87S101.91,266.53,113.37,191.45,193.53,104.92,247,145.64s11.45-36.9,36.9-56.62,62.35,25.84,90.79,59.64c20.07,23.86,68.28,51.7,106.45,7.16s117.07-53.44,99.26,31.81-101.8,225.24-101.8,225.24Z"/><g class="cls-7"><path class="cls-8" d="M103.62,308.73s101-117.16,133.52-75.92,79.79,109.88,168.22,48.35S569,267.5,560.49,306.77s-62.88,123.71-62.88,123.71h-385Z"/></g><circle class="cls-9" cx="494.94" cy="173.15" r="58.33"/><g class="cls-10"><path class="cls-11" d="M553.27,175.79c0,31-28.16,56.2-62.91,56.2s-62.92-25.16-62.92-56.2,20.89-60,55.64-60S553.27,144.74,553.27,175.79Z"/><ellipse class="cls-5" cx="472.8" cy="145.41" rx="5.51" ry="4.59" transform="translate(-21.24 170.04) rotate(-19.95)"/><ellipse class="cls-5" cx="465.21" cy="184.66" rx="4.59" ry="5.51" transform="translate(-34.86 205.74) rotate(-24.06)"/><ellipse class="cls-5" cx="502.32" cy="202.3" rx="3.62" ry="4.48" transform="translate(157.05 619.48) rotate(-72.32)"/><ellipse class="cls-5" cx="529.76" cy="191.93" rx="4.48" ry="3.62" transform="translate(19.45 430.81) rotate(-45)"/><ellipse class="cls-5" cx="506.58" cy="138.46" rx="3.79" ry="4.84" transform="translate(255.54 599.74) rotate(-76.73)"/><ellipse class="cls-5" cx="496.19" cy="163.44" rx="5.51" ry="4.59"/><ellipse class="cls-5" cx="527.63" cy="159.14" rx="3.63" ry="4.2" transform="translate(94.93 500.45) rotate(-55.05)"/><ellipse class="cls-5" cx="474.74" cy="208.17" rx="3.03" ry="3.89" transform="translate(132.25 597.29) rotate(-72.32)"/><path class="cls-5" d="M517.31,232.34s-13.77-13.83-30.26-13.25c-12.64.45-46.85-9.71-50-25.55s2.48,38.78,33.56,49.09S517.61,231,517.31,232.34Z"/></g><circle class="cls-12" cx="494.94" cy="173.15" r="58.33"/><path class="cls-5" d="M512,106.27c-2.92-.72-5.49-.51-5.73.48l-1.37,16.89c-.13.49,1,1.18,2.42,1.54s2.74.26,2.86-.23l6.67-15.59C517,108.38,514.87,107,512,106.27Z"/><g class="cls-13"><ellipse class="cls-2" cx="511.51" cy="108.06" rx="1.84" ry="5.45" transform="translate(283.78 578.64) rotate(-76.1)"/></g><path class="cls-12" d="M512,106.27c-2.92-.72-5.49-.51-5.73.48l-1.37,16.89c-.13.49,1,1.18,2.42,1.54s2.74.26,2.86-.23l6.67-15.59C517,108.38,514.87,107,512,106.27Z"/><path class="cls-5" d="M458.12,119.32c-2.58,1.55-4.32,3.38-3.9,4.09l9.36,10.24c.22.35,1.43,0,2.72-.77s2.16-1.69,1.95-2l-4.7-13.06C463.13,117.08,460.69,117.76,458.12,119.32Z"/><g class="cls-14"><ellipse class="cls-15" cx="458.89" cy="120.6" rx="5.45" ry="1.49" transform="translate(3.68 254.4) rotate(-31.1)"/></g><path class="cls-12" d="M458.12,119.32c-2.58,1.55-4.32,3.38-3.9,4.09l9.36,10.24c.22.35,1.43,0,2.72-.77s2.16-1.69,1.95-2l-4.7-13.06C463.13,117.08,460.69,117.76,458.12,119.32Z"/><path class="cls-5" d="M423.38,159.42c-.72,2.92-.51,5.49.48,5.73l16.89,1.37c.49.12,1.18-1,1.54-2.42s.26-2.74-.23-2.86l-15.59-6.67C425.49,154.33,424.11,156.5,423.38,159.42Z"/><g class="cls-16"><ellipse class="cls-15" cx="425.16" cy="159.86" rx="5.45" ry="1.84" transform="translate(167.88 534.19) rotate(-76.1)"/></g><path class="cls-12" d="M423.38,159.42c-.72,2.92-.51,5.49.48,5.73l16.89,1.37c.49.12,1.18-1,1.54-2.42s.26-2.74-.23-2.86l-15.59-6.67C425.49,154.33,424.11,156.5,423.38,159.42Z"/><path class="cls-5" d="M437.53,204.33c1.65,2.72,3.56,4.59,4.27,4.16L452,198.94c.36-.21,0-1.49-.84-2.86s-1.78-2.29-2.14-2.08l-13.21,4.61C435.13,199,435.88,201.6,437.53,204.33Z"/><g class="cls-17"><ellipse class="cls-15" cx="438.82" cy="203.55" rx="1.5" ry="5.77" transform="translate(-42.06 255.96) rotate(-31.1)"/></g><path class="cls-12" d="M437.53,204.33c1.65,2.72,3.56,4.59,4.27,4.16L452,198.94c.36-.21,0-1.49-.84-2.86s-1.78-2.29-2.14-2.08l-13.21,4.61C435.13,199,435.88,201.6,437.53,204.33Z"/><path class="cls-5" d="M477.59,243.71c2.92.72,5.49.51,5.73-.48l1.37-16.89c.12-.49-1-1.18-2.42-1.55s-2.74-.25-2.87.24l-6.66,15.59C472.5,241.6,474.67,243,477.59,243.71Z"/><g class="cls-18"><ellipse class="cls-15" cx="478.03" cy="241.92" rx="1.84" ry="5.45" transform="translate(128.39 647.87) rotate(-76.1)"/></g><path class="cls-12" d="M477.59,243.71c2.92.72,5.49.51,5.73-.48l1.37-16.89c.12-.49-1-1.18-2.42-1.55s-2.74-.25-2.87.24l-6.66,15.59C472.5,241.6,474.67,243,477.59,243.71Z"/><path class="cls-5" d="M525.25,229.69c1.88-1.13,3-2.62,2.62-3.34l-8.8-10.74c-.22-.36-1.15-.19-2.09.37s-1.52,1.32-1.31,1.67l5.41,12.8C521.51,231.16,523.38,230.82,525.25,229.69Z"/><g class="cls-19"><ellipse class="cls-15" cx="524.47" cy="228.4" rx="3.96" ry="1.51" transform="translate(-42.59 303.78) rotate(-31.1)"/></g><path class="cls-12" d="M525.25,229.69c1.88-1.13,3-2.62,2.62-3.34l-8.8-10.74c-.22-.36-1.15-.19-2.09.37s-1.52,1.32-1.31,1.67l5.41,12.8C521.51,231.16,523.38,230.82,525.25,229.69Z"/><path class="cls-5" d="M565.1,194.84c.72-2.92.51-5.49-.48-5.73l-16.89-1.37c-.49-.12-1.18,1-1.54,2.42s-.26,2.74.23,2.86L562,199.69C563,199.93,564.37,197.76,565.1,194.84Z"/><g class="cls-20"><ellipse class="cls-2" cx="563.31" cy="194.4" rx="5.45" ry="1.84" transform="translate(239.33 694.54) rotate(-76.1)"/></g><path class="cls-12" d="M565.1,194.84c.72-2.92.51-5.49-.48-5.73l-16.89-1.37c-.49-.12-1.18,1-1.54,2.42s-.26,2.74.23,2.86L562,199.69C563,199.93,564.37,197.76,565.1,194.84Z"/><path class="cls-5" d="M555.45,141.08c-1.55-2.58-3.62-4.18-4.62-3.57l-15.07,12.27c-.5.31-.28,1.59.5,2.88s1.81,2.09,2.31,1.79l17.89-7.61C557.46,146.23,557,143.66,555.45,141.08Z"/><g class="cls-21"><ellipse class="cls-2" cx="553.65" cy="142.17" rx="2.11" ry="5.45" transform="translate(6.15 306.46) rotate(-31.1)"/></g><path class="cls-12" d="M555.45,141.08c-1.55-2.58-3.62-4.18-4.62-3.57l-15.07,12.27c-.5.31-.28,1.59.5,2.88s1.81,2.09,2.31,1.79l17.89-7.61C557.46,146.23,557,143.66,555.45,141.08Z"/><circle class="cls-9" cx="453.11" cy="313.76" r="34.54"/><g class="cls-22"><path class="cls-23" d="M484.05,329.07c-7.6,16.73-28.95,23.4-47.68,14.89s-27.75-29-20.15-45.71,26-27.24,44.7-18.73S491.66,312.34,484.05,329.07Z"/><ellipse class="cls-24" cx="451.15" cy="292.83" rx="2.72" ry="3.26" transform="translate(62.59 664.72) rotate(-76.73)"/><ellipse class="cls-24" cx="434.65" cy="309.81" rx="3.26" ry="2.72" transform="translate(59.64 689.64) rotate(-80.85)"/><ellipse class="cls-24" cx="447.31" cy="330.59" rx="2.14" ry="2.65" transform="translate(-108.31 356.2) rotate(-39.11)"/><ellipse class="cls-24" cx="464.27" cy="334.35" rx="2.65" ry="2.14" transform="translate(-58.49 101.84) rotate(-11.78)"/><ellipse class="cls-24" cx="470.13" cy="300.35" rx="2.25" ry="2.87" transform="translate(-77.61 406.23) rotate(-43.51)"/><ellipse class="cls-24" cx="456.88" cy="309.35" rx="2.72" ry="3.26" transform="translate(-52.21 522.1) rotate(-56.78)"/><ellipse class="cls-24" cx="473.85" cy="317.42" rx="2.15" ry="2.49" transform="translate(-84.06 198.99) rotate(-21.83)"/><ellipse class="cls-24" cx="431.74" cy="324.55" rx="1.8" ry="2.3" transform="translate(-107.99 345.03) rotate(-39.11)"/><path class="cls-24" d="M445,350.33S442.66,339,434.3,334c-6.41-3.87-20.06-20-16.49-28.88s-11.35,20,.71,35.21S445.56,349.78,445,350.33Z"/></g><circle class="cls-12" cx="453.11" cy="313.76" r="34.54"/><path class="cls-23" d="M483.23,286.14c-1.21-1.3-2.55-2-3-1.62l-6.16,7.92c-.22.21.09.9.7,1.55s1.27,1,1.49.82l8.36-5.56C485.07,288.84,484.44,287.45,483.23,286.14Z"/><g class="cls-25"><ellipse class="cls-2" cx="482.43" cy="286.88" rx="1.09" ry="3.23" transform="translate(-66.28 405.01) rotate(-42.89)"/></g><path class="cls-12" d="M483.23,286.14c-1.21-1.3-2.55-2-3-1.62l-6.16,7.92c-.22.21.09.9.7,1.55s1.27,1,1.49.82l8.36-5.56C485.07,288.84,484.44,287.45,483.23,286.14Z"/><path class="cls-23" d="M452.33,275.14c-1.78-.06-3.24.28-3.25.77l1.31,8.11c0,.24.71.47,1.6.5s1.62-.14,1.62-.38l1.91-8C455.54,275.66,454.11,275.21,452.33,275.14Z"/><g class="cls-26"><ellipse class="cls-27" cx="452.3" cy="276.03" rx="0.88" ry="3.23" transform="translate(159.78 717.84) rotate(-87.89)"/></g><path class="cls-12" d="M452.33,275.14c-1.78-.06-3.24.28-3.25.77l1.31,8.11c0,.24.71.47,1.6.5s1.62-.14,1.62-.38l1.91-8C455.54,275.66,454.11,275.21,452.33,275.14Z"/><path class="cls-23" d="M422.12,283.74c-1.31,1.22-2,2.55-1.63,3l7.93,6.16c.2.22.9-.09,1.55-.7s1-1.27.81-1.49l-5.56-8.36C424.81,281.9,423.42,282.53,422.12,283.74Z"/><g class="cls-28"><ellipse class="cls-27" cx="422.86" cy="284.54" rx="3.23" ry="1.09" transform="translate(-80.61 363.83) rotate(-42.89)"/></g><path class="cls-12" d="M422.12,283.74c-1.31,1.22-2,2.55-1.63,3l7.93,6.16c.2.22.9-.09,1.55-.7s1-1.27.81-1.49l-5.56-8.36C424.81,281.9,423.42,282.53,422.12,283.74Z"/><path class="cls-23" d="M414.56,310.58c-.07,1.88.27,3.42.76,3.44l8.17-1.41c.25,0,.47-.74.51-1.69s-.14-1.71-.38-1.72l-8-2C415.08,307.18,414.63,308.69,414.56,310.58Z"/><g class="cls-29"><ellipse class="cls-27" cx="415.45" cy="310.61" rx="3.42" ry="0.89" transform="translate(89.73 714.32) rotate(-87.89)"/></g><path class="cls-12" d="M414.56,310.58c-.07,1.88.27,3.42.76,3.44l8.17-1.41c.25,0,.47-.74.51-1.69s-.14-1.71-.38-1.72l-8-2C415.08,307.18,414.63,308.69,414.56,310.58Z"/><path class="cls-23" d="M421.63,343.08c1.21,1.3,2.55,2,3,1.62l6.16-7.92c.22-.21-.09-.9-.7-1.55s-1.27-1-1.49-.81L420.23,340C419.79,340.38,420.42,341.77,421.63,343.08Z"/><g class="cls-30"><ellipse class="cls-27" cx="422.43" cy="342.34" rx="1.09" ry="3.23" transform="translate(-120.06 378.99) rotate(-42.89)"/></g><path class="cls-12" d="M421.63,343.08c1.21,1.3,2.55,2,3,1.62l6.16-7.92c.22-.21-.09-.9-.7-1.55s-1.27-1-1.49-.81L420.23,340C419.79,340.38,420.42,341.77,421.63,343.08Z"/><path class="cls-23" d="M449.79,351.6c1.29,0,2.36-.32,2.37-.81l-.87-8.18c0-.24-.51-.46-1.15-.49s-1.18.16-1.19.41l-1.48,8.09C447.46,351.11,448.49,351.55,449.79,351.6Z"/><g class="cls-31"><ellipse class="cls-27" cx="449.82" cy="350.7" rx="0.89" ry="2.35" transform="translate(82.77 787.28) rotate(-87.89)"/></g><path class="cls-12" d="M449.79,351.6c1.29,0,2.36-.32,2.37-.81l-.87-8.18c0-.24-.51-.46-1.15-.49s-1.18.16-1.19.41l-1.48,8.09C447.46,351.11,448.49,351.55,449.79,351.6Z"/><path class="cls-23" d="M480.83,347.26c1.3-1.22,2-2.56,1.62-3l-7.92-6.16c-.2-.22-.9.1-1.55.7s-1,1.28-.81,1.5l5.56,8.35C478.13,349.09,479.52,348.47,480.83,347.26Z"/><g class="cls-32"><ellipse class="cls-27" cx="480.09" cy="346.46" rx="3.23" ry="1.09" transform="translate(-107.46 419.33) rotate(-42.89)"/></g><path class="cls-12" d="M480.83,347.26c1.3-1.22,2-2.56,1.62-3l-7.92-6.16c-.2-.22-.9.1-1.55.7s-1,1.28-.81,1.5l5.56,8.35C478.13,349.09,479.52,348.47,480.83,347.26Z"/><path class="cls-23" d="M493.49,317.5c.07-1.78-.44-3.25-1.13-3.27l-11.45,1.19c-.35,0-.65.7-.69,1.59s.22,1.62.57,1.63l11.33,2C492.81,320.7,493.42,319.28,493.49,317.5Z"/><g class="cls-33"><ellipse class="cls-2" cx="492.24" cy="317.45" rx="3.23" ry="1.25" transform="translate(156.85 797.65) rotate(-87.89)"/></g><path class="cls-12" d="M493.49,317.5c.07-1.78-.44-3.25-1.13-3.27l-11.45,1.19c-.35,0-.65.7-.69,1.59s.22,1.62.57,1.63l11.33,2C492.81,320.7,493.42,319.28,493.49,317.5Z"/><path class="cls-9" d="M279.07,386.54s-5.06,7-5.82,11.41,1.27,6.78,4.43,7.49l33.39,7.42s6.64.45,6.33-4.46-14.2-10-17.29-12.76a12.62,12.62,0,0,1-3.85-5.61Z"/><g class="cls-34"><path class="cls-1" d="M295.25,386.54s-.29,9.08-13.09,13.17-16.2-1.45-16.2-1.45l3.69-11.72Z"/></g><path class="cls-12" d="M279.07,386.54s-5.06,7-5.82,11.41,1.27,6.78,4.43,7.49l33.39,7.42s6.64.45,6.33-4.46-14.2-10-17.29-12.76a12.62,12.62,0,0,1-3.85-5.61Z"/><rect class="cls-9" x="273.1" y="166.06" width="72.02" height="20.22" transform="translate(-41.55 115.99) rotate(-19.94)"/><g class="cls-35"><rect class="cls-36" x="274.06" y="168.69" width="72.02" height="20.22" transform="translate(-42.39 116.48) rotate(-19.94)"/><line class="cls-12" x1="332.3" y1="155.3" x2="334.93" y2="162.54"/><line class="cls-12" x1="325.84" y1="157.64" x2="327.62" y2="162.56"/><line class="cls-12" x1="319.38" y1="159.99" x2="322.01" y2="167.23"/><line class="cls-12" x1="312.92" y1="162.33" x2="314.7" y2="167.25"/><line class="cls-12" x1="306.46" y1="164.67" x2="309.09" y2="171.92"/><line class="cls-12" x1="300" y1="167.02" x2="301.78" y2="171.94"/><line class="cls-12" x1="293.54" y1="169.36" x2="296.16" y2="176.61"/><line class="cls-12" x1="287.07" y1="171.71" x2="288.86" y2="176.63"/><line class="cls-12" x1="280.61" y1="174.05" x2="283.24" y2="181.3"/><line class="cls-12" x1="274.15" y1="176.39" x2="275.94" y2="181.32"/><path class="cls-1" d="M367.63,187.53c-4.23-.2-13.06-1.08-20.88-4.95A62.45,62.45,0,0,1,331,171.05a2.61,2.61,0,0,0-3.69,0,62.55,62.55,0,0,1-15.7,11.53c-7.83,3.87-16.66,4.75-20.89,4.95a2.62,2.62,0,0,0-2.5,2.68c.19,7.91,1.8,31.87,14,47,14.82,18.31,26.91,17.65,26.91,17.65s12.09.66,26.91-17.65c12.23-15.11,13.83-39.07,14-47A2.6,2.6,0,0,0,367.63,187.53Z"/></g><rect class="cls-12" x="273.1" y="166.06" width="72.02" height="20.22" transform="translate(-41.55 115.99) rotate(-19.94)"/><rect class="cls-2" x="342.83" y="149.97" width="5.24" height="26.18" transform="translate(-34.9 127.6) rotate(-19.94)"/><polygon class="cls-37" points="399.4 142.48 347.88 162.1 347.11 159.98 397.36 141.59 399.4 142.48"/><path class="cls-9" d="M267,133.23s5.68,1.13,11.69,1.75c3.61.37,6.81.49,8.8.53a7.07,7.07,0,0,1,4.06,1.36c3.18,2.31,9.24,7.31,10.67,12.73,1.94,7.41-.3,54.11-1.39,64.8s-4.36,19.85,9.82,53.67,16.8,41,12,53.67c-4.19,11.05-19.85,57.52-23.76,69.14a3.9,3.9,0,0,1-3.69,2.64H276.16a3.88,3.88,0,0,1-3.74-5c4.61-15.87,18.66-64.8,18.84-72.27.22-9-15.92-40.15-15.92-40.15L248.67,390a4.63,4.63,0,0,1-4.43,3.58l-20.71.41a4.64,4.64,0,0,1-4.7-5.21c3.41-27.81,19-156.57,19.42-187.27.43-34.47,2.38-56.72,8.92-64.8S267,133.23,267,133.23Z"/><g class="cls-38"><path class="cls-5" d="M263.07,133.23s5.68,1.13,11.69,1.75c3.61.37,6.81.49,8.8.53a7.07,7.07,0,0,1,4.06,1.36c3.18,2.31,9.24,7.31,10.67,12.73,1.94,7.41-.3,54.11-1.39,64.8s-4.36,19.85,9.82,53.67,16.8,41,12,53.67c-4.19,11.05-19.85,57.52-23.76,69.14a3.9,3.9,0,0,1-3.69,2.64H272.2a3.88,3.88,0,0,1-3.74-5c4.61-15.87,18.66-64.8,18.84-72.27.22-9-11.51-35-11.51-35L250.34,390a4.63,4.63,0,0,1-4.43,3.58l-26.34.41a4.63,4.63,0,0,1-4.7-5.21c3.41-27.81,19-156.57,19.42-187.27.43-34.47,2.38-56.72,8.92-64.8S263.07,133.23,263.07,133.23Z"/><g class="cls-39"><path class="cls-40" d="M256.85,158.14a69.09,69.09,0,0,0-2.9,25.71c2.4,27.93-1.52,38.92,15.79,39.58s58.11-15.28,58.11-15.28l1.59-5.32s-41.78,7.86-45.65,3.93,0-33.82-2.92-46"/><line class="cls-41" x1="215.98" y1="386.54" x2="219.48" y2="386.54"/><line class="cls-42" x1="226.21" y1="386.54" x2="236.31" y2="386.54"/><polyline class="cls-41" points="239.68 386.54 243.18 386.54 243.98 383.13"/><line class="cls-43" x1="245.64" y1="376.09" x2="268.02" y2="280.97"/><line class="cls-41" x1="268.85" y1="277.45" x2="269.65" y2="274.04"/><line class="cls-44" x1="265.96" y1="382.7" x2="301.53" y2="382.7"/></g><polygon class="cls-40" points="283.55 248.55 285.96 312.66 275.17 276.14 283.55 248.55"/><line class="cls-12" x1="275.34" y1="276.14" x2="283.71" y2="248.55"/><path class="cls-40" d="M261.36,127.43s-13.09,24.87-13.53,65.45-25.3,142.69-25.3,142.69S220.78,151,233.43,139.22A44.78,44.78,0,0,1,261.36,127.43Z"/><path class="cls-40" d="M253.67,148.4s4.09-9.18,17.18-6.25c14.21,3.18,13.86-2.93,13.86-2.93l-31.32-9.61Z"/><path class="cls-45" d="M247.53,228.32s.74,6.69,9.44,7"/><path class="cls-45" d="M268.07,235s-6.94-1.89-8.86-4.66"/><path class="cls-12" d="M236.38,230.32s0,4.66,14.32,5S296,234,300,231.78"/></g><path class="cls-12" d="M267,133.23s5.68,1.13,11.69,1.75c3.61.37,6.81.49,8.8.53a7.07,7.07,0,0,1,4.06,1.36c3.18,2.31,9.24,7.31,10.67,12.73,1.94,7.41-.3,54.11-1.39,64.8s-4.36,19.85,9.82,53.67,16.8,41,12,53.67c-4.19,11.05-19.85,57.52-23.76,69.14a3.9,3.9,0,0,1-3.69,2.64H276.16a3.88,3.88,0,0,1-3.74-5c4.61-15.87,18.66-64.8,18.84-72.27.22-9-15.92-40.15-15.92-40.15L248.67,390a4.63,4.63,0,0,1-4.43,3.58l-20.71.41a4.64,4.64,0,0,1-4.7-5.21c3.41-27.81,19-156.57,19.42-187.27.43-34.47,2.38-56.72,8.92-64.8S267,133.23,267,133.23Z"/><path class="cls-5" d="M257.73,153.93c-1.55,5.5-1.92,13.51-.94,24.9,2.4,27.93,2.91,48,20.22,48.66s58.11-15.28,58.11-15.28l-2.84-14.4s-41.78,7.86-45.65,3.93,0-33.82-2.92-46"/><g class="cls-46"><path class="cls-40" d="M261.36,221.24s6.33-5.45,16.8-3.49,15.06,12,11.57,14.84S259.4,236.52,261.36,221.24Z"/><path class="cls-44" d="M262.56,155.64a328.84,328.84,0,0,0,.66,33.54c1.3,15.91,5,24,5,24"/><line class="cls-12" x1="278.75" y1="202.8" x2="295.68" y2="202.64"/></g><path class="cls-12" d="M257.73,153.93c-1.55,5.5-1.92,13.51-.94,24.9,2.4,27.93,2.91,48,20.22,48.66s58.11-15.28,58.11-15.28l-2.84-14.4s-41.78,7.86-45.65,3.93,0-33.82-2.92-46"/><path class="cls-27" d="M345.44,270.25s15.08.83,33.56-22c15.24-18.84,17.25-48.71,17.48-58.57a3.26,3.26,0,0,0-3.12-3.34c-5.27-.24-16.28-1.34-26-6.17a77.85,77.85,0,0,1-19.58-14.37,3.25,3.25,0,0,0-4.61,0,77.85,77.85,0,0,1-19.58,14.37c-9.75,4.83-20.76,5.93-26,6.17a3.26,3.26,0,0,0-3.12,3.34c.23,9.86,2.24,39.73,17.48,58.57C330.37,271.08,345.44,270.25,345.44,270.25Z"/><path class="cls-23" d="M345.06,263v.07c-1.6-.11-13.17-1.51-27.61-19.36-12.34-15.25-15.13-39.38-15.75-50.56,6.56-.6,16.17-2.25,25-6.64a83.34,83.34,0,0,0,18.71-13.09,83.34,83.34,0,0,0,18.72,13.09c8.87,4.39,18.48,6,25,6.64-.62,11.18-3.41,35.31-15.75,50.56-14.77,18.26-26.54,19.3-27.71,19.36Z"/><g class="cls-47"><path class="cls-9" d="M340.35,264.13v.06c-1.6-.1-13.18-1.51-27.61-19.35-12.35-15.25-15.14-39.38-15.75-50.56,6.56-.61,16.17-2.25,25-6.64a83.34,83.34,0,0,0,18.71-13.09,83.34,83.34,0,0,0,18.71,13.09c8.87,4.39,18.48,6,25,6.64-.61,11.18-3.4,35.31-15.75,50.56C354,263.1,342.19,264.14,341,264.2Z"/></g><path class="cls-12" d="M345.06,263v.07c-1.6-.11-13.17-1.51-27.61-19.36-12.34-15.25-15.13-39.38-15.75-50.56,6.56-.6,16.17-2.25,25-6.64a83.34,83.34,0,0,0,18.71-13.09,83.34,83.34,0,0,0,18.72,13.09c8.87,4.39,18.48,6,25,6.64-.62,11.18-3.41,35.31-15.75,50.56-14.77,18.26-26.54,19.3-27.71,19.36Z"/><polygon class="cls-27" points="363.35 211.9 351.83 211.9 351.83 200.38 339.06 200.38 339.06 211.9 327.54 211.9 327.54 224.67 339.06 224.67 339.06 236.19 351.83 236.19 351.83 224.67 363.35 224.67 363.35 211.9"/><path class="cls-9" d="M223.61,394.12s-3.42,7.93-3.2,12.41,2.7,6.34,5.94,6.34h34.2s6.59-1,5.22-5.72-16-6.72-19.64-8.71a12.64,12.64,0,0,1-5-4.65Z"/><g class="cls-48"><path class="cls-1" d="M238.53,391.86s-10.6,9.85-23.34,11.47S212.93,391,212.93,391Z"/></g><path class="cls-12" d="M223.61,394.12s-3.42,7.93-3.2,12.41,2.7,6.34,5.94,6.34h34.2s6.59-1,5.22-5.72-16-6.72-19.64-8.71a12.64,12.64,0,0,1-5-4.65Z"/><path class="cls-2" d="M253.41,106.51c-.08,10.59,8.51,15.6,16.15,17s16.9-3.6,16.9-3.6c18.44-9.38,19.78-30.78,12.44-37.74-4.44-4.22-9-7.31-24.11-4.37S253.52,92.76,253.41,106.51Z"/><path class="cls-9" d="M286.46,119.92s-9.27,5-16.9,3.6-16.7-6.43-16.15-17,8.29-10.7,8.29-10.7-.46-7.2,8.23-11,13.81-.55,13.81-.55,6-3.49,12.22,2.07S304.9,110.54,286.46,119.92Z"/><g class="cls-49"><path class="cls-5" d="M284.62,122.39s-9.27,5-16.91,3.6-16.69-6.44-16.14-17,4.68-14.27,4.68-14.27,3.15-3.62,11.83-7.44,13.81-.54,13.81-.54,6-3.5,12.22,2.07S303.06,113,284.62,122.39Z"/><path class="cls-40" d="M253.39,98.11a26,26,0,0,0,10.74,17.53c9.89,7.13,17.92,6.21,17.92,6.21s-17.53,6.52-25.8-1.22S253.39,98.11,253.39,98.11Z"/></g><path class="cls-12" d="M286.46,119.92s-9.27,5-16.9,3.6-16.7-6.43-16.15-17,8.29-10.7,8.29-10.7-.46-7.2,8.23-11,13.81-.55,13.81-.55,6-3.49,12.22,2.07S304.9,110.54,286.46,119.92Z"/><path class="cls-50" d="M293.56,98.11s7.63,12.32,6.76,20-5,10.25-9.06,11.13-5.45,0-5.45,0l-1.64,9.71s-5.12,1.09-9.05-.77-4.69-4.14-4.69-4.14l3.27-10.48s-7.74-2.51-6.54-8.83,7.3-1.86,7.3-1.86a12.11,12.11,0,0,0,5.9-4.69c2.18-3.49,2-5.89,2-5.89A13.52,13.52,0,0,0,293.56,98.11Z"/><g class="cls-51"><path class="cls-23" d="M283.71,128.05s-7.16,3.85-13,1.88S269,125,269,125l4.68-1.51Z"/><path class="cls-9" d="M283.71,117.89l17.66-8s3.28,6.25,1.24,11.34a12.76,12.76,0,0,1-11.35,8c-4.65.25-11.7-2.51-11.7-2.51a8.09,8.09,0,0,0,3.41-4.37A8.3,8.3,0,0,0,283.71,117.89Z"/><g class="cls-52"><path class="cls-5" d="M280.5,122.37s5.25,3.9,9.66,4.62a11.89,11.89,0,0,0,7-.66s-5.45,5.57-12.43,4-6.47-4.58-6.47-4.58Z"/></g><path class="cls-12" d="M283.71,117.89l17.66-8s3.28,6.25,1.24,11.34a12.76,12.76,0,0,1-11.35,8c-4.65.25-11.7-2.51-11.7-2.51a8.09,8.09,0,0,0,3.41-4.37A8.3,8.3,0,0,0,283.71,117.89Z"/><path class="cls-12" d="M283.71,117.89,274.46,112s-5.81-5.31-9.23-.44.29,6.76,3,9.16a11.58,11.58,0,0,0,5.49,2.8l5.86,3.17"/><path class="cls-6" d="M272.29,115.57s-2-.58-1.38,1.82,2.4,2.47,2.4,2.47"/><path class="cls-23" d="M286,100.52a12.21,12.21,0,0,1-3.72,7.92,15.8,15.8,0,0,1-7.34,3.79l4.88-12.66Z"/></g><path class="cls-12" d="M293.56,98.11s7.63,12.32,6.76,20-5,10.25-9.06,11.13-5.45,0-5.45,0l-1.64,9.71s-5.12,1.09-9.05-.77-4.69-4.14-4.69-4.14l3.27-10.48s-7.74-2.51-6.54-8.83,7.3-1.86,7.3-1.86a12.11,12.11,0,0,0,5.9-4.69c2.18-3.49,2-5.89,2-5.89A13.52,13.52,0,0,0,293.56,98.11Z"/><line class="cls-12" x1="274.46" y1="112.83" x2="298.79" y2="102.36"/><path class="cls-9" d="M298.79,102.36l-16.47,7.09s2.11,1.06,2.51,2.73a43.71,43.71,0,0,1,.66,4.88L300.86,110S301.81,105.41,298.79,102.36Z"/><g class="cls-53"><rect class="cls-5" x="290.74" y="102.36" width="1.89" height="14.7" transform="translate(63.95 -103.02) rotate(22.44)"/><rect class="cls-5" x="294.78" y="101.72" width="0.82" height="14.7" transform="translate(63.98 -104.41) rotate(22.44)"/></g><path class="cls-12" d="M298.79,102.36l-16.47,7.09s2.11,1.06,2.51,2.73a43.71,43.71,0,0,1,.66,4.88L300.86,110S301.81,105.41,298.79,102.36Z"/><path class="cls-9" d="M383,270.25a3.74,3.74,0,0,1,.24.4l.81,1.72a4.91,4.91,0,0,0,2.29,2.32c.59.28,1.18.54,1.77.83a1.5,1.5,0,0,1,.27.24c-.1.09-.17.22-.29.28-.58.29-1.17.55-1.75.84A4.82,4.82,0,0,0,384,279.2c-.28.59-.55,1.18-.83,1.76-.05.09-.16.2-.24.2s-.19-.11-.23-.2c-.29-.58-.56-1.17-.84-1.76a4.84,4.84,0,0,0-2.32-2.34l-1.72-.82a1.24,1.24,0,0,1-.29-.27,1.53,1.53,0,0,1,.3-.27c.58-.28,1.18-.54,1.76-.83a4.77,4.77,0,0,0,2.24-2.26c.28-.58.55-1.17.84-1.75A3,3,0,0,1,383,270.25Z"/><path class="cls-9" d="M163,281.16c.07.12.12.18.16.25.17.37.34.75.52,1.11a3.08,3.08,0,0,0,1.48,1.5l1.14.54a.83.83,0,0,1,.17.16c-.06.06-.11.14-.18.17l-1.14.55a3.11,3.11,0,0,0-1.47,1.5l-.54,1.13c0,.06-.1.13-.15.13a.21.21,0,0,1-.15-.13c-.19-.37-.36-.75-.54-1.13a3.21,3.21,0,0,0-1.5-1.52c-.37-.18-.74-.34-1.11-.53-.08,0-.13-.11-.19-.17a.82.82,0,0,1,.2-.17c.37-.18.76-.35,1.13-.54a3,3,0,0,0,1.44-1.46c.19-.37.36-.75.55-1.13A1.23,1.23,0,0,1,163,281.16Z"/><path class="cls-9" d="M176.3,150.92a5,5,0,0,1,.27.43c.31.64.6,1.28.91,1.91a5.35,5.35,0,0,0,2.54,2.58c.65.32,1.31.61,1.95.92a1.58,1.58,0,0,1,.31.27,1.55,1.55,0,0,1-.32.31l-2,.93a5.39,5.39,0,0,0-2.54,2.58c-.31.65-.61,1.31-.92,2-.05.09-.18.22-.26.22s-.22-.12-.27-.22c-.32-.65-.61-1.3-.92-1.95a5.45,5.45,0,0,0-2.58-2.61l-1.91-.91a1.55,1.55,0,0,1-.33-.3,1.81,1.81,0,0,1,.34-.29c.65-.32,1.31-.61,2-.93a5.37,5.37,0,0,0,2.48-2.5c.31-.65.61-1.31.93-1.95A3.73,3.73,0,0,1,176.3,150.92Z"/><circle class="cls-54" cx="199.7" cy="209.77" r="2.49"/><circle class="cls-54" cx="340.65" cy="131.94" r="2.49"/><line class="cls-12" x1="202.16" y1="412.87" x2="328.42" y2="412.87"/><line class="cls-12" x1="345.44" y1="412.87" x2="392.27" y2="412.87"/><line class="cls-12" x1="455.3" y1="412.87" x2="527.95" y2="412.87"/><path class="cls-55" d="M331.77,293s3.69,14.65,3.35,20.8a36,36,0,0,1-3.35,12.15"/><path class="cls-55" d="M405.73,203.15s-.31,10.61-2.25,18.39a86.13,86.13,0,0,1-5.64,14.65"/><path class="cls-55" d="M410.14,229.85s-4.51,18.4-8.82,21.05"/></g></svg>