<svg id="Covid_Medical_Illustration" data-name="Covid Medical Illustration" xmlns="http://www.w3.org/2000/svg" xmlns:xlink="http://www.w3.org/1999/xlink" viewBox="0 0 700 500"><defs><style>.cls-1{fill:#f9edea;}.cls-2,.cls-9{fill:#fff;}.cls-12,.cls-13,.cls-19,.cls-2,.cls-28,.cls-3,.cls-35,.cls-36,.cls-38,.cls-4,.cls-5{stroke:#303870;}.cls-12,.cls-13,.cls-19,.cls-2,.cls-28,.cls-29,.cls-3,.cls-33,.cls-35,.cls-36,.cls-38,.cls-4,.cls-40,.cls-41,.cls-5{stroke-linecap:round;stroke-linejoin:round;}.cls-12,.cls-13,.cls-19,.cls-2,.cls-28,.cls-29,.cls-3,.cls-5{stroke-width:2px;}.cls-3,.cls-8{fill:#feded5;}.cls-15,.cls-19,.cls-4{fill:#f87b5a;}.cls-33,.cls-36,.cls-38,.cls-4,.cls-40,.cls-41{stroke-width:2.25px;}.cls-17,.cls-5{fill:#ec8d1e;}.cls-28,.cls-6{fill:#8981ea;}.cls-7{clip-path:url(#clip-path);}.cls-10{clip-path:url(#clip-path-2);}.cls-11{fill:#b8f0ff;}.cls-12,.cls-29,.cls-33,.cls-35,.cls-38,.cls-40,.cls-41{fill:none;}.cls-13,.cls-14{fill:#80d8ff;}.cls-16{fill:#6851f9;}.cls-18{clip-path:url(#clip-path-3);}.cls-20{clip-path:url(#clip-path-4);}.cls-21{fill:#303870;}.cls-22{clip-path:url(#clip-path-5);}.cls-23{fill:#d87819;}.cls-24{clip-path:url(#clip-path-6);}.cls-25,.cls-36{fill:#f4b3a8;}.cls-26{clip-path:url(#clip-path-7);}.cls-27{clip-path:url(#clip-path-8);}.cls-29{stroke:#6851f9;}.cls-30{clip-path:url(#clip-path-9);}.cls-31{clip-path:url(#clip-path-10);}.cls-32{fill:#090d3c;}.cls-33{stroke:#fff;}.cls-34{clip-path:url(#clip-path-11);}.cls-35{stroke-width:1.5px;}.cls-37{clip-path:url(#clip-path-12);}.cls-39{clip-path:url(#clip-path-13);}.cls-40{stroke:#80d8ff;}.cls-41{stroke:#ec8d1e;}</style><clipPath id="clip-path"><path class="cls-1" d="M207.53,416.08h281.7s85.61-228.45,45.39-288.5c-31.81-47.49-118.73-3.22-141.13,52.23S327.74,149,291.37,167.76C219.15,205.07,210.44,409.22,207.53,416.08Z"/></clipPath><clipPath id="clip-path-2"><path class="cls-2" d="M430.62,243.25s-29.39-8.15-41-31.42-7.86-94-17.17-117.82-35.78-35.78-35.78-35.78h-144S219.15,70.16,228.46,94s5.53,94.55,17.16,117.82,41,31.42,41,31.42Z"/></clipPath><clipPath id="clip-path-3"><circle class="cls-5" cx="431.61" cy="89.29" r="10.25"/></clipPath><clipPath id="clip-path-4"><polygon class="cls-3" points="325.22 175.13 325.07 184.58 333.69 180.73 325.22 175.13"/></clipPath><clipPath id="clip-path-5"><path class="cls-5" d="M418.68,120.92c-9,3.26-26.91-11.78-25.16-22.4s8.73-13.67,15.71-14.69a19.49,19.49,0,0,1,20.94,14.55C433.23,109.87,427.55,117.72,418.68,120.92Z"/></clipPath><clipPath id="clip-path-6"><path class="cls-3" d="M401.81,95.32s-4.61,1.6-6.26,4.8-3.23,7.78-2.59,16.29a10.84,10.84,0,0,0,11.32,9.75c5.38-.44,6.11-1.89,6.11-1.89l3.06,10.86a11,11,0,0,0,9-1.56c4.22-3,1.89-6,1.89-6l-4.94-11.2s5.24-3.63,3.64-8-6.55.15-6.55.15-7.13-2.91-10.18-7S401.81,95.32,401.81,95.32Z"/></clipPath><clipPath id="clip-path-7"><path class="cls-2" d="M410.39,133.76l-1-4.47L426,123l1.31,3.82s8.19,1.29,12.87,7.63c5.24,7.09,21.71,60.26,26.95,76s17.16,70.4,17.16,70.4H393.4s2.74-100.66,5.06-117.24S410.39,133.76,410.39,133.76Z"/></clipPath><clipPath id="clip-path-8"><path class="cls-6" d="M414.87,131.32l-.84-4.67,17.8-5.79,1.22,4s8.6,1.7,13.27,8.46c5.23,7.55,20.32,63.18,25.17,79.64s15.07,73.45,15.07,73.45l-96.05-4.05S397.79,178.55,401,161.54,414.87,131.32,414.87,131.32Z"/></clipPath><clipPath id="clip-path-9"><path class="cls-3" d="M407.61,169.52l-10.93,14.37s-14.8-9.55-21.49-14.37-15.34-13.25-16.44-16.45-2.1-7.35-3.49-6.91-1.31,2.18-.94,4.29.27,4.29-.23,3.93-4.64-7.71-6.32-7.35-1.89,1.09-2.11,1.75a1.81,1.81,0,0,0,0,1.16,2.86,2.86,0,0,0-2.11.8,5.08,5.08,0,0,0-.87,2.33,2.08,2.08,0,0,0-1.11,1.16,6.38,6.38,0,0,0,0,2.62,1.28,1.28,0,0,0-1.51.73c-.43,1-.8,1.62-.51,2.41s7.28,6.31,10.48,8.64,12.94,12.22,16.51,16.22,15.38,19.53,25.85,21.78,18.91-2.11,24.22-8.73a157.31,157.31,0,0,0,10.65-15.67Z"/></clipPath><clipPath id="clip-path-10"><path class="cls-3" d="M436.86,280.67,417.29,388.28s-1.94,6.76-6.86,8.51-22.77,7.88-22.74,12.4c0,2.36,1.07,5.66,4.62,6.64,5,1.38,14.31-.35,19.28-.22,8.5.22,14.92-4.59,18-4.59s1.95,4.81,1.95,4.81h8a281.66,281.66,0,0,1,5.77-51.21c5.7-26.91,20.16-83.95,20.16-83.95Z"/></clipPath><clipPath id="clip-path-11"><path class="cls-3" d="M427.71,280.78l-12.47,107.3s-1.5,6.73-6.3,8.48-22.25,7.85-21.92,12.36a7.1,7.1,0,0,0,5.05,6.62c5.1,1.38,14.3-.35,19.27-.22,8.51.22,14.62-4.58,17.68-4.58s2.26,4.8,2.26,4.8h8a276.07,276.07,0,0,1,2.4-51.05c3.93-26.84,14.62-83.71,14.62-83.71Z"/></clipPath><clipPath id="clip-path-12"><circle class="cls-4" cx="233.66" cy="290.33" r="25.42"/></clipPath><clipPath id="clip-path-13"><circle class="cls-4" cx="499.93" cy="164.05" r="14.77"/></clipPath></defs><g id="Fill_the_from" data-name="Fill the from"><path class="cls-1" d="M207.53,416.08h281.7s85.61-228.45,45.39-288.5c-31.81-47.49-118.73-3.22-141.13,52.23S327.74,149,291.37,167.76C219.15,205.07,210.44,409.22,207.53,416.08Z"/><g class="cls-7"><path class="cls-8" d="M194.62,286.38s42.72-47.29,95.6-7,90.24,61.89,126.43,37S518,274.44,536.76,304.3s-.65,116.92-.65,116.92H193.33Z"/></g><path class="cls-9" d="M430.62,243.25s-29.39-8.15-41-31.42-7.86-94-17.17-117.82-35.78-35.78-35.78-35.78h-144S219.15,70.16,228.46,94s5.53,94.55,17.16,117.82,41,31.42,41,31.42Z"/><g class="cls-10"><path class="cls-11" d="M398.55,179.86s-45.31,42.81-27.1,75.75,79.85,17.23,79.85,17.23v-93Z"/></g><path class="cls-12" d="M430.62,243.25s-29.39-8.15-41-31.42-7.86-94-17.17-117.82-35.78-35.78-35.78-35.78h-144S219.15,70.16,228.46,94s5.53,94.55,17.16,117.82,41,31.42,41,31.42Z"/><ellipse class="cls-11" cx="326.72" cy="186" rx="6.2" ry="4.67"/><path class="cls-13" d="M272.65,106.71s5.69.32,6.38-8.59c.57-7.35-6.57-19-9.09-22.85a2.92,2.92,0,0,0-2-1.3,36.34,36.34,0,0,1-11.07-2.41A70,70,0,0,1,246,66c-.8-.5-1.55-.5-1.67,0A10.91,10.91,0,0,1,241,71.56c-2.27,1.88-6,2.31-7.82,2.41-.62,0-.74.6-.25,1.3,2.68,3.85,11.27,15.5,21.77,22.85C267.4,107,272.65,106.71,272.65,106.71Z"/><polygon class="cls-14" points="347.38 76.16 289.5 76.16 287.16 72.69 345.03 72.69 347.38 76.16"/><polygon class="cls-14" points="357.68 91.44 299.81 91.44 297.47 87.97 355.34 87.97 357.68 91.44"/><polygon class="cls-14" points="337.12 106.71 310.12 106.71 307.78 103.24 334.78 103.24 337.12 106.71"/><path class="cls-9" d="M264.05,81l-2.86-1.78c-.55-.35-1.07-.35-1.16,0l-2.13,8.36-7-4.37c-.55-.34-1.07-.34-1.15,0L249.28,85c-.08.34.29.9.84,1.24l8,5L261,93.05c.55.34,1.07.34,1.16,0l.45-1.79h0l2.29-9C265,81.93,264.6,81.37,264.05,81Z"/><polygon class="cls-11" points="301.07 136.7 270.19 136.7 269.91 133.56 300.78 133.56 301.07 136.7"/><path class="cls-12" d="M260.19,141.31h-5.34a4,4,0,0,1-3.89-3.53l-.48-5.29a3.18,3.18,0,0,1,3.24-3.53h5.34a4,4,0,0,1,3.89,3.53l.48,5.29A3.18,3.18,0,0,1,260.19,141.31Z"/><polygon class="cls-11" points="362.69 136.7 331.82 136.7 331.53 133.56 362.41 133.56 362.69 136.7"/><path class="cls-12" d="M321.81,141.31h-5.34a4,4,0,0,1-3.88-3.53l-.49-5.29a3.19,3.19,0,0,1,3.24-3.53h5.34a4,4,0,0,1,3.89,3.53l.48,5.29A3.18,3.18,0,0,1,321.81,141.31Z"/><polygon class="cls-11" points="303.2 159.99 272.32 159.99 272.04 156.85 302.91 156.85 303.2 159.99"/><path class="cls-12" d="M262.32,164.59H257a4,4,0,0,1-3.89-3.53l-.48-5.29a3.18,3.18,0,0,1,3.24-3.53h5.34a4,4,0,0,1,3.89,3.53l.48,5.29A3.18,3.18,0,0,1,262.32,164.59Z"/><polygon class="cls-11" points="364.82 159.99 333.94 159.99 333.66 156.85 364.53 156.85 364.82 159.99"/><path class="cls-12" d="M323.94,164.59H318.6a4,4,0,0,1-3.89-3.53l-.48-5.29a3.18,3.18,0,0,1,3.24-3.53h5.34a4,4,0,0,1,3.89,3.53l.48,5.29A3.18,3.18,0,0,1,323.94,164.59Z"/><polygon class="cls-11" points="367.14 185.37 336.26 185.37 335.98 182.23 366.85 182.23 367.14 185.37"/><path class="cls-12" d="M326.26,190h-5.34a4,4,0,0,1-3.89-3.53l-.48-5.29a3.18,3.18,0,0,1,3.24-3.53h5.34a4,4,0,0,1,3.89,3.53l.48,5.29A3.18,3.18,0,0,1,326.26,190Z"/><polygon class="cls-15" points="325.31 160.84 322.53 158.31 324.65 156 322.54 154.08 320.41 156.39 318.1 154.29 316.33 156.21 318.65 158.31 316.52 160.62 318.64 162.54 320.76 160.23 323.55 162.76 325.31 160.84"/><path class="cls-16" d="M264.91,131.77l-1.2-1.08a.54.54,0,0,0-.76,0l-4.66,5.07-2.91-2.65a.54.54,0,0,0-.76,0l-1,1.08a.54.54,0,0,0,.07.76l3.33,3,1.2,1.08a.54.54,0,0,0,.76,0l1-1.08h0l5-5.45A.53.53,0,0,0,264.91,131.77Z"/><path class="cls-16" d="M326.53,131.77l-1.19-1.08a.54.54,0,0,0-.76,0l-4.66,5.07L317,133.11a.54.54,0,0,0-.76,0l-1,1.08a.54.54,0,0,0,.07.76l3.34,3,1.19,1.08a.54.54,0,0,0,.76,0l1-1.08h0l5-5.45A.53.53,0,0,0,326.53,131.77Z"/><path class="cls-16" d="M267,155.05,265.84,154a.54.54,0,0,0-.76,0L260.42,159l-2.92-2.65a.54.54,0,0,0-.76,0l-1,1.08a.54.54,0,0,0,.07.76l3.33,3,1.19,1.09a.56.56,0,0,0,.76,0l1-1.09h0l5-5.45A.53.53,0,0,0,267,155.05Z"/><circle class="cls-17" cx="431.61" cy="89.29" r="10.25"/><g class="cls-18"><path class="cls-13" d="M421.36,82.26s6.41,2.82,9.65,8.26a24,24,0,0,1,3.36,10.59l-6.32,1.42L417.92,86Z"/></g><circle class="cls-12" cx="431.61" cy="89.29" r="10.25"/><rect class="cls-19" x="317.92" y="151.42" width="51.38" height="10.15" transform="translate(23.68 356.99) rotate(-56.56)"/><polygon class="cls-8" points="325.22 175.13 325.07 184.58 333.69 180.73 325.22 175.13"/><g class="cls-20"><polygon class="cls-21" points="324.04 180.2 323.94 186.28 329.5 183.8 324.04 180.2"/></g><polygon class="cls-12" points="325.22 175.13 325.07 184.58 333.69 180.73 325.22 175.13"/><path class="cls-17" d="M418.68,120.92c-9,3.26-26.91-11.78-25.16-22.4s8.73-13.67,15.71-14.69a19.49,19.49,0,0,1,20.94,14.55C433.23,109.87,427.55,117.72,418.68,120.92Z"/><g class="cls-22"><path class="cls-23" d="M431.61,95.32s-2,16.7-13.5,18.38.56,11,.56,11,18.94,3.37,20.17-5.07S431.61,95.32,431.61,95.32Z"/></g><path class="cls-12" d="M418.68,120.92c-9,3.26-26.91-11.78-25.16-22.4s8.73-13.67,15.71-14.69a19.49,19.49,0,0,1,20.94,14.55C433.23,109.87,427.55,117.72,418.68,120.92Z"/><path class="cls-8" d="M401.81,95.32s-4.61,1.6-6.26,4.8-3.23,7.78-2.59,16.29a10.84,10.84,0,0,0,11.32,9.75c5.38-.44,6.11-1.89,6.11-1.89l3.06,10.86a11,11,0,0,0,9-1.56c4.22-3,1.89-6,1.89-6l-4.94-11.2s5.24-3.63,3.64-8-6.55.15-6.55.15-7.13-2.91-10.18-7S401.81,95.32,401.81,95.32Z"/><g class="cls-24"><path class="cls-25" d="M401.81,95.32s4.87,11.53,10.39,14,4.34,1.64,7.6.38,6.38-.5,4.78.92,2.35-6.91-4.22-11-18.55-4.22-18.55-4.22"/><path class="cls-25" d="M410.39,124.27l5.18-3.53s1.32,5.45-.42,8.59a10.91,10.91,0,0,1-4.76,4.43v-9.49"/><line class="cls-3" x1="409.85" y1="124.77" x2="415.47" y2="120.48"/></g><path class="cls-12" d="M401.81,95.32s-4.61,1.6-6.26,4.8-3.23,7.78-2.59,16.29a10.84,10.84,0,0,0,11.32,9.75c5.38-.44,6.11-1.89,6.11-1.89l3.06,10.86a11,11,0,0,0,9-1.56c4.22-3,1.89-6,1.89-6l-4.94-11.2s5.24-3.63,3.64-8-6.55.15-6.55.15-7.13-2.91-10.18-7S401.81,95.32,401.81,95.32Z"/><path class="cls-9" d="M410.39,133.76l-1-4.47L426,123l1.31,3.82s8.19,1.29,12.87,7.63c5.24,7.09,21.71,60.26,26.95,76s17.16,70.4,17.16,70.4H393.4s2.74-100.66,5.06-117.24S410.39,133.76,410.39,133.76Z"/><g class="cls-26"><path class="cls-6" d="M414.87,131.32l-.84-4.67,17.8-5.79,1.22,4s8.6,1.7,13.27,8.46c5.23,7.55,20.32,63.18,25.17,79.64s15.07,73.45,15.07,73.45l-96.05-4.05S397.79,178.55,401,161.54,414.87,131.32,414.87,131.32Z"/><g class="cls-27"><path class="cls-6" d="M430.6,182.11l-23.5-16.25s10.11-16.88,19.3-23.11,16.54,2.2,14.37,13.54S430.6,182.11,430.6,182.11Z"/></g><path class="cls-16" d="M433.5,164.59s-1.5,35.74-15.77,46.63-24.91,6.07-24.91,6.07L390,198.45Z"/><path class="cls-28" d="M427.26,182.23l-22.83-14.76s8.87-16.73,17.31-23.13,15.71,1.45,14.11,12.51S427.26,182.23,427.26,182.23Z"/><line class="cls-29" x1="413.41" y1="132.48" x2="427.3" y2="126.78"/><path class="cls-16" d="M468.79,219.48s4,36.28-4.94,43.85-37.11,7.58-47.62,9.08-22.83,8.37-22.83,8.37h97.16Z"/></g><path class="cls-12" d="M410.39,133.76l-1-4.47L426,123l1.31,3.82s8.19,1.29,12.87,7.63c5.24,7.09,21.71,60.26,26.95,76s17.16,70.4,17.16,70.4H393.4s2.74-100.66,5.06-117.24S410.39,133.76,410.39,133.76Z"/><path class="cls-8" d="M407.61,169.52l-10.93,14.37s-14.8-9.55-21.49-14.37-15.34-13.25-16.44-16.45-2.1-7.35-3.49-6.91-1.31,2.18-.94,4.29.27,4.29-.23,3.93-4.64-7.71-6.32-7.35-1.89,1.09-2.11,1.75a1.81,1.81,0,0,0,0,1.16,2.86,2.86,0,0,0-2.11.8,5.08,5.08,0,0,0-.87,2.33,2.08,2.08,0,0,0-1.11,1.16,6.38,6.38,0,0,0,0,2.62,1.28,1.28,0,0,0-1.51.73c-.43,1-.8,1.62-.51,2.41s7.28,6.31,10.48,8.64,12.94,12.22,16.51,16.22,15.38,19.53,25.85,21.78,18.91-2.11,24.22-8.73a157.31,157.31,0,0,0,10.65-15.67Z"/><g class="cls-30"><line class="cls-3" x1="396.68" y1="183.89" x2="402.34" y2="187.94"/><circle class="cls-25" cx="396.3" cy="210.37" r="12.95"/><path class="cls-25" d="M403.88,174.42s3.9.21,11,3.2a102.37,102.37,0,0,1,12.35,6.18l3.36-4.87L407.1,165.86l-3.22,8.56"/></g><path class="cls-12" d="M407.61,169.52l-10.93,14.37s-14.8-9.55-21.49-14.37-15.34-13.25-16.44-16.45-2.1-7.35-3.49-6.91-1.31,2.18-.94,4.29.27,4.29-.23,3.93-4.64-7.71-6.32-7.35-1.89,1.09-2.11,1.75a1.81,1.81,0,0,0,0,1.16,2.86,2.86,0,0,0-2.11.8,5.08,5.08,0,0,0-.87,2.33,2.08,2.08,0,0,0-1.11,1.16,6.38,6.38,0,0,0,0,2.62,1.28,1.28,0,0,0-1.51.73c-.43,1-.8,1.62-.51,2.41s7.28,6.31,10.48,8.64,12.94,12.22,16.51,16.22,15.38,19.53,25.85,21.78,18.91-2.11,24.22-8.73a157.31,157.31,0,0,0,10.65-15.67Z"/><path class="cls-8" d="M436.86,280.67,417.29,388.28s-1.94,6.76-6.86,8.51-22.77,7.88-22.74,12.4c0,2.36,1.07,5.66,4.62,6.64,5,1.38,14.31-.35,19.28-.22,8.5.22,14.92-4.59,18-4.59s1.95,4.81,1.95,4.81h8a281.66,281.66,0,0,1,5.77-51.21c5.7-26.91,20.16-83.95,20.16-83.95Z"/><g class="cls-31"><polygon class="cls-32" points="456.36 418.37 378.48 418.37 385.63 309.93 463.51 309.93 456.36 418.37"/><path class="cls-25" d="M420.72,290.16s14.91,5,29.82-2.26,17.75-14.68,17.75-14.68l-42.36-.94Z"/><line class="cls-33" x1="410.62" y1="400.58" x2="399.96" y2="404.25"/></g><path class="cls-12" d="M436.86,280.67,417.29,388.28s-1.94,6.76-6.86,8.51-22.77,7.88-22.74,12.4c0,2.36,1.07,5.66,4.62,6.64,5,1.38,14.31-.35,19.28-.22,8.5.22,14.92-4.59,18-4.59s1.95,4.81,1.95,4.81h8a281.66,281.66,0,0,1,5.77-51.21c5.7-26.91,20.16-83.95,20.16-83.95Z"/><path class="cls-8" d="M427.71,280.78l-12.47,107.3s-1.5,6.73-6.3,8.48-22.25,7.85-21.92,12.36a7.1,7.1,0,0,0,5.05,6.62c5.1,1.38,14.3-.35,19.27-.22,8.51.22,14.62-4.58,17.68-4.58s2.26,4.8,2.26,4.8h8a276.07,276.07,0,0,1,2.4-51.05c3.93-26.84,14.62-83.71,14.62-83.71Z"/><g class="cls-34"><rect class="cls-21" x="378.41" y="309.95" width="77.88" height="108.12"/><path class="cls-25" d="M412.2,290.24s15.24,5,29.66-2.25,16.79-14.64,16.79-14.64l-42.42-.94Z"/><line class="cls-33" x1="409.38" y1="400.33" x2="398.96" y2="403.99"/></g><path class="cls-12" d="M427.71,280.78l-12.47,107.3s-1.5,6.73-6.3,8.48-22.25,7.85-21.92,12.36a7.1,7.1,0,0,0,5.05,6.62c5.1,1.38,14.3-.35,19.27-.22,8.51.22,14.62-4.58,17.68-4.58s2.26,4.8,2.26,4.8h8a276.07,276.07,0,0,1,2.4-51.05c3.93-26.84,14.62-83.71,14.62-83.71Z"/><path class="cls-3" d="M398.55,105.67s-.72,3.78-1.77,4.92a1.68,1.68,0,0,0,0,2.69,2.73,2.73,0,0,0,1.05.71"/><ellipse class="cls-35" cx="403.83" cy="106.61" rx="3.59" ry="5"/><ellipse class="cls-35" cx="393.26" cy="104.72" rx="3.59" ry="5"/><line class="cls-35" x1="396.85" y1="105.67" x2="400.24" y2="106.61"/><line class="cls-35" x1="407.31" y1="107.86" x2="416.21" y2="107.02"/><path class="cls-12" d="M398.55,118.63a4.59,4.59,0,0,0,3.86-.63"/><ellipse class="cls-21" cx="403.96" cy="106.81" rx="0.99" ry="1.48"/><path class="cls-15" d="M339.47,275.32a3.74,3.74,0,0,1,.24.4c.28.57.54,1.15.82,1.72a4.87,4.87,0,0,0,2.29,2.32c.58.28,1.18.54,1.76.83a1.5,1.5,0,0,1,.27.24,1.24,1.24,0,0,1-.28.28c-.58.29-1.18.55-1.76.84a4.91,4.91,0,0,0-2.29,2.32c-.28.59-.55,1.18-.83,1.76,0,.09-.15.2-.24.2s-.19-.11-.23-.19c-.29-.59-.56-1.18-.84-1.76a4.82,4.82,0,0,0-2.32-2.35l-1.72-.82a1.82,1.82,0,0,1-.29-.27,1.43,1.43,0,0,1,.3-.26c.59-.29,1.18-.55,1.76-.84a4.75,4.75,0,0,0,2.24-2.25c.28-.59.55-1.18.84-1.76A4.39,4.39,0,0,1,339.47,275.32Z"/><path class="cls-15" d="M171.51,321.44l.16.26c.18.37.35.74.52,1.11a3.17,3.17,0,0,0,1.48,1.5l1.14.53a.87.87,0,0,1,.17.16,1,1,0,0,1-.18.18c-.37.19-.76.36-1.13.54a3.12,3.12,0,0,0-1.48,1.5c-.18.38-.35.76-.54,1.14a.22.22,0,0,1-.15.12.22.22,0,0,1-.15-.12c-.19-.38-.36-.76-.54-1.14a3.1,3.1,0,0,0-1.5-1.51l-1.11-.53A1.54,1.54,0,0,1,168,325a1.12,1.12,0,0,1,.2-.18l1.14-.53a3.14,3.14,0,0,0,1.44-1.46l.54-1.13C171.37,321.63,171.43,321.57,171.51,321.44Z"/><path class="cls-15" d="M184.84,191.2a3.66,3.66,0,0,1,.26.44c.31.63.6,1.27.91,1.91a5.35,5.35,0,0,0,2.54,2.58c.65.31,1.31.6,2,.92a1.5,1.5,0,0,1,.3.27c-.11.1-.19.24-.32.3-.64.33-1.3.62-2,.94a5.39,5.39,0,0,0-2.54,2.58l-.92,2c-.05.1-.17.22-.26.22s-.22-.12-.27-.22c-.31-.64-.61-1.3-.92-2a5.45,5.45,0,0,0-2.58-2.61c-.63-.3-1.28-.59-1.91-.9a1.52,1.52,0,0,1-.32-.3,1.92,1.92,0,0,1,.34-.3c.64-.31,1.3-.6,2-.92a5.3,5.3,0,0,0,2.48-2.51c.32-.65.62-1.3.93-1.95A5.28,5.28,0,0,1,184.84,191.2Z"/><circle class="cls-14" cx="208.23" cy="250.05" r="2.49"/><circle class="cls-14" cx="349.18" cy="172.22" r="2.49"/><line class="cls-36" x1="192.68" y1="416.08" x2="336.45" y2="416.08"/><line class="cls-36" x1="366.95" y1="416.08" x2="472.17" y2="416.08"/><line class="cls-36" x1="484.28" y1="416.08" x2="536.89" y2="416.08"/><circle class="cls-15" cx="233.66" cy="290.33" r="25.42"/><g class="cls-37"><rect class="cls-9" x="229.55" y="278.08" width="8.23" height="24.5" rx="2.17"/><rect class="cls-9" x="229.55" y="278.08" width="8.23" height="24.5" rx="2.17" transform="translate(523.99 56.67) rotate(90)"/></g><circle class="cls-38" cx="233.66" cy="290.33" r="25.42"/><circle class="cls-15" cx="499.93" cy="164.05" r="14.77"/><g class="cls-39"><rect class="cls-9" x="497.54" y="156.94" width="4.78" height="14.23" rx="1.02"/><rect class="cls-9" x="497.54" y="156.94" width="4.78" height="14.23" rx="1.02" transform="translate(663.98 -335.88) rotate(90)"/></g><circle class="cls-38" cx="499.93" cy="164.05" r="14.77"/><path class="cls-40" d="M215.1,93.3s5.49,3.93,7,14.14a106.91,106.91,0,0,1,1.13,13.93"/><line class="cls-40" x1="224.96" y1="141.31" x2="226.93" y2="169.74"/><polyline class="cls-41" points="485.16 243.25 495.85 290.15 477.05 290.15"/></g></svg>