<svg id="Covid_Medical_Illustration" data-name="Covid Medical Illustration" xmlns="http://www.w3.org/2000/svg" xmlns:xlink="http://www.w3.org/1999/xlink" viewBox="0 0 700 500"><defs><style>.cls-1,.cls-8{fill:#6851f9;}.cls-1,.cls-10,.cls-2,.cls-3,.cls-30,.cls-33,.cls-4,.cls-5{stroke:#303870;}.cls-1,.cls-10,.cls-13,.cls-2,.cls-20,.cls-23,.cls-3,.cls-30,.cls-33,.cls-38,.cls-4,.cls-5{stroke-linecap:round;stroke-linejoin:round;}.cls-1,.cls-10,.cls-13,.cls-2,.cls-20,.cls-23,.cls-38,.cls-4,.cls-5{stroke-width:2.25px;}.cls-14,.cls-2{fill:#feded5;}.cls-12,.cls-3,.cls-4{fill:#fff;}.cls-3,.cls-30,.cls-33{stroke-width:1.5px;}.cls-27,.cls-5{fill:#f87b5a;}.cls-6{fill:#e1e1ff;}.cls-7{fill:#9c9cff;}.cls-9{clip-path:url(#clip-path);}.cls-10,.cls-13,.cls-20,.cls-23,.cls-33,.cls-38{fill:none;}.cls-11{fill:#303870;}.cls-13{stroke:#8981ea;}.cls-15{clip-path:url(#clip-path-2);}.cls-16,.cls-30{fill:#f4b3a8;}.cls-17{clip-path:url(#clip-path-3);}.cls-18{clip-path:url(#clip-path-4);}.cls-19{fill:#80d8ff;}.cls-20{stroke:#fff;}.cls-21{clip-path:url(#clip-path-5);}.cls-22{clip-path:url(#clip-path-6);}.cls-23{stroke:#80d8ff;}.cls-24{clip-path:url(#clip-path-7);}.cls-25{clip-path:url(#clip-path-8);}.cls-26{clip-path:url(#clip-path-9);}.cls-28{clip-path:url(#clip-path-10);}.cls-29{fill:#f25444;}.cls-31{clip-path:url(#clip-path-11);}.cls-32{fill:#8981ea;}.cls-34{clip-path:url(#clip-path-12);}.cls-35{fill:#f7b5a9;}.cls-36{clip-path:url(#clip-path-13);}.cls-37{fill:#83ffcc;}.cls-38{stroke:#6851f9;}</style><clipPath id="clip-path"><path class="cls-1" d="M413.89,243.68S387.73,254.34,384.63,256s-6.22,88.69-6.22,88.69l5.35,12.56-5.89,3.36-1.68,49.76h120.5L486.56,309h20s-2.53-34.91-10.7-46.46a40.17,40.17,0,0,0-23.09-16.33c-5.63-1.69-29.27-3-29.27-3Z"/></clipPath><clipPath id="clip-path-2"><polygon class="cls-2" points="502.61 308.96 517.62 410.4 496.69 410.4 486.56 308.96 502.61 308.96"/></clipPath><clipPath id="clip-path-3"><path class="cls-2" d="M384.63,256s16.43,1.78,21.87,21.49,16.71,66.07,16.71,66.07,50.3-21.21,54.62-23.27,25.53-9.76,28.72-6.2,6.19,14.27,4.69,16.9-4.69,2.06-4.69,2.06a2.18,2.18,0,0,1,2.25,1.32c.56,1.5-1.89,3.59-1.89,3.59s-17.44,5.23-25.7,10.67-43.74,29.47-53.5,32.29-28.12,3.19-41.28-19.9S360,296.29,363.52,280.9,372.71,256.69,384.63,256Z"/></clipPath><clipPath id="clip-path-4"><path class="cls-4" d="M388.86,196.52s-23.09.1-25.34-18.48,18.86-20,18.86-20,4.79-9.3,22.53-10.14,24.77,11.83,24.77,11.83,7.61.28,9.58,6.47,0,9.57,0,9.57,4.5,2.82,4.22,14.93-3.94,17.17-7.6,20S388.86,196.52,388.86,196.52Z"/></clipPath><clipPath id="clip-path-5"><path class="cls-2" d="M381.44,192.23s8.16-2,10.42-4.79a18.29,18.29,0,0,1,4.78-4.22s2.26,3.09,10.42,4.5a24,24,0,0,0,13.8-1.41,10.37,10.37,0,0,0,4.5,5.92,30.19,30.19,0,0,0,5.35,2.81s3.66-2.68,6.48,1.48-3.38,17.67-3.38,17.67l9.68,29S446.76,254.45,438,259s-23.65-11.27-23.65-11.27l-1.61-13.23a15.07,15.07,0,0,1-13.87-.84c-7.61-4.23-12.39-11.42-14.65-22.61A168.12,168.12,0,0,1,381.44,192.23Z"/></clipPath><clipPath id="clip-path-6"><path class="cls-4" d="M419.59,208.56l-23.82,5.12-13.7,5.77s1.77,11.7,6.1,14.78,16,3.2,21.8,1.35,17-12.15,17-12.15Z"/></clipPath><clipPath id="clip-path-7"><polygon class="cls-4" points="334.36 339.41 371.56 327.03 383.76 357.28 332.19 386.75 334.36 339.41"/></clipPath><clipPath id="clip-path-8"><path class="cls-4" d="M265,196.89s18-3,28.66-15.21,13.26-15.62,13.26-15.62,3.3,2.15,10-6.08,6.27-28.95-10.55-38.53c-12.2-6.94-25.61-8.82-35.26-6.23-10.46,2.81-11.72,7.3-11.72,7.3s-18.32-5.67-28.24,13.69S227.75,172,235,180.1s9.46,10,9.46,10l-1,6.93s-2.64,1.72-6.8,6.65c-8.53,10.11-6.46,20-6.46,20h29.2A30.83,30.83,0,0,0,265,196.89Z"/></clipPath><clipPath id="clip-path-9"><path class="cls-4" d="M265.12,219.56c-12.22,0-44.22,3.35-51.78,6.47s-23.27,14.48-32.29,45-7.65,95.06-2.91,107.35c5.28,13.67,11.93,16.58,11.93,16.58V410.4l141.07-.88s1.68-36.75,3.46-73.58c.21-4.29,3.42-26.8,3.86-31,2.65-25,3-29.69,1.16-37.45-2.71-11.53-9.3-28.3-24.62-35.06C302.41,226.87,265.12,219.56,265.12,219.56Z"/></clipPath><clipPath id="clip-path-10"><path class="cls-5" d="M234.87,216.07s25.6,50.91,28.8,64.58c2.22,9.48,4.09,26.71,5,36.39a102.91,102.91,0,0,1,.42,13.6l-2.83,79.76h17.16s.6-45.21,1.05-77.39c.17-12.53.32-23.08.4-28.21.29-18.33.59-92.8.59-92.8Z"/></clipPath><clipPath id="clip-path-11"><rect class="cls-3" x="345.81" y="295.66" width="26.74" height="7.51" transform="translate(-108.43 299.99) rotate(-39.89)"/></clipPath><clipPath id="clip-path-12"><path class="cls-2" d="M258.49,161.45s10.21,3,17.64-.47a120.83,120.83,0,0,0,12.56-6.65,10.41,10.41,0,0,0,6.46,6.67,20.72,20.72,0,0,0,8.86,1.12l2.92,3.94s-.44,22.58-2.7,28.76-5.84,11.94-12.93,14.62c-6.7,2.54-10.18,1.44-10.18,1.44l-2.47,17.44s1.07,15.16-11.68,12.78-16.27-18.51-16.27-18.51l4.81-27s-11.15-8.27-9.68-18.54S256.47,174,256.47,174Z"/></clipPath><clipPath id="clip-path-13"><path class="cls-4" d="M268.4,185.18l24.26,2.29,14.27,4.13s-.38,11.82-4.32,15.39-15.4,4.58-21.49,3.89c-10.23-1.17-19.28-8.91-19.28-8.91Z"/></clipPath></defs><g id="Get_vaccinated" data-name="Get vaccinated"><path class="cls-6" d="M223.31,289.47c0-77.22,62.82-140.05,140-140.05s140,62.83,140,140.05A140.12,140.12,0,0,1,433.91,410.4H535.1a209.1,209.1,0,0,0,38.29-120.93c0-116-94-210-210-210s-210,94-210,210.05A209.1,209.1,0,0,0,191.6,410.4H292.79A140.12,140.12,0,0,1,223.31,289.47Z"/><path class="cls-7" d="M503.39,289.47c0-77.22-62.82-140.05-140-140.05s-140,62.83-140,140.05A140.12,140.12,0,0,0,292.79,410.4H433.91A140.12,140.12,0,0,0,503.39,289.47Z"/><path class="cls-4" d="M437.29,270.39h70.42a24.74,24.74,0,0,1,24.74,24.74V410.4a0,0,0,0,1,0,0H437.29a0,0,0,0,1,0,0v-140A0,0,0,0,1,437.29,270.39Z"/><path class="cls-8" d="M413.89,243.68S387.73,254.34,384.63,256s-6.22,88.69-6.22,88.69l5.35,12.56-5.89,3.36-1.68,49.76h120.5L486.56,309h20s-2.53-34.91-10.7-46.46a40.17,40.17,0,0,0-23.09-16.33c-5.63-1.69-29.27-3-29.27-3Z"/><g class="cls-9"><path class="cls-10" d="M480.25,273.07s4.83,21.06,6.31,35.89"/><polygon class="cls-11" points="414.3 418.91 407.91 351.34 373.69 332.29 370.2 418.91 414.3 418.91"/><path class="cls-12" d="M459.16,243.19s23.28,7.27,30.26,16.58C499.56,273.28,506.55,309,506.55,309l6.67,1.46S507,272.83,498.86,262,473.52,243.4,459.16,243.19Z"/><ellipse class="cls-11" cx="418.68" cy="237.79" rx="25.41" ry="18.23"/><path class="cls-11" d="M409,411.78S444,387,459.16,372.36,480.56,347,480.56,347l-72.65,4.32Z"/><line class="cls-13" x1="451.16" y1="265.25" x2="451.16" y2="269.71"/><line class="cls-13" x1="453.53" y1="267.37" x2="449.07" y2="267.37"/><line class="cls-13" x1="437.14" y1="308.91" x2="437.14" y2="313.37"/><line class="cls-13" x1="439.51" y1="311.03" x2="435.06" y2="311.03"/><line class="cls-13" x1="475.37" y1="302.7" x2="475.37" y2="307.16"/><line class="cls-13" x1="477.74" y1="304.82" x2="473.28" y2="304.82"/><line class="cls-13" x1="478.98" y1="380.05" x2="478.98" y2="384.51"/><line class="cls-13" x1="481.35" y1="382.16" x2="476.9" y2="382.16"/></g><path class="cls-10" d="M413.89,243.68S387.73,254.34,384.63,256s-6.22,88.69-6.22,88.69l5.35,12.56-5.89,3.36-1.68,49.76h120.5L486.56,309h20s-2.53-34.91-10.7-46.46a40.17,40.17,0,0,0-23.09-16.33c-5.63-1.69-29.27-3-29.27-3Z"/><polygon class="cls-14" points="502.61 308.96 517.62 410.4 496.69 410.4 486.56 308.96 502.61 308.96"/><g class="cls-15"><polyline class="cls-16" points="508.8 334.4 491.63 359.68 484.87 332.94 508.8 334.4"/></g><polygon class="cls-10" points="502.61 308.96 517.62 410.4 496.69 410.4 486.56 308.96 502.61 308.96"/><path class="cls-14" d="M384.63,256s16.43,1.78,21.87,21.49,16.71,66.07,16.71,66.07,50.3-21.21,54.62-23.27,25.53-9.76,28.72-6.2,6.19,14.27,4.69,16.9-4.69,2.06-4.69,2.06a2.18,2.18,0,0,1,2.25,1.32c.56,1.5-1.89,3.59-1.89,3.59s-17.44,5.23-25.7,10.67-43.74,29.47-53.5,32.29-28.12,3.19-41.28-19.9S360,296.29,363.52,280.9,372.71,256.69,384.63,256Z"/><g class="cls-17"><line class="cls-10" x1="423.21" y1="343.59" x2="412.77" y2="350.63"/><path class="cls-12" d="M390.66,257.87s7.25,5.4,12.76,23.29c4.79,15.58,17,51,17,51s-5.19-48-12.23-63.47S390.66,257.87,390.66,257.87Z"/><circle class="cls-16" cx="386.43" cy="276.68" r="4.33"/></g><path class="cls-10" d="M384.63,256s16.43,1.78,21.87,21.49,16.71,66.07,16.71,66.07,50.3-21.21,54.62-23.27,25.53-9.76,28.72-6.2,6.19,14.27,4.69,16.9-4.69,2.06-4.69,2.06a2.18,2.18,0,0,1,2.25,1.32c.56,1.5-1.89,3.59-1.89,3.59s-17.44,5.23-25.7,10.67-43.74,29.47-53.5,32.29-28.12,3.19-41.28-19.9S360,296.29,363.52,280.9,372.71,256.69,384.63,256Z"/><path class="cls-12" d="M388.86,196.52s-23.09.1-25.34-18.48,18.86-20,18.86-20,4.79-9.3,22.53-10.14,24.77,11.83,24.77,11.83,7.61.28,9.58,6.47,0,9.57,0,9.57,4.5,2.82,4.22,14.93-3.94,17.17-7.6,20S388.86,196.52,388.86,196.52Z"/><g class="cls-18"><path class="cls-19" d="M384.69,196.52s-23.09.1-25.34-18.48,18.86-20,18.86-20,4.79-9.3,22.53-10.14,24.78,11.83,24.78,11.83,7.6.28,9.57,6.47,0,9.57,0,9.57,4.5,2.82,4.22,14.93-3.94,17.17-7.6,20S384.69,196.52,384.69,196.52Z"/><path class="cls-20" d="M374.41,168.85a7.5,7.5,0,0,0-4.21,7.26"/></g><path class="cls-10" d="M388.86,196.52s-23.09.1-25.34-18.48,18.86-20,18.86-20,4.79-9.3,22.53-10.14,24.77,11.83,24.77,11.83,7.61.28,9.58,6.47,0,9.57,0,9.57,4.5,2.82,4.22,14.93-3.94,17.17-7.6,20S388.86,196.52,388.86,196.52Z"/><path class="cls-14" d="M381.44,192.23s8.16-2,10.42-4.79a18.29,18.29,0,0,1,4.78-4.22s2.26,3.09,10.42,4.5a24,24,0,0,0,13.8-1.41,10.37,10.37,0,0,0,4.5,5.92,30.19,30.19,0,0,0,5.35,2.81s3.66-2.68,6.48,1.48-3.38,17.67-3.38,17.67l9.68,29S446.76,254.45,438,259s-23.65-11.27-23.65-11.27l-1.61-13.23a15.07,15.07,0,0,1-13.87-.84c-7.61-4.23-12.39-11.42-14.65-22.61A168.12,168.12,0,0,1,381.44,192.23Z"/><g class="cls-21"><path class="cls-10" d="M398.08,205.07s1.35,6.37-.37,8-1.13,4.91,1.36,5.11"/><ellipse class="cls-11" cx="389.21" cy="202.28" rx="2.53" ry="3.28" transform="translate(-21 46.95) rotate(-6.72)"/><ellipse class="cls-11" cx="408.88" cy="198.92" rx="2.53" ry="3.28" transform="translate(-20.47 49.22) rotate(-6.72)"/><path class="cls-10" d="M400.52,222.59l5.55-1.3s.46,3.31-2.11,4.44"/><path class="cls-16" d="M412.77,234.46s3.31-2,6.41-4.29a25.52,25.52,0,0,0,5.63-6.58s.42,10-3.38,15.31c-6.53,9.19-10.14,4.29-10.14,4.29l1.48-8.73"/><path class="cls-10" d="M424.81,223.59a26,26,0,0,1-5.63,6.58c-5.07,4.12-6.41,4.29-6.41,4.29"/><line class="cls-10" x1="430.71" y1="195.04" x2="419.59" y2="208.56"/><path class="cls-12" d="M419.59,208.56l-23.82,5.12-13.7,5.77s1.77,11.7,6.1,14.78,16,3.2,21.8,1.35,17-12.15,17-12.15Z"/><g class="cls-22"><path class="cls-23" d="M416.08,216.38s-11.84,2-15.5,3.43-9.16,3.33-9.16,3.33"/><path class="cls-23" d="M397.91,229.54s7.48-1.57,11.08-3.13,9-3.71,9-3.71"/></g><path class="cls-10" d="M419.59,208.56l-23.82,5.12-13.7,5.77s1.77,11.7,6.1,14.78,16,3.2,21.8,1.35,17-12.15,17-12.15Z"/><line class="cls-10" x1="427" y1="223.43" x2="433.81" y2="214.19"/><path class="cls-10" d="M432.13,201.17s2.81-.75,1.5,3"/></g><path class="cls-10" d="M381.44,192.23s8.16-2,10.42-4.79a18.29,18.29,0,0,1,4.78-4.22s2.26,3.09,10.42,4.5a24,24,0,0,0,13.8-1.41,10.37,10.37,0,0,0,4.5,5.92,30.19,30.19,0,0,0,5.35,2.81s3.66-2.68,6.48,1.48-3.38,17.67-3.38,17.67l9.68,29S446.76,254.45,438,259s-23.65-11.27-23.65-11.27l-1.61-13.23a15.07,15.07,0,0,1-13.87-.84c-7.61-4.23-12.39-11.42-14.65-22.61A168.12,168.12,0,0,1,381.44,192.23Z"/><polygon class="cls-12" points="334.36 339.41 371.56 327.03 383.76 357.28 332.19 386.75 334.36 339.41"/><g class="cls-24"><polyline class="cls-19" points="381.44 344.2 321.02 374.05 321.02 397.14 383.76 362.79 389.89 353.21 381.44 344.2"/></g><polygon class="cls-10" points="334.36 339.41 371.56 327.03 383.76 357.28 332.19 386.75 334.36 339.41"/><path class="cls-12" d="M265,196.89s18-3,28.66-15.21,13.26-15.62,13.26-15.62,3.3,2.15,10-6.08,6.27-28.95-10.55-38.53c-12.2-6.94-25.61-8.82-35.26-6.23-10.46,2.81-11.72,7.3-11.72,7.3s-18.32-5.67-28.24,13.69S227.75,172,235,180.1s9.46,10,9.46,10l-1,6.93s-2.64,1.72-6.8,6.65c-8.53,10.11-6.46,20-6.46,20h29.2A30.83,30.83,0,0,0,265,196.89Z"/><g class="cls-25"><path class="cls-8" d="M262,199.68s18-3,28.67-15.21,13.26-15.62,13.26-15.62,3.29,2.16,10-6.08,6.27-29-10.55-38.53c-12.2-6.94-25.61-8.82-35.26-6.23-10.47,2.81-11.73,7.3-11.73,7.3s-18.32-5.67-28.23,13.69-3.45,35.82,3.78,43.89,9.47,10,9.47,10l-1,6.93s-2.85,1.55-6.79,6.65-6.61,21-6.61,21l29.35-1.07A30.84,30.84,0,0,0,262,199.68Z"/><path class="cls-11" d="M258.49,161.45l-12.66,19.38s-1.64,10.92,2.52,17.17c2.51,3.76-9.14,26.68-9.14,26.68L261,230l20.95-33.45,29.57-31.14-53-4"/><path class="cls-20" d="M309.9,140.05c1.57,3.25,2.29,6.35,2.14,7.85"/><path class="cls-20" d="M291.82,126.32s8,2,13.05,6.68"/><rect class="cls-5" x="243.23" y="192.86" width="24.46" height="7.25" transform="translate(54.12 -55.17) rotate(13.77)"/></g><path class="cls-10" d="M265,196.89s18-3,28.66-15.21,13.26-15.62,13.26-15.62,3.3,2.15,10-6.08,6.27-28.95-10.55-38.53c-12.2-6.94-25.61-8.82-35.26-6.23-10.46,2.81-11.72,7.3-11.72,7.3s-18.32-5.67-28.24,13.69S227.75,172,235,180.1s9.46,10,9.46,10l-1,6.93s-2.64,1.72-6.8,6.65c-8.53,10.11-6.46,20-6.46,20h29.2A30.83,30.83,0,0,0,265,196.89Z"/><path class="cls-12" d="M265.12,219.56c-12.22,0-44.22,3.35-51.78,6.47s-23.27,14.48-32.29,45-7.65,95.06-2.91,107.35c5.28,13.67,11.93,16.58,11.93,16.58V410.4l141.07-.88s1.68-36.75,3.46-73.58c.21-4.29,3.42-26.8,3.86-31,2.65-25,3-29.69,1.16-37.45-2.71-11.53-9.3-28.3-24.62-35.06C302.41,226.87,265.12,219.56,265.12,219.56Z"/><g class="cls-26"><path class="cls-19" d="M233.3,222.3s25.6,50.91,28.8,64.59c2.22,9.47,6.62,27.47,7.56,37.15l-24-24.62v-29L229.59,269l-21.85-45.51Z"/><path class="cls-19" d="M327.57,279.91s12.08,21.06,11.67,41.93-4.74,30.62-4.74,30.62Z"/><path class="cls-19" d="M223.31,417.78c.15-.17,22.17,7.19,43-7.38,30.68-21.49,64-67.58,64-67.58L192.43,391.13l-9,26.69Z"/><line class="cls-10" x1="226.72" y1="279.2" x2="228.59" y2="336.32"/><path class="cls-27" d="M234.87,216.07s25.6,50.91,28.8,64.58c2.22,9.48,4.09,26.71,5,36.39a102.91,102.91,0,0,1,.42,13.6l-2.83,79.76h17.16s.6-45.21,1.05-77.39c.17-12.53.32-23.08.4-28.21.29-18.33.59-92.8.59-92.8Z"/><g class="cls-28"><path class="cls-29" d="M279.52,221.68c0,9.61-.81,19.55-12.94,19.55s-31-9.94-31-19.55,9.83-17.41,22-17.41S279.52,212.06,279.52,221.68Z"/><path class="cls-29" d="M285.26,259.77s-5,63.79-7.65,101.51c-.55,7.84-12.44,12.31-12.73,17.09-1.67,27.78-2.63,34.91-2.63,34.91h29.29l-1.88-153.51Z"/></g><path class="cls-10" d="M234.87,216.07s25.6,50.91,28.8,64.58c2.22,9.48,4.09,26.71,5,36.39a102.91,102.91,0,0,1,.42,13.6l-2.83,79.76h17.16s.6-45.21,1.05-77.39c.17-12.53.32-23.08.4-28.21.29-18.33.59-92.8.59-92.8Z"/><path class="cls-4" d="M234.87,216.07s25.6,50.91,28.8,64.58c2.22,9.48,4.09,26.71,5,36.39l-24.23-25,.58-23.86-12.22-2.33-19.49-46.25Z"/><path class="cls-4" d="M285.49,212s-.3,74.47-.59,92.8c-.08,5.13-.23,15.68-.4,28.21l16.4-46.54-9.09-11.35,16.66-57.31Z"/><path class="cls-10" d="M325.6,274.56S330.21,300,333,327s1.9,83.37,1.9,83.37"/><path class="cls-12" d="M190.07,395A47.89,47.89,0,0,0,218,400.8c15.71-1.75,80-36.95,91.93-43.64s24.44-17.75,24.44-17.75l-15.13-29.67s-91.93,26.18-100.65,30a56.92,56.92,0,0,0-14,8.43"/><path class="cls-10" d="M190.07,395A47.89,47.89,0,0,0,218,400.8c15.71-1.75,80-36.95,91.93-43.64s24.44-17.75,24.44-17.75l-15.13-29.67s-91.93,26.18-100.65,30a56.92,56.92,0,0,0-14,8.43"/></g><path class="cls-10" d="M265.12,219.56c-12.22,0-44.22,3.35-51.78,6.47s-23.27,14.48-32.29,45-7.65,95.06-2.91,107.35c5.28,13.67,11.93,16.58,11.93,16.58V410.4l141.07-.88s1.68-36.75,3.46-73.58c.21-4.29,3.42-26.8,3.86-31,2.65-25,3-29.69,1.16-37.45-2.71-11.53-9.3-28.3-24.62-35.06C302.41,226.87,265.12,219.56,265.12,219.56Z"/><path class="cls-30" d="M330.32,304.93s7-8.36,10.81-8.5,13.66,3.43,14.5,4.25.67,2.91-1.54,1.95S330.32,304.93,330.32,304.93Z"/><rect class="cls-12" x="345.81" y="295.66" width="26.74" height="7.51" transform="translate(-108.43 299.99) rotate(-39.89)"/><g class="cls-31"><rect class="cls-32" x="346.48" y="296.46" width="26.74" height="7.51" transform="translate(-108.79 300.6) rotate(-39.89)"/><line class="cls-33" x1="364.63" y1="289.19" x2="366.47" y2="291.39"/><line class="cls-33" x1="362.67" y1="290.83" x2="363.92" y2="292.32"/><line class="cls-33" x1="360.72" y1="292.47" x2="362.55" y2="294.66"/><line class="cls-33" x1="358.76" y1="294.1" x2="360" y2="295.59"/><line class="cls-33" x1="356.8" y1="295.74" x2="358.63" y2="297.94"/><line class="cls-33" x1="354.84" y1="297.38" x2="356.09" y2="298.87"/><line class="cls-33" x1="352.88" y1="299.01" x2="354.72" y2="301.21"/><line class="cls-33" x1="350.92" y1="300.65" x2="352.17" y2="302.14"/><line class="cls-33" x1="348.97" y1="302.29" x2="350.8" y2="304.48"/><line class="cls-33" x1="347.01" y1="303.92" x2="348.25" y2="305.41"/><path class="cls-8" d="M381.05,296a20.44,20.44,0,0,1-7.92.92,23.33,23.33,0,0,1-6.94-2,1,1,0,0,0-1.29.47,23.44,23.44,0,0,1-4,6,20.26,20.26,0,0,1-6.66,4.37,1,1,0,0,0-.54,1.26c1.07,2.73,4.66,10.89,10.85,14.62,7.49,4.52,11.63,2.75,11.63,2.75s4.3-1.3,7.15-9.57c2.36-6.82-.11-15.39-1.05-18.17A1,1,0,0,0,381.05,296Z"/></g><rect class="cls-33" x="345.81" y="295.66" width="26.74" height="7.51" transform="translate(-108.43 299.99) rotate(-39.89)"/><rect class="cls-3" x="369.23" y="285.38" width="1.94" height="9.72" transform="translate(-99.98 304.92) rotate(-39.89)"/><polygon class="cls-11" points="386.43 276.22 370.93 289.59 370.4 288.95 385.61 276.17 386.43 276.22"/><polygon class="cls-3" points="347.96 306.85 341.11 313.16 343.88 315.44 350.31 309.65 347.96 306.85"/><path class="cls-2" d="M321,313.25s12-11.05,15.89-13.58,23.32,2.78,25.71,5,1,5.25-1.92,4.78c0,0-10-2.27-12.74-2.63-2.19-.29-7.36,1.17-8.34,2.44s-.27,4.87,1,5.85,9.71-.24,11.54-.16a2.39,2.39,0,0,1,1.27,4.1,17.61,17.61,0,0,1-9.15,3c-3-.14-6.48-.84-8.73,1.13a65,65,0,0,0-6,6.85Z"/><path class="cls-14" d="M258.49,161.45s10.21,3,17.64-.47a120.83,120.83,0,0,0,12.56-6.65,10.41,10.41,0,0,0,6.46,6.67,20.72,20.72,0,0,0,8.86,1.12l2.92,3.94s-.44,22.58-2.7,28.76-5.84,11.94-12.93,14.62c-6.7,2.54-10.18,1.44-10.18,1.44l-2.47,17.44s1.07,15.16-11.68,12.78-16.27-18.51-16.27-18.51l4.81-27s-11.15-8.27-9.68-18.54S256.47,174,256.47,174Z"/><g class="cls-34"><path class="cls-16" d="M256.43,195s7.13,7.18,12.58,10.21,2.77,1.56,2.77,1.56-5.84,8.78-14.19,9.34c-8.76.59-8.48-2-8.48-2Z"/><path class="cls-10" d="M281.12,210.88a39.55,39.55,0,0,1-12.77-4.36,47.83,47.83,0,0,1-12.84-10.91"/><path class="cls-10" d="M252.68,178.77s-1.91-.09-1.76,3.24,1.52,4,1.52,4"/><path class="cls-16" d="M257.8,165.78s2.22,3.88,13.17.66a26.48,26.48,0,0,0,15.47-12.67l-27.76,2.89-.88,9.12"/><path class="cls-12" d="M303.76,159.59s.27,18.62,0,25.91-2.87,18.81-2.87,18.81,9.92-12.08,9.87-26.09-1.06-17-1.06-17Z"/><path class="cls-10" d="M290.29,177.86s-.59,6.49,1.3,7.9,1.7,4.75-.74,5.24"/><ellipse class="cls-35" cx="272.14" cy="185.18" rx="3.73" ry="2.63"/><ellipse class="cls-35" cx="300.9" cy="185.18" rx="3.73" ry="2.63"/><ellipse class="cls-11" cx="298.77" cy="174.05" rx="2.53" ry="3.28"/><ellipse class="cls-11" cx="278.85" cy="173.01" rx="2.53" ry="3.28"/><line class="cls-10" x1="256.47" y1="173.98" x2="268.4" y2="185.18"/><path class="cls-12" d="M268.4,185.18l24.26,2.29,14.27,4.13s-.38,11.82-4.32,15.39-15.4,4.58-21.49,3.89c-10.23-1.17-19.28-8.91-19.28-8.91Z"/><g class="cls-36"><path class="cls-23" d="M272.81,192.53s12,.62,15.79,1.59,9.48,2.23,9.48,2.23"/><path class="cls-23" d="M292.38,203.47A80.34,80.34,0,0,1,281,201.66c-3.75-1.13-9.38-2.63-9.38-2.63"/></g><path class="cls-10" d="M268.4,185.18l24.26,2.29,14.27,4.13s-.38,11.82-4.32,15.39-15.4,4.58-21.49,3.89c-10.23-1.17-19.28-8.91-19.28-8.91Z"/></g><path class="cls-10" d="M258.49,161.45s10.21,3,17.64-.47a120.83,120.83,0,0,0,12.56-6.65,10.41,10.41,0,0,0,6.46,6.67,20.72,20.72,0,0,0,8.86,1.12l2.92,3.94s-.44,22.58-2.7,28.76-5.84,11.94-12.93,14.62c-6.7,2.54-10.18,1.44-10.18,1.44l-2.47,17.44s1.07,15.16-11.68,12.78-16.27-18.51-16.27-18.51l4.81-27s-11.15-8.27-9.68-18.54S256.47,174,256.47,174Z"/><line class="cls-10" x1="171.97" y1="410.4" x2="345.71" y2="410.4"/><line class="cls-10" x1="370.4" y1="410.4" x2="544.14" y2="410.4"/><path class="cls-12" d="M511.66,166.59a3.84,3.84,0,0,1,.24.39c.28.57.54,1.15.82,1.72A4.78,4.78,0,0,0,515,171c.58.29,1.18.55,1.76.83a2.11,2.11,0,0,1,.27.25c-.09.09-.17.22-.28.27l-1.76.85a4.82,4.82,0,0,0-2.29,2.32c-.28.58-.55,1.17-.83,1.76a.36.36,0,0,1-.24.2c-.08,0-.19-.11-.23-.2-.29-.58-.56-1.17-.84-1.76a4.86,4.86,0,0,0-2.32-2.35c-.57-.27-1.15-.53-1.72-.81a1.48,1.48,0,0,1-.29-.27,1.88,1.88,0,0,1,.3-.27l1.76-.83a4.81,4.81,0,0,0,2.24-2.26c.28-.58.55-1.17.84-1.76C511.44,166.88,511.53,166.78,511.66,166.59Z"/><path class="cls-12" d="M469.1,227.28l.16.26c.18.37.35.74.52,1.11a3.21,3.21,0,0,0,1.48,1.5l1.14.53c.07,0,.12.11.18.16a1.57,1.57,0,0,1-.19.18l-1.13.54a3.12,3.12,0,0,0-1.48,1.5c-.18.38-.35.76-.54,1.14a.22.22,0,0,1-.15.12s-.12-.07-.15-.12c-.19-.38-.36-.76-.54-1.14a3.06,3.06,0,0,0-1.5-1.51l-1.11-.53a1.07,1.07,0,0,1-.19-.18c.07-.05.12-.13.2-.17l1.14-.54a3.07,3.07,0,0,0,1.44-1.45l.54-1.14C469,227.47,469,227.4,469.1,227.28Z"/><path class="cls-12" d="M201.83,176.86c.13.21.21.32.27.44l.9,1.91a5.44,5.44,0,0,0,2.55,2.57c.64.32,1.3.61,1.95.92a1.32,1.32,0,0,1,.3.28,1.46,1.46,0,0,1-.31.3c-.65.32-1.31.62-2,.94a5.33,5.33,0,0,0-2.54,2.57c-.32.65-.61,1.31-.93,2a.38.38,0,0,1-.26.22c-.09,0-.21-.12-.26-.22-.32-.65-.62-1.3-.93-1.95a5.37,5.37,0,0,0-2.58-2.61c-.63-.31-1.27-.59-1.9-.91a1.32,1.32,0,0,1-.33-.3,1.54,1.54,0,0,1,.34-.29c.65-.32,1.31-.61,1.95-.93a5.24,5.24,0,0,0,2.48-2.5c.32-.65.62-1.3.94-1.95A3.38,3.38,0,0,1,201.83,176.86Z"/><circle class="cls-37" cx="362.93" cy="114.11" r="2.49"/><circle class="cls-37" cx="343.21" cy="211.01" r="2.49"/><path class="cls-20" d="M187.55,223.59s-9.37,10.19-13.13,19.6"/><path class="cls-38" d="M534.8,267.48a32,32,0,0,1,10.89,15.4c3.38,10.27,2.25,24,2.25,24"/><line class="cls-38" x1="548.12" y1="324.68" x2="548.12" y2="343.45"/></g></svg>