<svg id="Covid_Medical_Illustration" data-name="Covid Medical Illustration" xmlns="http://www.w3.org/2000/svg" xmlns:xlink="http://www.w3.org/1999/xlink" viewBox="0 0 700 500"><defs><style>.cls-1,.cls-5{fill:#feded5;}.cls-11,.cls-2{fill:#f87b5a;}.cls-2,.cls-3,.cls-34,.cls-4,.cls-5,.cls-6,.cls-7{stroke:#303870;}.cls-16,.cls-17,.cls-2,.cls-26,.cls-27,.cls-3,.cls-34,.cls-4,.cls-5,.cls-6,.cls-7{stroke-linecap:round;stroke-linejoin:round;stroke-width:2.25px;}.cls-14,.cls-3{fill:#fff;}.cls-4,.cls-8{fill:#80d8ff;}.cls-35,.cls-6{fill:#8981ea;}.cls-16,.cls-17,.cls-26,.cls-27,.cls-7{fill:none;}.cls-9{clip-path:url(#clip-path);}.cls-10{fill:#f4b3a8;}.cls-12{clip-path:url(#clip-path-2);}.cls-13{fill:#f25444;}.cls-15{clip-path:url(#clip-path-3);}.cls-16,.cls-17{stroke:#80d8ff;}.cls-17{stroke-dasharray:6.6 6.6;}.cls-18{clip-path:url(#clip-path-4);}.cls-19{clip-path:url(#clip-path-5);}.cls-20{clip-path:url(#clip-path-6);}.cls-21{fill:#f7b5a9;}.cls-22{clip-path:url(#clip-path-7);}.cls-23{clip-path:url(#clip-path-8);}.cls-24{clip-path:url(#clip-path-9);}.cls-25{fill:#5abadb;}.cls-26{stroke:#fff;}.cls-27{stroke:#5abadb;}.cls-28{clip-path:url(#clip-path-10);}.cls-29{fill:#303870;}.cls-30{clip-path:url(#clip-path-11);}.cls-31{clip-path:url(#clip-path-12);}.cls-32{clip-path:url(#clip-path-13);}.cls-33{clip-path:url(#clip-path-14);}.cls-34,.cls-37{fill:#6851f9;}.cls-36{clip-path:url(#clip-path-15);}.cls-38{clip-path:url(#clip-path-16);}</style><clipPath id="clip-path"><path class="cls-1" d="M138.88,361.78S74.68,260.33,98.34,170.52s155.39-98.81,196.51-67.28,67,85.23,111.51,58.39,107.93-47,162.74-16.72,65.67,114.88,59.3,156.55-22.51,60.32-22.51,60.32Z"/></clipPath><clipPath id="clip-path-2"><path class="cls-2" d="M168.67,230.29a237.17,237.17,0,0,1,26.6,2.26c11.56,1.87,19.79,7.11,28.22,12.32,7.72,4.77,17.13,13.2,17.13,13.2s12.76-24,17.27-31.91,12.38-18.77,12.38-18.77l19.53,5.31s-1.51,20.6-4.88,33.74-12.07,53.62-21.83,62.63-15,12.07-20.22,11.32-14.27-3-18.77-7.51a110.89,110.89,0,0,1-7.51-8.25s1.5,7.5,1.88,23.65,0,33.41,0,33.41h-95s3.75-30.79,2.63-42.05-2.63-37.16-2.63-37.16-8.26,27.78-12.77,44.29-3.37,38.67-4.5,43.93-6,11.64-6,11.64H74.31s-9.76-33,0-69.83,26.28-59.69,34.91-68.7,27.41-12.77,35.29-13.14S168.67,230.29,168.67,230.29Z"/></clipPath><clipPath id="clip-path-3"><path class="cls-3" d="M126.77,229.73s11,31,12.39,40.26,3.1,18.87-3.1,22.81-13.79,2.06-13.79,2.06L120,364.6l105,.56-8.45-60.53s-3.1-22.81-7.6-38.86-15.49-36.32-15.49-36.32l-9.85-.85s9.29,22,9.57,24.78,3.1,11.26-6.76,11.83-24.77.28-24.77.28-3.95.56-7-3.94-14.93-34.64-14.93-34.64Z"/></clipPath><clipPath id="clip-path-4"><rect class="cls-3" x="263.33" y="206.67" width="28.91" height="12.39" rx="3.53" transform="translate(74.27 -71.84) rotate(16.98)"/></clipPath><clipPath id="clip-path-5"><rect class="cls-7" x="70.59" y="382.34" width="32.25" height="13.8" rx="4.84"/></clipPath><clipPath id="clip-path-6"><path class="cls-5" d="M270.3,204.11a41.31,41.31,0,0,0-1-11.92c-1.51-7.13-.82-12,.53-14.08s4.16,6.71,4.16,6.71.75-12.15,2.25-15.91,3-3.75,3.38,0,.94,12.39.94,12.39,1.69-10.89,2.25-15.2,3.94-5.82,3.94-2.25S285.67,183,285.67,183s2.44-14.07,4.13-15.19,2.62,2.25,1.87,7.51-1.87,11.45-1.87,11.45,2.62-12.39,4.13-13,.93,6.57,0,12-2.26,10.32-4.13,13.32-3,10-3,10Z"/></clipPath><clipPath id="clip-path-7"><path class="cls-5" d="M77.36,396.13s-1.13,10.28,1,17.18,4.93,9.43,6.76,10.7,6.2,1.12,6.2,1.12a9.31,9.31,0,0,0,3.23,0c2.12-.29,2.82.12,2.82.12a13.43,13.43,0,0,1,2.67,0,15.22,15.22,0,0,0,2.82,0s2.53.44,3.94-.69,2.82-2,3-5.77-2.68-4.51-3.66-3.66a5.36,5.36,0,0,0-1.27,2.81s-.84-1.69-2-3.8L101.71,412s5.07,3.94,5.78,1-1-4.23-3.81-8.31S98,396.13,98,396.13Z"/></clipPath><clipPath id="clip-path-8"><path class="cls-3" d="M190.41,186.93s4.08-1.55,4.36-7.18-3.52-5.77-3.52-5.77a8.37,8.37,0,0,0-4.22-6.76,10.43,10.43,0,0,0-7.32-1.12s-9.58-6.76-21-3.66S140.57,173,138.18,186.23s-5.49,22.1-2.26,28.86,11.38,7.38,15.46,7.38h27s9.6,1.21,13.68-3.58,3.81-12.95,1.55-19.71A97.48,97.48,0,0,1,190.41,186.93Z"/></clipPath><clipPath id="clip-path-9"><path class="cls-8" d="M189.14,189.68s4.08-1.55,4.36-7.18-3.52-5.77-3.52-5.77-.14-4.65-4.22-6.76a10.43,10.43,0,0,0-7.32-1.12s-9.57-6.76-21-3.66S139.3,175.74,136.91,189s-5.49,22.1-2.25,28.86,12.53,9.29,16.61,9.29h27s8.44-.71,12.53-5.49,3.8-12.95,1.55-19.71A96.61,96.61,0,0,1,189.14,189.68Z"/></clipPath><clipPath id="clip-path-10"><path class="cls-5" d="M162.39,184.82s7,5.21,13.94,5.49A26,26,0,0,0,188,188.2s1,10.42,1.41,15.49.28,12-3.1,15.06-9.71,3.94-9.71,3.94l1.83,9s2.11,8.87-6.2,8.87-15.62-7.88-15.62-7.88l-2.25-21s-6.34-1.83-6.62-8.59,6.76-3.38,6.76-3.38a12.72,12.72,0,0,0,5.77-5.49C162.53,190.17,162.39,184.82,162.39,184.82Z"/></clipPath><clipPath id="clip-path-11"><path class="cls-3" d="M499.56,181.54s-2.4,0-2.68-2.11,1.34-2.39,1.34-2.39-4.72,1.83-7.11-1.55a4.83,4.83,0,0,1,0-6.05s-7.18.7-6.33-3.66,13.93-14.08,29.42-15.35,27,5.22,30.55,11.83c5.75,10.66,1.64,25.63-3.57,35.62a41.48,41.48,0,0,1-7,9.71H505.47Z"/></clipPath><clipPath id="clip-path-12"><path class="cls-4" d="M522.55,226c-6.19,0-20.08,1.5-34.72,7.13s-26.1,23.09-34.17,35.85S437,311.06,436.58,321.2s.75,19.52,10.14,27,25.15,13.89,25.15,13.89H594.63l-1.88-22.53s5.64-.37,13.52-10.88,13.89-54.44,15-70.21a201,201,0,0,0,0-28.53l-27.41-10.13-11.64,41.67s-5.25-14.64-16.09-23.09c-7.89-6.15-22.2-9.2-29.33-10.7A90.84,90.84,0,0,0,522.55,226Z"/></clipPath><clipPath id="clip-path-13"><path class="cls-5" d="M499.56,181.54s3.24,1.69,9.57,1.41a36.42,36.42,0,0,0,12.11-3s.56,1.55,3.52.71a77,77,0,0,0,8.3-3.38v13.51s4.23-3.51,7.18,0-1.83,10-3.66,12.25a13,13,0,0,0-2.39,4.51v36.32s-3.8,11.26-12.67,11.26-9.71-11-9.71-11V220.26s-6.06-1.27-10.42-8.17-3.38-15.48-3.24-20.83A42.83,42.83,0,0,1,499.56,181.54Z"/></clipPath><clipPath id="clip-path-14"><path class="cls-5" d="M601.2,215.14s-1.69-5.82,0-10.7a23.92,23.92,0,0,1,5.44-8.44s-2.25-15.58-2.06-20.65,2.25-5.82,3.57-3.76,4.5,21.24,4.5,21.24,8.64-16,11.26-17.67,3.83,1.86,1,7.3a126.41,126.41,0,0,0-5.14,11.66,7.68,7.68,0,0,1,2.82,1,5.9,5.9,0,0,1,2,2.08c.31.54,1,.74,1.44,1.12a10.89,10.89,0,0,1,1.49,1.45c2,2.44.1,7.32-2,10.51s-7.13,11.08-7.13,11.08Z"/></clipPath><clipPath id="clip-path-15"><polygon class="cls-6" points="417.45 294.41 389.16 258.05 389.16 268.08 312.32 268.08 312.32 258.05 284.03 294.41 312.32 330.77 312.32 320.74 389.16 320.74 389.16 330.77 417.45 294.41"/></clipPath><clipPath id="clip-path-16"><rect class="cls-3" x="341.73" y="320.74" width="12.01" height="41.04"/></clipPath></defs><g id="Keep_distance" data-name="Keep distance"><path class="cls-1" d="M138.88,361.78S74.68,260.33,98.34,170.52s155.39-98.81,196.51-67.28,67,85.23,111.51,58.39,107.93-47,162.74-16.72,65.67,114.88,59.3,156.55-22.51,60.32-22.51,60.32Z"/><g class="cls-9"><path class="cls-10" d="M70.59,295.78S160.81,236.1,223.91,256,331.11,323.75,370,323.51,448.49,277.32,498,283.94,637,335.46,640.34,381,630,435.88,630,435.88H70.59Z"/></g><path class="cls-11" d="M168.67,230.29a237.17,237.17,0,0,1,26.6,2.26c11.56,1.87,19.79,7.11,28.22,12.32,7.72,4.77,17.13,13.2,17.13,13.2s12.76-24,17.27-31.91,12.38-18.77,12.38-18.77l19.53,5.31s-1.51,20.6-4.88,33.74-12.07,53.62-21.83,62.63-15,12.07-20.22,11.32-14.27-3-18.77-7.51a110.89,110.89,0,0,1-7.51-8.25s1.5,7.5,1.88,23.65,0,33.41,0,33.41h-95s3.75-30.79,2.63-42.05-2.63-37.16-2.63-37.16-8.26,27.78-12.77,44.29-3.37,38.67-4.5,43.93-6,11.64-6,11.64H74.31s-9.76-33,0-69.83,26.28-59.69,34.91-68.7,27.41-12.77,35.29-13.14S168.67,230.29,168.67,230.29Z"/><g class="cls-12"><path class="cls-13" d="M214,287.81s19,19.56,28.16,17,3,21,3,21L219.59,315.1Z"/><path class="cls-14" d="M198.29,231.63s25.62,18,31.25,23.37,8.9,8.52,8.9,8.52l4.39-9.6S207.58,233.89,198.29,231.63Z"/><path class="cls-13" d="M123.49,282.48a22.45,22.45,0,0,1,9.48,15.6c1.4,10.7-11.59,24.25-11.59,24.25Z"/><ellipse class="cls-13" cx="161.96" cy="231.16" rx="24.05" ry="13.32"/><path class="cls-14" d="M126.77,229.73s11,31,12.39,40.26,3.1,18.87-3.1,22.81-13.79,2.06-13.79,2.06L120,364.6l105,.56-8.45-60.53s-3.1-22.81-7.6-38.86-15.49-36.32-15.49-36.32l-9.85-.85s9.29,22,9.57,24.78,3.1,11.26-6.76,11.83-24.77.28-24.77.28-3.95.56-7-3.94-14.93-34.64-14.93-34.64Z"/><g class="cls-15"><path class="cls-8" d="M131,291.32s6,19.53,8.63,35.29.38,39.05.38,39.05H116.36s5.26-50.8,5.58-60.8,0-12.41,0-12.41Z"/><path class="cls-8" d="M126.77,229.73s11.56,10.83,23.37,12.79-2.4-15.82-2.4-15.82l-21,3"/></g><path class="cls-7" d="M126.77,229.73s11,31,12.39,40.26,3.1,18.87-3.1,22.81-13.79,2.06-13.79,2.06L120,364.6l105,.56-8.45-60.53s-3.1-22.81-7.6-38.86-15.49-36.32-15.49-36.32l-9.85-.85s9.29,22,9.57,24.78,3.1,11.26-6.76,11.83-24.77.28-24.77.28-3.95.56-7-3.94-14.93-34.64-14.93-34.64Z"/><path class="cls-7" d="M240.62,258.07s-3.28,7.75-6.57,17.7a99.06,99.06,0,0,0-3.52,14.9"/><ellipse class="cls-13" cx="251.31" cy="318.49" rx="17.18" ry="16.19"/><path class="cls-13" d="M100.59,251.93s-22.28,54-23.53,78.81,1,43.93,4.38,46.18,16.14-3.54,18.77,5.42-29.62,4.84-29.62,4.84-16.74-30-6-68.26S100.59,251.93,100.59,251.93Z"/><rect class="cls-8" x="163.69" y="284.08" width="31.23" height="17.95"/><path class="cls-3" d="M186.61,320.64H176a13.27,13.27,0,0,1-13-12.38l-1.27-19.73a3.15,3.15,0,0,1,3.16-3.43,87.25,87.25,0,0,0,15.77,1.3c8.27,0,12.44-1.3,12.44-1.3a3.67,3.67,0,0,1,3.59,3.43L198,308.26A11.37,11.37,0,0,1,186.61,320.64Z"/><line class="cls-16" x1="137.19" y1="233.89" x2="138.5" y2="237.13"/><path class="cls-17" d="M141,243.26l6.77,16.81s2.12,10.7,12.54,11.26,33.5-.84,33.5-.84,7.7-1.22,6.57-9.67c-.67-5.09-3.81-13-6.19-18.5"/><path class="cls-16" d="M192.82,239.31c-.88-1.95-1.48-3.17-1.48-3.17"/></g><path class="cls-7" d="M168.67,230.29a237.17,237.17,0,0,1,26.6,2.26c11.56,1.87,19.79,7.11,28.22,12.32,7.72,4.77,17.13,13.2,17.13,13.2s12.76-24,17.27-31.91,12.38-18.77,12.38-18.77l19.53,5.31s-1.51,20.6-4.88,33.74-12.07,53.62-21.83,62.63-15,12.07-20.22,11.32-14.27-3-18.77-7.51a110.89,110.89,0,0,1-7.51-8.25s1.5,7.5,1.88,23.65,0,33.41,0,33.41h-95s3.75-30.79,2.63-42.05-2.63-37.16-2.63-37.16-8.26,27.78-12.77,44.29-3.37,38.67-4.5,43.93-6,11.64-6,11.64H74.31s-9.76-33,0-69.83,26.28-59.69,34.91-68.7,27.41-12.77,35.29-13.14S168.67,230.29,168.67,230.29Z"/><rect class="cls-14" x="263.33" y="206.67" width="28.91" height="12.39" rx="3.53" transform="translate(74.27 -71.84) rotate(16.98)"/><g class="cls-18"><line class="cls-3" x1="271.07" y1="209.67" x2="269.11" y2="216.69"/><line class="cls-3" x1="277.97" y1="213.19" x2="276.26" y2="218.88"/><line class="cls-3" x1="285.7" y1="213.36" x2="283.29" y2="221.03"/></g><rect class="cls-7" x="263.33" y="206.67" width="28.91" height="12.39" rx="3.53" transform="translate(74.27 -71.84) rotate(16.98)"/><g class="cls-19"><line class="cls-7" x1="78.34" y1="382.34" x2="78.34" y2="391.56"/><line class="cls-7" x1="95.09" y1="382.34" x2="95.09" y2="391.56"/><line class="cls-7" x1="86.22" y1="382.34" x2="86.22" y2="389.87"/></g><rect class="cls-7" x="70.59" y="382.34" width="32.25" height="13.8" rx="4.84"/><path class="cls-1" d="M270.3,204.11a41.31,41.31,0,0,0-1-11.92c-1.51-7.13-.82-12,.53-14.08s4.16,6.71,4.16,6.71.75-12.15,2.25-15.91,3-3.75,3.38,0,.94,12.39.94,12.39,1.69-10.89,2.25-15.2,3.94-5.82,3.94-2.25S285.67,183,285.67,183s2.44-14.07,4.13-15.19,2.62,2.25,1.87,7.51-1.87,11.45-1.87,11.45,2.62-12.39,4.13-13,.93,6.57,0,12-2.26,10.32-4.13,13.32-3,10-3,10Z"/><g class="cls-20"><path class="cls-5" d="M274,184.82a24.38,24.38,0,0,1,3.19,4.77c.75,1.87,0,5.25,0,5.25"/><path class="cls-21" d="M270.3,204.11s12-1.76,18.56.49-1.5,10.33-1.5,10.33l-18.87-5.79,1.81-5"/></g><path class="cls-7" d="M270.3,204.11a41.31,41.31,0,0,0-1-11.92c-1.51-7.13-.82-12,.53-14.08s4.16,6.71,4.16,6.71.75-12.15,2.25-15.91,3-3.75,3.38,0,.94,12.39.94,12.39,1.69-10.89,2.25-15.2,3.94-5.82,3.94-2.25S285.67,183,285.67,183s2.44-14.07,4.13-15.19,2.62,2.25,1.87,7.51-1.87,11.45-1.87,11.45,2.62-12.39,4.13-13,.93,6.57,0,12-2.26,10.32-4.13,13.32-3,10-3,10Z"/><path class="cls-1" d="M77.36,396.13s-1.13,10.28,1,17.18,4.93,9.43,6.76,10.7,6.2,1.12,6.2,1.12a9.31,9.31,0,0,0,3.23,0c2.12-.29,2.82.12,2.82.12a13.43,13.43,0,0,1,2.67,0,15.22,15.22,0,0,0,2.82,0s2.53.44,3.94-.69,2.82-2,3-5.77-2.68-4.51-3.66-3.66a5.36,5.36,0,0,0-1.27,2.81s-.84-1.69-2-3.8L101.71,412s5.07,3.94,5.78,1-1-4.23-3.81-8.31S98,396.13,98,396.13Z"/><g class="cls-22"><circle class="cls-21" cx="80.44" cy="423.15" r="10.47"/><path class="cls-7" d="M85.6,418.37s1.69,5.59,5.58,7"/><path class="cls-7" d="M92.08,418.37s1.69,5.59,5.58,7"/><path class="cls-7" d="M98.24,418.37s1.69,5.59,5.57,7"/></g><path class="cls-7" d="M77.36,396.13s-1.13,10.28,1,17.18,4.93,9.43,6.76,10.7,6.2,1.12,6.2,1.12a9.31,9.31,0,0,0,3.23,0c2.12-.29,2.82.12,2.82.12a13.43,13.43,0,0,1,2.67,0,15.22,15.22,0,0,0,2.82,0s2.53.44,3.94-.69,2.82-2,3-5.77-2.68-4.51-3.66-3.66a5.36,5.36,0,0,0-1.27,2.81s-.84-1.69-2-3.8L101.71,412s5.07,3.94,5.78,1-1-4.23-3.81-8.31S98,396.13,98,396.13Z"/><path class="cls-14" d="M190.41,186.93s4.08-1.55,4.36-7.18-3.52-5.77-3.52-5.77a8.37,8.37,0,0,0-4.22-6.76,10.43,10.43,0,0,0-7.32-1.12s-9.58-6.76-21-3.66S140.57,173,138.18,186.23s-5.49,22.1-2.26,28.86,11.38,7.38,15.46,7.38h27s9.6,1.21,13.68-3.58,3.81-12.95,1.55-19.71A97.48,97.48,0,0,1,190.41,186.93Z"/><g class="cls-23"><path class="cls-7" d="M190.41,186.93a20.05,20.05,0,0,1-5.54,2.4"/><path class="cls-8" d="M189.14,189.68s4.08-1.55,4.36-7.18-3.52-5.77-3.52-5.77-.14-4.65-4.22-6.76a10.43,10.43,0,0,0-7.32-1.12s-9.57-6.76-21-3.66S139.3,175.74,136.91,189s-5.49,22.1-2.25,28.86,12.53,9.29,16.61,9.29h27s8.44-.71,12.53-5.49,3.8-12.95,1.55-19.71A96.61,96.61,0,0,1,189.14,189.68Z"/><g class="cls-24"><path class="cls-8" d="M189.14,189.68a19.92,19.92,0,0,1-5.53,2.4"/></g><path class="cls-25" d="M147.75,203.12s-1.41,21,1.83,25,32.83,3.07,38,.83,7-13.5,1.12-19.83-33.79-8.17-41-6"/><path class="cls-26" d="M178.72,174.48a5.1,5.1,0,0,1,4.93.7C186,177,185.9,179,185.9,179"/><path class="cls-27" d="M144.23,187.71s-4.79,19.28-4.51,25a18,18,0,0,0,3.1,9.36"/></g><path class="cls-7" d="M190.41,186.93s4.08-1.55,4.36-7.18-3.52-5.77-3.52-5.77a8.37,8.37,0,0,0-4.22-6.76,10.43,10.43,0,0,0-7.32-1.12s-9.58-6.76-21-3.66S140.57,173,138.18,186.23s-5.49,22.1-2.26,28.86,11.38,7.38,15.46,7.38h27s9.6,1.21,13.68-3.58,3.81-12.95,1.55-19.71A97.48,97.48,0,0,1,190.41,186.93Z"/><path class="cls-1" d="M162.39,184.82s7,5.21,13.94,5.49A26,26,0,0,0,188,188.2s1,10.42,1.41,15.49.28,12-3.1,15.06-9.71,3.94-9.71,3.94l1.83,9s2.11,8.87-6.2,8.87-15.62-7.88-15.62-7.88l-2.25-21s-6.34-1.83-6.62-8.59,6.76-3.38,6.76-3.38a12.72,12.72,0,0,0,5.77-5.49C162.53,190.17,162.39,184.82,162.39,184.82Z"/><g class="cls-28"><path class="cls-7" d="M178,199.62s.19,4.84,1.72,5.7,1.71,3.33,0,3.92"/><ellipse class="cls-29" cx="184.72" cy="196.47" rx="1.88" ry="2.44" transform="translate(-6.21 6.03) rotate(-1.84)"/><ellipse class="cls-29" cx="169.91" cy="196.18" rx="1.88" ry="2.44" transform="translate(-6.21 5.56) rotate(-1.84)"/><path class="cls-21" d="M152.68,223.61a24.8,24.8,0,0,0,11.12.14c6.61-1.27,8.44-2.39,8.44-2.39L152.56,210.9Z"/><path class="cls-3" d="M164.9,205.89s6.08.38,8.89-.56a15.71,15.71,0,0,1,8.26-.38c2.25.57,9.2.57,9.2.57s1.79,6.36-1.66,11.82-13,5.35-13,5.35a47.62,47.62,0,0,1-8.45-1.86,24,24,0,0,1-7.6-4.27s4.34-1.66,4.34-6.16Z"/><line class="cls-7" x1="154.51" y1="199.74" x2="164.9" y2="205.89"/><line class="cls-7" x1="154.37" y1="211.71" x2="161.03" y2="215.65"/></g><path class="cls-7" d="M162.39,184.82s7,5.21,13.94,5.49A26,26,0,0,0,188,188.2s1,10.42,1.41,15.49.28,12-3.1,15.06-9.71,3.94-9.71,3.94l1.83,9s2.11,8.87-6.2,8.87-15.62-7.88-15.62-7.88l-2.25-21s-6.34-1.83-6.62-8.59,6.76-3.38,6.76-3.38a12.72,12.72,0,0,0,5.77-5.49C162.53,190.17,162.39,184.82,162.39,184.82Z"/><path class="cls-26" d="M304.72,166.9a38.7,38.7,0,0,1,1.69,12c-.28,6-.83,10.5-.83,10.5"/><path class="cls-26" d="M310.07,152.27s3.94,10.42,4.5,16.89a68.18,68.18,0,0,1,0,11.83"/><rect class="cls-7" x="116.36" y="361.78" width="492.56" height="12.01" rx="3.03"/><path class="cls-14" d="M499.56,181.54s-2.4,0-2.68-2.11,1.34-2.39,1.34-2.39-4.72,1.83-7.11-1.55a4.83,4.83,0,0,1,0-6.05s-7.18.7-6.33-3.66,13.93-14.08,29.42-15.35,27,5.22,30.55,11.83c5.75,10.66,1.64,25.63-3.57,35.62a41.48,41.48,0,0,1-7,9.71H505.47Z"/><g class="cls-30"><path class="cls-29" d="M496.43,184.08s-2.39,0-2.68-2.11,1.34-2.4,1.34-2.4S490.38,181.4,488,178a4.83,4.83,0,0,1,0-6.05s-7.18.7-6.33-3.66,13.93-14.08,29.42-15.34,25.93,3.89,30.55,11.82c5.91,10.15.84,32.24-1.69,35.76s-7.46,9.57-7.46,9.57H502.34Z"/></g><path class="cls-7" d="M499.56,181.54s-2.4,0-2.68-2.11,1.34-2.39,1.34-2.39-4.72,1.83-7.11-1.55a4.83,4.83,0,0,1,0-6.05s-7.18.7-6.33-3.66,13.93-14.08,29.42-15.35,27,5.22,30.55,11.83c5.75,10.66,1.64,25.63-3.57,35.62a41.48,41.48,0,0,1-7,9.71H505.47Z"/><path class="cls-8" d="M522.55,226c-6.19,0-20.08,1.5-34.72,7.13s-26.1,23.09-34.17,35.85S437,311.06,436.58,321.2s.75,19.52,10.14,27,25.15,13.89,25.15,13.89H594.63l-1.88-22.53s5.64-.37,13.52-10.88,13.89-54.44,15-70.21a201,201,0,0,0,0-28.53l-27.41-10.13-11.64,41.67s-5.25-14.64-16.09-23.09c-7.89-6.15-22.2-9.2-29.33-10.7A90.84,90.84,0,0,0,522.55,226Z"/><g class="cls-31"><path class="cls-25" d="M473.92,321.21s-1.3,19.88.58-9.4,4.39-39.25,4.39-39.25-5.89,7.48-11.81,26c-1.44,4.49-2.72,11-2.72,11Z"/><path class="cls-25" d="M562.35,312.94S550,337.5,529.15,342s-56.9,5.07-56.9,5.07l-1.13,20.72H594.63l-1.88-28.2s-9,.73-17.37-8.79A168.75,168.75,0,0,1,562.35,312.94Z"/><path class="cls-14" d="M541.18,228.67s15.11,5.64,23.87,13.61c8.29,7.55,15.6,23.7,15.6,23.7L584,255.17s-9.56-18.75-16-22.13S541.18,228.67,541.18,228.67Z"/><path class="cls-7" d="M482.38,251.93s-6,30.6-7.88,59.88-2.63,50.31-2.63,50.31"/><path class="cls-7" d="M582.24,261.51s-5.25,16.76-6.38,26.58-.37,23.72-.37,23.72"/><line class="cls-7" x1="464.36" y1="309.56" x2="473.92" y2="321.21"/><path class="cls-7" d="M545.08,263.38s4.13,29.66,17.27,49.56,19.14,26.65,30.4,26.65"/><path class="cls-25" d="M495.33,229.34l6.48,29.32a39.4,39.4,0,0,1,7.9-3.49,18.55,18.55,0,0,1,9.86-.2l-7.76-31.76Z"/></g><path class="cls-7" d="M522.55,226c-6.19,0-20.08,1.5-34.72,7.13s-26.1,23.09-34.17,35.85S437,311.06,436.58,321.2s.75,19.52,10.14,27,25.15,13.89,25.15,13.89H594.63l-1.88-22.53s5.64-.37,13.52-10.88,13.89-54.44,15-70.21a201,201,0,0,0,0-28.53l-27.41-10.13-11.64,41.67s-5.25-14.64-16.09-23.09c-7.89-6.15-22.2-9.2-29.33-10.7A90.84,90.84,0,0,0,522.55,226Z"/><path class="cls-1" d="M499.56,181.54s3.24,1.69,9.57,1.41a36.42,36.42,0,0,0,12.11-3s.56,1.55,3.52.71a77,77,0,0,0,8.3-3.38v13.51s4.23-3.51,7.18,0-1.83,10-3.66,12.25a13,13,0,0,0-2.39,4.51v36.32s-3.8,11.26-12.67,11.26-9.71-11-9.71-11V220.26s-6.06-1.27-10.42-8.17-3.38-15.48-3.24-20.83A42.83,42.83,0,0,1,499.56,181.54Z"/><g class="cls-32"><path class="cls-21" d="M511.81,220.26a15.29,15.29,0,0,0,8.58-1.58,36.42,36.42,0,0,0,8.17-6.19s-.71,9.09-8.17,14.64c-5.73,4.26-13.23,4.64-13.23,4.64l4.65-11.51"/><path class="cls-7" d="M509.45,196.08s-.34,4.83-1.9,5.64-1.82,3.28-.08,3.93"/><ellipse class="cls-29" cx="502.45" cy="192.72" rx="2.44" ry="1.88" transform="translate(277.88 681.76) rotate(-86.32)"/><ellipse class="cls-29" cx="517.69" cy="192.9" rx="2.44" ry="1.88" transform="translate(291.95 697.14) rotate(-86.32)"/><path class="cls-3" d="M524.69,201.07s-6.13.59-9-.4a14.19,14.19,0,0,0-8.36-.2c-2.25.69-9.27.88-9.27.88s-1.62,7.23,2,13.31,13.27,5.7,13.27,5.7a17.55,17.55,0,0,0,8.44-1.93c3.26-1.87,7.09-6.44,7.09-6.44s-3.93-.74-4.07-5.83Z"/><line class="cls-7" x1="524.69" y1="201.07" x2="533.06" y2="190.83"/><line class="cls-7" x1="528.89" y1="211.99" x2="534.61" y2="205.59"/><path class="cls-7" d="M534.61,194.89a1.66,1.66,0,0,1,2.25.42c.85,1.27-1.12,3.38-1.12,3.38"/></g><path class="cls-7" d="M499.56,181.54s3.24,1.69,9.57,1.41a36.42,36.42,0,0,0,12.11-3s.56,1.55,3.52.71a77,77,0,0,0,8.3-3.38v13.51s4.23-3.51,7.18,0-1.83,10-3.66,12.25a13,13,0,0,0-2.39,4.51v36.32s-3.8,11.26-12.67,11.26-9.71-11-9.71-11V220.26s-6.06-1.27-10.42-8.17-3.38-15.48-3.24-20.83A42.83,42.83,0,0,1,499.56,181.54Z"/><path class="cls-1" d="M601.2,215.14s-1.69-5.82,0-10.7a23.92,23.92,0,0,1,5.44-8.44s-2.25-15.58-2.06-20.65,2.25-5.82,3.57-3.76,4.5,21.24,4.5,21.24,8.64-16,11.26-17.67,3.83,1.86,1,7.3a126.41,126.41,0,0,0-5.14,11.66,7.68,7.68,0,0,1,2.82,1,5.9,5.9,0,0,1,2,2.08c.31.54,1,.74,1.44,1.12a10.89,10.89,0,0,1,1.49,1.45c2,2.44.1,7.32-2,10.51s-7.13,11.08-7.13,11.08Z"/><g class="cls-33"><path class="cls-21" d="M614.43,208.26a9.91,9.91,0,0,0,5.73,3c3.94.75,8.54-2.44,8.92-2.82s.09-.43-1.22-5.13-9.2-6.1-9.2-6.1Z"/><path class="cls-5" d="M606.64,196s5.78-4.51,7.79-3.29c2.41,1.46,2,3.94,0,5.91s-2.25,3.09-2.25,4.22-.14,4.79-1,5.63"/><path class="cls-5" d="M619.78,194.12a26.13,26.13,0,0,0-5.26,7.72c-1.78,4.34.18,6.11,2,5.79s9-10.6,9-10.6-5.26,8.18-4.93,10.44,2.12,1.77,3.59.48a51.55,51.55,0,0,0,4.24-4.83"/></g><path class="cls-7" d="M601.2,215.14s-1.69-5.82,0-10.7a23.92,23.92,0,0,1,5.44-8.44s-2.25-15.58-2.06-20.65,2.25-5.82,3.57-3.76,4.5,21.24,4.5,21.24,8.64-16,11.26-17.67,3.83,1.86,1,7.3a126.41,126.41,0,0,0-5.14,11.66,7.68,7.68,0,0,1,2.82,1,5.9,5.9,0,0,1,2,2.08c.31.54,1,.74,1.44,1.12a10.89,10.89,0,0,1,1.49,1.45c2,2.44.1,7.32-2,10.51s-7.13,11.08-7.13,11.08Z"/><polygon class="cls-3" points="596.04 220.64 598.01 213.83 621.79 223.21 619.57 229.34 596.04 220.64"/><path class="cls-34" d="M511.81,244.19s.84,11,9.71,11,12.19-10,12.19-10l-14.14,5.12Z"/><path class="cls-3" d="M499.84,225.09l12-1.88s2.73,19.15,3.73,21.4a30.21,30.21,0,0,0,4,5.63s-4-2.14-6.9-2.19-7.57,3.88-7.57,3.88Z"/><path class="cls-3" d="M519.57,250.24s6.36-1.87,8-5.44,6.57-21.59,6.57-21.59l10.89,4.7-11.27,25.71s-2.25-3.38-5.44-3.75A46.78,46.78,0,0,0,519.57,250.24Z"/><line class="cls-26" x1="591.25" y1="177.32" x2="596.04" y2="193.44"/><polygon class="cls-35" points="417.45 294.41 389.16 258.05 389.16 268.08 312.32 268.08 312.32 258.05 284.03 294.41 312.32 330.77 312.32 320.74 389.16 320.74 389.16 330.77 417.45 294.41"/><g class="cls-36"><path class="cls-37" d="M284,304.84s21.91,10.51,35.8.75,46.17-17.78,59.69-6.76,33.06,15.39,37.93,9,0,33.42,0,33.42H284Z"/></g><polygon class="cls-7" points="417.45 294.41 389.16 258.05 389.16 268.08 312.32 268.08 312.32 258.05 284.03 294.41 312.32 330.77 312.32 320.74 389.16 320.74 389.16 330.77 417.45 294.41"/><rect class="cls-5" x="347.74" y="320.74" width="12.01" height="41.04"/><rect class="cls-14" x="341.73" y="320.74" width="12.01" height="41.04"/><g class="cls-38"><path class="cls-10" d="M336.35,324.49s9.38,10.13,19.52,9.76,6.77-17.65,6.77-17.65H335.22Z"/></g><rect class="cls-7" x="341.73" y="320.74" width="12.01" height="41.04"/><path class="cls-14" d="M432.55,274.12a3.74,3.74,0,0,1,.24.4c.28.57.54,1.15.81,1.72a4.89,4.89,0,0,0,2.3,2.32c.58.28,1.17.54,1.76.83a1.5,1.5,0,0,1,.27.24,1.28,1.28,0,0,1-.29.28c-.58.29-1.17.55-1.75.84a4.82,4.82,0,0,0-2.29,2.32c-.28.59-.55,1.18-.83,1.76,0,.09-.16.2-.24.2s-.19-.11-.23-.2c-.29-.58-.56-1.17-.84-1.76a4.84,4.84,0,0,0-2.32-2.34l-1.72-.82a1.48,1.48,0,0,1-.29-.27,1.88,1.88,0,0,1,.3-.27c.59-.28,1.18-.54,1.76-.83a4.73,4.73,0,0,0,2.24-2.26c.28-.58.55-1.17.84-1.75A3,3,0,0,1,432.55,274.12Z"/><path class="cls-14" d="M361.58,216.32l.16.25c.17.37.34.74.52,1.11a3.12,3.12,0,0,0,1.48,1.5l1.14.53c.06,0,.11.11.17.16a1,1,0,0,1-.18.18l-1.14.54a3.15,3.15,0,0,0-1.47,1.5l-.54,1.14c0,.06-.1.13-.15.13a.21.21,0,0,1-.15-.13c-.19-.38-.36-.76-.54-1.14a3.23,3.23,0,0,0-1.5-1.51l-1.11-.53a.77.77,0,0,1-.19-.17.65.65,0,0,1,.2-.17c.37-.19.76-.36,1.13-.54a3.11,3.11,0,0,0,1.45-1.46c.18-.38.35-.76.54-1.13A1.23,1.23,0,0,1,361.58,216.32Z"/><path class="cls-14" d="M225.87,154.79a3.32,3.32,0,0,1,.27.43c.31.64.6,1.28.91,1.91a5.35,5.35,0,0,0,2.54,2.58c.65.32,1.31.61,1.95.92a1.58,1.58,0,0,1,.31.27c-.11.11-.19.25-.32.31-.64.32-1.3.62-1.95.93a5.39,5.39,0,0,0-2.54,2.58c-.31.65-.61,1.31-.92,2-.05.09-.17.22-.26.22s-.22-.12-.27-.22c-.32-.65-.61-1.3-.92-2a5.45,5.45,0,0,0-2.58-2.61l-1.91-.91a1.55,1.55,0,0,1-.33-.3,1.81,1.81,0,0,1,.34-.29c.65-.32,1.31-.61,2-.93a5.37,5.37,0,0,0,2.48-2.5c.31-.65.61-1.31.93-1.95A3.73,3.73,0,0,1,225.87,154.79Z"/><circle class="cls-11" cx="249.27" cy="213.64" r="2.49"/><circle class="cls-11" cx="437.93" cy="195.93" r="2.49"/></g></svg>