<svg id="Covid_Medical_Illustration" data-name="Covid Medical Illustration" xmlns="http://www.w3.org/2000/svg" xmlns:xlink="http://www.w3.org/1999/xlink" viewBox="0 0 700 500"><defs><style>.cls-1{fill:#e1e1ff;}.cls-2,.cls-9{fill:#f87b5a;}.cls-12,.cls-13,.cls-14,.cls-2,.cls-3,.cls-4,.cls-5,.cls-6{stroke:#303870;}.cls-12,.cls-13,.cls-14,.cls-19,.cls-2,.cls-21,.cls-28,.cls-3,.cls-32,.cls-4,.cls-5,.cls-6{stroke-linecap:round;stroke-linejoin:round;stroke-width:2.25px;}.cls-15,.cls-3{fill:#8981ea;}.cls-20,.cls-4{fill:#fff;}.cls-24,.cls-5{fill:#feded5;}.cls-22,.cls-6{fill:#80d8ff;}.cls-7{clip-path:url(#clip-path);}.cls-8{fill:#9c9cff;}.cls-10{clip-path:url(#clip-path-2);}.cls-11{fill:#f25444;}.cls-12,.cls-19,.cls-21,.cls-28,.cls-31,.cls-32{fill:none;}.cls-13{fill:#80d9ff;}.cls-14{fill:#ec8d1e;}.cls-16{clip-path:url(#clip-path-3);}.cls-17{fill:#6851f9;}.cls-18{fill:#303870;}.cls-19{stroke:#fff;}.cls-21{stroke:#6851f9;}.cls-23{clip-path:url(#clip-path-4);}.cls-25{clip-path:url(#clip-path-5);}.cls-26{fill:#f4b3a8;}.cls-27{clip-path:url(#clip-path-6);}.cls-28{stroke:#80d8ff;}.cls-29{fill:#5abadb;}.cls-30{clip-path:url(#clip-path-7);}.cls-31,.cls-32{stroke:#5abadb;}.cls-31{stroke-miterlimit:10;stroke-width:2px;stroke-dasharray:7;}</style><clipPath id="clip-path"><path class="cls-1" d="M172.79,380.56s-53.41-99-33.73-186.61,129.3-96.42,163.51-65.65,55.77,83.16,92.78,57,89.81-45.82,135.41-16.3S585.4,281.05,580.1,321.71s-18.73,58.85-18.73,58.85Z"/></clipPath><clipPath id="clip-path-2"><path class="cls-2" d="M459.25,146.49h0a74.14,74.14,0,0,1,74.14,74.14v99.79a0,0,0,0,1,0,0H385.11a0,0,0,0,1,0,0V220.63A74.14,74.14,0,0,1,459.25,146.49Z"/></clipPath><clipPath id="clip-path-3"><path class="cls-3" d="M225,234.28H204.17a20.17,20.17,0,0,0-19.76,16.07c-4.21,20.33-10.7,55.56-10.7,79.53,0,35.48,9.14,41.93,16.52,41.93h22.48Z"/></clipPath><clipPath id="clip-path-4"><path class="cls-4" d="M322.92,380.56s-8.75-127.16-13.36-139.14-12.9-21-14.28-22.58,0-6.68,0-6.68,12.44-2.08,17.05-10.6,10.36-32.25,9.44-41-3.68-24.42-22.81-31.1-33.17,1.85-39.85,17.74-9,30.87-8.29,35.48A80.46,80.46,0,0,0,253.35,193s-13.36,1.61-17.51,9.67-10.6,18.89-12,42.39-12,135.46-12,135.46Z"/></clipPath><clipPath id="clip-path-5"><path class="cls-5" d="M277.85,159.86a191.44,191.44,0,0,0-1.69,25.34c.23,11.52,3,17.51,8.06,21.89s6.22,3.92,11.06,5.07,14.74-.92,21.42-9.22,5.72-38.37,5.72-38.37l-44.57-7.22v2.51"/></clipPath><clipPath id="clip-path-6"><path class="cls-4" d="M273.16,185.29s11.88,2.17,18.14.72,9.43-3.13,12.51-2.65,6.07,3.86,9.51,5.3,9.15,1.93,9.15,1.93-2.08,16.62-11.42,20.71-24.65,5.78-30.62.72S273.16,185.29,273.16,185.29Z"/></clipPath><clipPath id="clip-path-7"><path class="cls-6" d="M286.75,250.63c6.46,19.35,18,47.69,18,47.69s38.48-25.8,43.08-29.26A32.4,32.4,0,0,1,363,262.9c4.84-.52,6.91,2.24,6.91,2.24l9.91,10.6a11,11,0,0,1-1.62,10.14c-3.68,5.3-43.77,52.29-51.37,57.82s-13.36,6-19.12,6S284,347.16,271.78,328s-32.48-68.65-32.71-78.1"/></clipPath></defs><g id="Sterilization"><path class="cls-1" d="M172.79,380.56s-53.41-99-33.73-186.61,129.3-96.42,163.51-65.65,55.77,83.16,92.78,57,89.81-45.82,135.41-16.3S585.4,281.05,580.1,321.71s-18.73,58.85-18.73,58.85Z"/><g class="cls-7"><path class="cls-8" d="M116,316.16S191,257.93,243.54,277.34s89.2,66.12,121.59,65.88,65.28-45.07,106.43-38.61S587.22,354.89,590,399.33s-8.57,53.54-8.57,53.54H116Z"/></g><path class="cls-4" d="M378.14,327.42V220a81.11,81.11,0,0,1,162.22,0V327.42Z"/><path class="cls-9" d="M459.25,146.49h0a74.14,74.14,0,0,1,74.14,74.14v99.79a0,0,0,0,1,0,0H385.11a0,0,0,0,1,0,0V220.63A74.14,74.14,0,0,1,459.25,146.49Z"/><g class="cls-10"><path class="cls-11" d="M483.46,140.43s-6.49,27.14-47.07,36C415.8,181,401.86,209,403,227.78S384.54,263.3,374.3,260.7,366.21,163.13,403,145.33,483.46,140.43,483.46,140.43Z"/><rect class="cls-4" x="380.24" y="198.85" width="156.33" height="7.45"/><rect class="cls-4" x="430.45" y="165.71" width="57.53" height="8.23" transform="translate(629.04 -289.39) rotate(90)"/></g><path class="cls-12" d="M459.25,146.49h0a74.14,74.14,0,0,1,74.14,74.14v99.79a0,0,0,0,1,0,0H385.11a0,0,0,0,1,0,0V220.63A74.14,74.14,0,0,1,459.25,146.49Z"/><path class="cls-13" d="M363.62,327.42H553.13a3.92,3.92,0,0,1,3.92,3.92v4.52a0,0,0,0,1,0,0H359.7a0,0,0,0,1,0,0v-4.52A3.92,3.92,0,0,1,363.62,327.42Z"/><line class="cls-12" x1="342.56" y1="217.13" x2="372.24" y2="217.13"/><line class="cls-12" x1="342.56" y1="226.34" x2="372.24" y2="226.34"/><line class="cls-12" x1="357.4" y1="217.13" x2="357.4" y2="226.34"/><line class="cls-12" x1="349.88" y1="207.46" x2="349.88" y2="216.68"/><line class="cls-12" x1="365.18" y1="207.46" x2="365.18" y2="216.68"/><line class="cls-12" x1="540.36" y1="255.02" x2="570.03" y2="255.02"/><line class="cls-12" x1="540.36" y1="264.23" x2="570.03" y2="264.23"/><line class="cls-12" x1="555.19" y1="255.02" x2="555.19" y2="264.23"/><rect class="cls-12" x="548.62" y="264.23" width="16.61" height="9.21"/><rect class="cls-4" x="256.66" y="148.68" width="67.04" height="10.6" transform="translate(28.37 -44.44) rotate(9.21)"/><path class="cls-12" d="M277.85,157.35l1,11.18a8,8,0,0,0,6.65,7.1L324.74,182l-2.32-17.41Z"/><polygon class="cls-14" points="397.45 273.57 391.95 275.51 379.46 240.18 387.42 237.37 397.45 273.57"/><polygon class="cls-4" points="414.16 238.34 390.05 246.86 388.53 241.37 414.43 232.21 414.16 238.34"/><path class="cls-12" d="M394.45,274.63s7.5,41.43,3,61.47-17.37,30.52-29.86,32.48c-9.51,1.5-30.39.5-47.09-21.17"/><path class="cls-15" d="M225,234.28H204.17a20.17,20.17,0,0,0-19.76,16.07c-4.21,20.33-10.7,55.56-10.7,79.53,0,35.48,9.14,41.93,16.52,41.93h22.48Z"/><g class="cls-16"><path class="cls-17" d="M233.59,234.28H212.8A20.17,20.17,0,0,0,193,250.35c-4.21,20.33-10.7,55.56-10.7,79.53,0,35.48,9.15,41.93,16.52,41.93h22.48Z"/><path class="cls-18" d="M219.28,298s-8.07,33.89-16.1,45-14.36,16.47-14.36,16.47l-14.5-.14s-5.63,11.4,6.48,14.64,31,4.93,35.47-1.27S219.28,298,219.28,298Z"/><line class="cls-19" x1="176.88" y1="358.36" x2="213.49" y2="358.36"/><rect class="cls-20" x="196.6" y="283.09" width="5.48" height="16.73"/><rect class="cls-20" x="196.6" y="283.09" width="5.48" height="16.73" transform="translate(490.79 92.12) rotate(90)"/></g><path class="cls-12" d="M225,234.28H204.17a20.17,20.17,0,0,0-19.76,16.07c-4.21,20.33-10.7,55.56-10.7,79.53,0,35.48,9.14,41.93,16.52,41.93h22.48Z"/><path class="cls-12" d="M208,234.28l4.59-17.11a10.5,10.5,0,0,1,10.14-7.78h9.73"/><rect class="cls-14" x="199.34" y="224.04" width="25.62" height="10.23"/><line class="cls-19" x1="423.78" y1="229.16" x2="437.58" y2="221.84"/><line class="cls-19" x1="430.76" y1="233.46" x2="440.18" y2="232.69"/><line class="cls-19" x1="448.57" y1="232.6" x2="463.62" y2="231.36"/><line class="cls-19" x1="444.23" y1="218.67" x2="453.55" y2="213.72"/><line class="cls-19" x1="423.78" y1="239.02" x2="436.1" y2="243.38"/><line class="cls-19" x1="445.95" y1="246.93" x2="466.65" y2="256.15"/><path class="cls-19" d="M181.08,232.68s-6.76,4-9,13.69a98.53,98.53,0,0,0-2.54,16.15"/><line class="cls-21" x1="244.99" y1="150.74" x2="240.21" y2="169.67"/><path class="cls-20" d="M516.17,250.39c.11.18.19.28.24.39l.81,1.72a4.87,4.87,0,0,0,2.29,2.32c.59.29,1.18.55,1.77.83a1.25,1.25,0,0,1,.27.25,1.82,1.82,0,0,1-.29.27c-.58.29-1.17.56-1.75.84a4.82,4.82,0,0,0-2.29,2.32l-.83,1.77c0,.08-.16.19-.24.19s-.19-.1-.24-.19c-.28-.58-.55-1.18-.83-1.76a4.9,4.9,0,0,0-2.32-2.35c-.57-.28-1.15-.53-1.72-.82a1.08,1.08,0,0,1-.3-.27,1.86,1.86,0,0,1,.31-.26c.58-.29,1.18-.55,1.76-.83a4.84,4.84,0,0,0,2.23-2.26c.29-.58.56-1.18.84-1.76A2.7,2.7,0,0,1,516.17,250.39Z"/><path class="cls-20" d="M152.32,232.92l.16.25c.17.37.34.74.52,1.11a3.12,3.12,0,0,0,1.48,1.5l1.14.53a.87.87,0,0,1,.17.16,1,1,0,0,1-.18.18l-1.13.54a3.12,3.12,0,0,0-1.48,1.5c-.18.38-.35.76-.54,1.14,0,.06-.1.13-.15.13s-.12-.07-.15-.13c-.19-.38-.36-.76-.54-1.14a3.19,3.19,0,0,0-1.5-1.51l-1.11-.53a1,1,0,0,1-.19-.17c.07-.06.12-.14.2-.17.37-.19.76-.36,1.13-.54a3.11,3.11,0,0,0,1.45-1.46c.18-.38.35-.76.54-1.13C152.18,233.1,152.24,233,152.32,232.92Z"/><path class="cls-20" d="M332.77,244.33c.13.21.21.32.27.44.3.63.59,1.27.9,1.91a5.35,5.35,0,0,0,2.54,2.58c.65.31,1.31.6,2,.92a1.5,1.5,0,0,1,.3.27c-.11.1-.19.24-.32.3-.64.33-1.3.62-1.95.94a5.39,5.39,0,0,0-2.54,2.58l-.92,2c-.05.1-.17.22-.26.22s-.22-.12-.27-.22c-.31-.64-.61-1.3-.92-2a5.45,5.45,0,0,0-2.58-2.61c-.63-.3-1.28-.59-1.91-.9a1.52,1.52,0,0,1-.32-.3,1.92,1.92,0,0,1,.34-.3c.64-.31,1.3-.6,2-.92a5.3,5.3,0,0,0,2.48-2.51c.32-.65.62-1.3.93-1.95A5.28,5.28,0,0,1,332.77,244.33Z"/><circle class="cls-22" cx="189.04" cy="161.52" r="2.49"/><circle class="cls-22" cx="487.36" cy="181.98" r="2.49"/><line class="cls-12" x1="164.75" y1="380.56" x2="391.12" y2="380.56"/><line class="cls-12" x1="429.94" y1="380.56" x2="575.26" y2="380.56"/><path class="cls-20" d="M322.92,380.56s-8.75-127.16-13.36-139.14-12.9-21-14.28-22.58,0-6.68,0-6.68,12.44-2.08,17.05-10.6,10.36-32.25,9.44-41-3.68-24.42-22.81-31.1-33.17,1.85-39.85,17.74-9,30.87-8.29,35.48A80.46,80.46,0,0,0,253.35,193s-13.36,1.61-17.51,9.67-10.6,18.89-12,42.39-12,135.46-12,135.46Z"/><g class="cls-23"><path class="cls-22" d="M319,383.14s-7.74-132.6-12.78-144.41c-6-14.16-9.57-18.28-11-19.89s2.65-3.62,2.65-3.62,5.87-2.56,10.48-11.08,10.37-32.26,9.45-41-3.69-24.42-22.81-31.1-33.18,1.84-39.86,17.74-9,30.87-8.29,35.48a55.25,55.25,0,0,1,.63,8.2s-11.46,3.78-15.6,11.84-10.6,18.89-12,42.39-12,135.46-12,135.46Z"/><path class="cls-24" d="M277.85,159.86a191.44,191.44,0,0,0-1.69,25.34c.23,11.52,3,17.51,8.06,21.89s6.22,3.92,11.06,5.07,14.74-.92,21.42-9.22,5.72-38.37,5.72-38.37l-44.57-7.22v2.51"/><g class="cls-25"><path class="cls-12" d="M302.24,176.27s-.11,4.08,1.31,5.94,1.41,3-.43,4.25l-1.83,1.24"/><ellipse class="cls-26" cx="286.1" cy="178.42" rx="2.38" ry="4.27" transform="translate(41.6 410.61) rotate(-75.47)"/><ellipse class="cls-18" cx="292.55" cy="169.82" rx="3.24" ry="2.6" transform="translate(102.61 449.73) rotate(-85.97)"/><ellipse class="cls-18" cx="312.34" cy="172.91" rx="3.24" ry="2.6" transform="translate(117.93 472.33) rotate(-85.97)"/><path class="cls-20" d="M273.16,185.29s11.88,2.17,18.14.72,9.43-3.13,12.51-2.65,6.07,3.86,9.51,5.3,9.15,1.93,9.15,1.93-2.08,16.62-11.42,20.71-24.65,5.78-30.62.72S273.16,185.29,273.16,185.29Z"/><g class="cls-27"><path class="cls-22" d="M280.4,184.66s-1.76,10.15,2.53,17.26,11.69,10.63,13.17,11-20.07-1.69-22.32-11.62S270.4,184,270.4,184Z"/></g><path class="cls-12" d="M273.16,185.29s11.88,2.17,18.14.72,9.43-3.13,12.51-2.65,6.07,3.86,9.51,5.3,9.15,1.93,9.15,1.93-2.08,16.62-11.42,20.71-24.65,5.78-30.62.72S273.16,185.29,273.16,185.29Z"/><path class="cls-28" d="M286.64,192.35s7.95.23,10.71.05a17.26,17.26,0,0,1,6.11.37c1.52.45,5.64,1.25,5.64,1.25"/><path class="cls-28" d="M289.05,199.89a75.08,75.08,0,0,0,10.17,1.5c3.8.11,7.88,0,7.88,0"/></g><path class="cls-12" d="M277.85,159.86a191.44,191.44,0,0,0-1.69,25.34c.23,11.52,3,17.51,8.06,21.89s6.22,3.92,11.06,5.07,14.74-.92,21.42-9.22,5.72-38.37,5.72-38.37l-44.57-7.22v2.51"/><path class="cls-29" d="M239.07,249.94s-2.62,29.29-9.38,56.69S208,364.82,208,364.82l-3.05,24.4h75.46l27.34-39.53Z"/><path class="cls-12" d="M257.22,198.8s5.1,6.27,10.17,9.7,6.88,4.47,6.88,4.47"/><path class="cls-12" d="M283.74,216.68a38.32,38.32,0,0,0,9,2.35c4,.36,5.4.38,5.4.38"/></g><path class="cls-12" d="M322.92,380.56s-8.75-127.16-13.36-139.14-12.9-21-14.28-22.58,0-6.68,0-6.68,12.44-2.08,17.05-10.6,10.36-32.25,9.44-41-3.68-24.42-22.81-31.1-33.17,1.85-39.85,17.74-9,30.87-8.29,35.48A80.46,80.46,0,0,0,253.35,193s-13.36,1.61-17.51,9.67-10.6,18.89-12,42.39-12,135.46-12,135.46Z"/><path class="cls-22" d="M286.75,250.63c6.46,19.35,18,47.69,18,47.69s38.48-25.8,43.08-29.26A32.4,32.4,0,0,1,363,262.9c4.84-.52,6.91,2.24,6.91,2.24l9.91,10.6a11,11,0,0,1-1.62,10.14c-3.68,5.3-43.77,52.29-51.37,57.82s-13.36,6-19.12,6S284,347.16,271.78,328s-32.48-68.65-32.71-78.1"/><g class="cls-30"><path class="cls-29" d="M293.89,266.09v33.73a21.87,21.87,0,0,0,.54,5.49l13.16-9.38Z"/><path class="cls-31" d="M246.21,249.94s28.91,70.21,37.17,78.47,19.14,15,30.78,12.76"/><path class="cls-32" d="M370.43,266.32s-7.39-.7-10.73,2.11"/><path class="cls-32" d="M373.1,270s0,3.38-.7,4.65a6.6,6.6,0,0,1-1.41,1.83"/><path class="cls-29" d="M381.74,281.39S339,327.05,326.36,334.74,306.65,346,285.54,345.16c-20.05-.8,24.16,16.51,41.21,4.53S376.85,297.44,381.74,281.39Z"/><line class="cls-6" x1="304.72" y1="298.32" x2="292.76" y2="306.45"/></g><path class="cls-12" d="M286.75,250.63c6.46,19.35,18,47.69,18,47.69s38.48-25.8,43.08-29.26A32.4,32.4,0,0,1,363,262.9c4.84-.52,6.91,2.24,6.91,2.24l9.91,10.6a11,11,0,0,1-1.62,10.14c-3.68,5.3-43.77,52.29-51.37,57.82s-13.36,6-19.12,6S284,347.16,271.78,328s-32.48-68.65-32.71-78.1"/><path class="cls-5" d="M367.59,263.5s4.33-6.71,7.4-9.64a33.51,33.51,0,0,1,7.52-5l.84,2.36s6.54-3.32,7.15-3.48a2.53,2.53,0,0,1,2.31,3.07,9.16,9.16,0,0,1-.77,3.08,6.83,6.83,0,0,1,2.3,2.45,3.31,3.31,0,0,1,0,2.92s.77.34,1.23,2.17a6.23,6.23,0,0,1,0,3.21,2.87,2.87,0,0,1-.77,3.53c-1.84,1.38-15,7.6-15,7.6Z"/></g></svg>