<svg id="Covid_Medical_Illustration" data-name="Covid Medical Illustration" xmlns="http://www.w3.org/2000/svg" xmlns:xlink="http://www.w3.org/1999/xlink" viewBox="0 0 700 500"><defs><style>.cls-1,.cls-10{fill:#ec8d1e;}.cls-1,.cls-13,.cls-2,.cls-25,.cls-26,.cls-3,.cls-4,.cls-5,.cls-6{stroke:#303870;}.cls-1,.cls-13,.cls-2,.cls-24,.cls-25,.cls-26,.cls-3,.cls-4,.cls-43,.cls-44,.cls-5,.cls-6{stroke-linecap:round;stroke-linejoin:round;}.cls-1,.cls-13,.cls-2,.cls-25,.cls-3,.cls-4,.cls-43,.cls-44,.cls-5,.cls-6{stroke-width:2.25px;}.cls-2,.cls-26,.cls-9{fill:#fff;}.cls-12,.cls-3{fill:#f7ad6b;}.cls-20,.cls-4{fill:#feded5;}.cls-15,.cls-5{fill:#6851f9;}.cls-41,.cls-6{fill:#f87b5a;}.cls-7{fill:#b8f0ff;}.cls-25,.cls-8{fill:#80d8ff;}.cls-11{clip-path:url(#clip-path);}.cls-13,.cls-24,.cls-43,.cls-44{fill:none;}.cls-14{clip-path:url(#clip-path-2);}.cls-16{clip-path:url(#clip-path-3);}.cls-17{fill:#303870;}.cls-18{clip-path:url(#clip-path-4);}.cls-19{clip-path:url(#clip-path-5);}.cls-21{clip-path:url(#clip-path-6);}.cls-22{fill:#f4b3a8;}.cls-23{clip-path:url(#clip-path-7);}.cls-24{stroke:#f87b5a;stroke-width:0.75px;}.cls-26{stroke-width:3px;}.cls-27{clip-path:url(#clip-path-8);}.cls-28{clip-path:url(#clip-path-9);}.cls-29{clip-path:url(#clip-path-10);}.cls-30{clip-path:url(#clip-path-11);}.cls-31{clip-path:url(#clip-path-12);}.cls-32{clip-path:url(#clip-path-13);}.cls-33{clip-path:url(#clip-path-14);}.cls-34{clip-path:url(#clip-path-15);}.cls-35{clip-path:url(#clip-path-16);}.cls-36{clip-path:url(#clip-path-17);}.cls-37{clip-path:url(#clip-path-18);}.cls-38{clip-path:url(#clip-path-19);}.cls-39{clip-path:url(#clip-path-20);}.cls-40{clip-path:url(#clip-path-21);}.cls-42{clip-path:url(#clip-path-22);}.cls-43{stroke:#fff;}.cls-44{stroke:#80d8ff;}.cls-45{clip-path:url(#clip-path-23);}.cls-46{fill:#8981ea;}</style><clipPath id="clip-path"><path class="cls-1" d="M500,128h0a21,21,0,0,0-3.85-4.82L484.84,109l-10.1,7.51L269.19,96.16c-13.74-1.37-27.31,8.59-30.31,22.23L193.27,325.87l-10.55,7.85,12.25,14a21.9,21.9,0,0,0,16.71,10L425.39,379c13.74,1.36,27.31-8.6,30.31-22.24l46.65-212.21A22.77,22.77,0,0,0,500,128Z"/></clipPath><clipPath id="clip-path-2"><path class="cls-2" d="M226.76,103.43l-23.33,106.1,54,5.35a18.74,18.74,0,0,1,2.76,6.65c.38,2.59-1.43,6.52-1.43,6.52h0a17.15,17.15,0,0,0-2.76,7.27,13.85,13.85,0,0,0,11.93,15.75c8.95,1.27,18-5.15,19.91-14a15.14,15.14,0,0,0,.2-5.51h0a40.26,40.26,0,0,1,.79-7c.74-3.36,6-5.92,6-5.92l40.34,4L363.92,91.78,257.06,81.19C243.32,79.83,229.75,89.78,226.76,103.43Z"/></clipPath><clipPath id="clip-path-3"><path class="cls-5" d="M301.89,103.73s14.19-1.47,18.59,8.56-9,82.83-9,82.83l-37.05-3.67Z"/></clipPath><clipPath id="clip-path-4"><path class="cls-2" d="M247.29,137.47s-4.95-13.68,5.41-28.49c9.48-13.57,28.77-12.58,38.61-10.16a33.55,33.55,0,0,1,23.57,23.08c4.65,16.15-7.2,32-11.76,35.89s-11.72,10.36-17.9,9.6S247.29,137.47,247.29,137.47Z"/></clipPath><clipPath id="clip-path-5"><path class="cls-3" d="M263,185.07s-26.26-1.54-32.79.62-20.08,16.49-23,20.54-11.37,38-11.37,38l124,12.29s7.46-46.67-3.12-57.68C308.42,190.2,283,188.56,283,188.56Z"/></clipPath><clipPath id="clip-path-6"><path class="cls-4" d="M249.21,130.23a33.17,33.17,0,0,0,9.42-6,55.42,55.42,0,0,0,6.09-7.24s2.57,7.43,7.5,10.92S285,132,285,132a11.6,11.6,0,0,0,2.89,6.63,11.85,11.85,0,0,0,5.78,3.74s3.35-4.34,7-1.14,3,9.47-.49,13.13-10.09,6.34-10.09,6.34l-7,27.83s-8.42,17.18-17.06,14.82-3-18.31-3-18.31L266,173.19s-11.22,1.89-16.1-5.93-4.48-16.46-3.53-24.2A63.81,63.81,0,0,1,249.21,130.23Z"/></clipPath><clipPath id="clip-path-7"><path class="cls-2" d="M259.1,160.88l-19.84,27.43a1.32,1.32,0,0,0,.42,2l2,.94a1.6,1.6,0,0,0,1.93-.59l20.18-28.64A15.07,15.07,0,0,0,259.1,160.88Z"/></clipPath><clipPath id="clip-path-8"><path class="cls-2" d="M426,231.59a18.64,18.64,0,0,1-2.76-6.65c-.38-2.58,1.43-6.51,1.43-6.51h0a17.19,17.19,0,0,0,2.75-7.27,13.86,13.86,0,0,0-11.93-15.76c-8.95-1.26-18,5.16-19.91,14a15.16,15.16,0,0,0-.2,5.51h0a40.17,40.17,0,0,1-.79,7c-.74,3.37-6,5.93-6,5.93l-53.43-5.3L306.41,353.4,413.27,364c13.74,1.36,27.31-8.59,30.31-22.24l23.32-106.1Zm-91.4,81.16a14.79,14.79,0,0,1-5.76-1.78h0s-3.85-1.32-6.56-.65a25.73,25.73,0,0,0-7.19,3.48l8.17-37.15s2,4.87,5.42,5.2a41.57,41.57,0,0,0,7.15,0h0a16.78,16.78,0,0,1,5.66-.44c8.73.87,14.26,8.59,12.35,17.25A18.41,18.41,0,0,1,334.62,312.75Z"/></clipPath><clipPath id="clip-path-9"><path class="cls-5" d="M372.27,249s-3.89-5.61-12.89-5-19.67,15.21-22.94,32.73-5,85.47-5,85.47l26.95-3.61s-3.17-65-2.07-75.17,2.24-18.52,6.86-21S372.27,249,372.27,249Z"/></clipPath><clipPath id="clip-path-10"><path class="cls-2" d="M418.63,273.15A18.28,18.28,0,0,0,422.06,251c-6.75-13.28-21.74-11.92-32-9.57s-24.54,9.73-29.54,24.58a37,37,0,0,0,4.16,32.65c3.8,5.3,13.26,10.16,13.26,10.16Z"/></clipPath><clipPath id="clip-path-11"><path class="cls-3" d="M386.79,325.84c-9.16-4.21-24.8-5.43-34-3.37S332.38,330,328.74,334.6,319,354.09,319,354.09l103.61,10.27s2.47-21.2-5-27.22S386.79,325.84,386.79,325.84Z"/></clipPath><clipPath id="clip-path-12"><path class="cls-4" d="M416.66,263.5a46.53,46.53,0,0,1,2,9.65c.36,4.79-1.24,11.29,1.83,14.26s3.19,5.06,1.41,6.82a17.12,17.12,0,0,0-4.59,6.91c-.94,3-1.34,7.07-4.27,10.24-2,2.16-7.68,3.45-12.2,2.84l-4.52-.6L393.14,329s.9,6.41-2.28,9.49-10.75.72-13.36-3.77A33.86,33.86,0,0,1,374,324.58l3.9-15.75,2.28-9.5s-8.36-2.09-6.64-10,8.82-4.09,8.82-4.09l3.08-7.43a11.2,11.2,0,0,0,8.5-.41c4.71-2.08,5.64-4.86,5.64-4.86a17.9,17.9,0,0,0,9.46-2.48A35.72,35.72,0,0,0,416.66,263.5Z"/></clipPath><clipPath id="clip-path-13"><path class="cls-2" d="M343.42,281.64a16.08,16.08,0,0,0-7.56.13h0a41.57,41.57,0,0,1-7.15,0c-3.39-.34-5.42-5.21-5.42-5.21l11.88-54-40.31-4s-5.26,2.55-6,5.92a40.17,40.17,0,0,0-.79,7h0a15.46,15.46,0,0,1-.74,7.4c-2.65,7.57-10.61,12.89-18.42,12.25-8.89-.72-14.56-8.52-12.63-17.27a17.27,17.27,0,0,1,2.5-5.86h0s1.81-3.93,1.43-6.51a18.84,18.84,0,0,0-2.76-6.65l-54-5.36L180.11,315.64c-3,13.64,5.7,25.81,19.44,27.17L306.41,353.4l8.72-39.65a25.6,25.6,0,0,1,7.18-3.48c2.71-.67,6.56.65,6.56.65h0a14.79,14.79,0,0,0,5.76,1.78,18.4,18.4,0,0,0,19.3-14.4A13.92,13.92,0,0,0,343.42,281.64Z"/></clipPath><clipPath id="clip-path-14"><path class="cls-3" d="M250.59,262.06s-21.94-3-42,5.93-35.17,77.89-35.17,77.89l135.9,13.47s15.4-51.81,12.24-66.07-15.16-24.39-29.26-27.1S250.59,262.06,250.59,262.06Z"/></clipPath><clipPath id="clip-path-15"><path class="cls-4" d="M256,237.52l-5.39,24.54s-4.52,20.58,8.92,21.92,18.61-16.92,18.61-16.92L284,240.3Z"/></clipPath><clipPath id="clip-path-16"><path class="cls-2" d="M363.92,91.78l-12.05,54.84a25.73,25.73,0,0,1-7.19,3.48c-2.71.67-6.56-.65-6.56-.65h0a14.88,14.88,0,0,0-7.19-1.86,18.62,18.62,0,0,0-17.65,13.54c-2.34,8.92,3.24,17,12.19,17.9a16.52,16.52,0,0,0,5.66-.43h0a42.75,42.75,0,0,1,7.15,0c3.39.34,5.42,5.21,5.42,5.21l-8.53,38.81,53.2,5.27s5.27-2.55,6-5.92a40.17,40.17,0,0,0,.79-7h0a15.51,15.51,0,0,1,.75-7.41c2.65-7.57,10.61-12.88,18.43-12.24,8.88.73,14.54,8.52,12.62,17.27a17.49,17.49,0,0,1-2.51,5.86h0s-1.81,3.93-1.44,6.51a18.84,18.84,0,0,0,2.76,6.65l41.11,4.08,23.33-106.11c3-13.64-5.71-25.81-19.45-27.17Z"/></clipPath><clipPath id="clip-path-17"><path class="cls-5" d="M401.22,119s-2.31-6.51-10.94-8S368,121.59,360.66,138.34s-25.49,84.25-25.49,84.25l26.33,2.61s12.79-65.71,16.29-75.59,6.61-18,11.57-19.39S401.22,119,401.22,119Z"/></clipPath><clipPath id="clip-path-18"><path class="cls-2" d="M439.16,153.79s11.77-6.5,8.61-21.33-17.64-16.92-27.94-17-25.54,4.06-33.87,17.75-6.29,27.42-4,33.59S392,180.05,392,180.05Z"/></clipPath><clipPath id="clip-path-19"><path class="cls-3" d="M398.27,196.17c-9.16-4.2-24.81-5.42-34-3.36s-20.44,7.54-24.08,12.12-4.4,20-4.4,20l98.26,9.74s2.47-21.2-5-27.21S398.27,196.17,398.27,196.17Z"/></clipPath><clipPath id="clip-path-20"><path class="cls-4" d="M406.63,245.07s22.21-29.16,25.48-34.61,6.8-13,8.53-14.22,3.17-.72,2.29,1.88-3.47,9.15-3.47,9.15,6.37-7.2,8.48-11.13,2.39-8.53,3.89-10.14,3.44-1,3.76.37,1.17-1.53,2.72-1.48,1.75,1.93,1.33,2.92.81-.85,1.52.66-.55,6.76-2.34,10.6-4.13,10.32-6.31,13.61S438,230.12,436.51,232s-7.1,15.29-7.1,15.29Z"/></clipPath><clipPath id="clip-path-21"><path class="cls-4" d="M439.63,143.7a49.93,49.93,0,0,1-.47,10.09c-.82,4.87-3.91,11-1.73,14.68s1.79,5.79-.33,7.14a17.57,17.57,0,0,0-6,5.84c-1.62,2.81-3,6.75-6.52,9.25-2.41,1.7-8.09,1.67-12.22,0l-4.12-1.64-6.71,14.67s-.71,6.61-4.47,9-10.32-1.76-11.7-6.85a36,36,0,0,1-.82-11l7.5-14.84,4.46-9s-7.1-3.77-3.49-11.23c3.23-6.69,9-2.33,9-2.33l4.71-6.71a10.37,10.37,0,0,0,8.13,1.55c5-1,6.52-3.56,6.52-3.56a16.59,16.59,0,0,0,9.53-.29A35.46,35.46,0,0,0,439.63,143.7Z"/></clipPath><clipPath id="clip-path-22"><path class="cls-6" d="M548.53,240.88c-3,11.92-11.08,22.24-21.37,29-2.2,1.45-1.18,13.66-3.56,14.76-3.15,1.44-9.76-8.36-13.12-7.6a44.63,44.63,0,0,1-13.24,1c-22.63-1.7-36.37-21.1-30.68-43.32s28.65-38.87,51.29-37.17S554.22,218.65,548.53,240.88Z"/></clipPath><clipPath id="clip-path-23"><path class="cls-5" d="M490.72,334.5l7,6.95a11.2,11.2,0,0,0,1.09,1,18.06,18.06,0,0,0,24.46-1l25.64-25.61,25.61-25.61a18.07,18.07,0,0,0,0-25.56L571.81,262l-4.28-4.29a4.85,4.85,0,0,0-6.85,0l-13.6,13.6a4.85,4.85,0,0,0,0,6.82l1.32,1.29a7.59,7.59,0,0,1,0,10.74l-12.61,12.62-12.61,12.58a7.56,7.56,0,0,1-10.72,0l-1.32-1.29a4.83,4.83,0,0,0-6.81,0l-13.61,13.6A4.87,4.87,0,0,0,490.72,334.5Z"/></clipPath></defs><g id="Symptoms"><path class="cls-7" d="M172.62,161.67c-50.17,38.49-65.87,115-40.31,163.91,22.93,43.92,75.94,77.71,146.14,72.64s104.12,22.95,144.22,27c55.8,5.68,111.19-13.63,138-87,22.5-61.6-61.35-196.9-158.8-223.1S228.7,118.63,172.62,161.67Z"/><path class="cls-8" d="M440.54,366.18a117.43,117.43,0,0,1-11.79-.62c-7.89-.8-18.28-4.32-30.31-8.39-24.39-8.25-57.8-19.56-103.35-19.56-6.87,0-13.92.26-21,.77-3.2.23-6.4.35-9.52.35-42.57,0-68.78-21.14-79.11-40.92-11.88-22.76-4-67.33,23.65-88.54,38.56-29.59,78.14-44,121-44a216.4,216.4,0,0,1,56.11,7.8c29.1,7.82,62.75,34.8,87.82,70.4,12.08,17.16,19.65,32.53,24.2,44.89,7.79,21.13,3.17,45.11-12.62,61.16-11.26,11.44-25.84,16.63-45.13,16.63Z"/><path class="cls-9" d="M481.71,348.66c.18.3.3.46.39.63.44.92.86,1.85,1.3,2.77a7.84,7.84,0,0,0,3.68,3.73c.94.45,1.89.87,2.83,1.33a2.28,2.28,0,0,1,.44.39,2.12,2.12,0,0,1-.46.44c-.93.47-1.88.89-2.82,1.35a7.84,7.84,0,0,0-3.68,3.73c-.45.94-.87,1.9-1.33,2.83-.07.14-.25.32-.38.32s-.31-.17-.38-.31c-.46-.94-.89-1.89-1.34-2.83a7.85,7.85,0,0,0-3.73-3.77c-.92-.45-1.85-.86-2.76-1.31a2,2,0,0,1-.47-.44,2.43,2.43,0,0,1,.49-.42c.93-.46,1.89-.88,2.83-1.34a7.64,7.64,0,0,0,3.58-3.63c.46-.93.9-1.88,1.35-2.82A4.85,4.85,0,0,1,481.71,348.66Z"/><path class="cls-9" d="M359,228c.12.2.19.3.25.41.28.59.55,1.19.84,1.78a5,5,0,0,0,2.37,2.41c.61.3,1.23.57,1.83.86a.27.27,0,1,1,0,.54c-.6.3-1.22.58-1.82.87a5.11,5.11,0,0,0-2.38,2.41c-.29.61-.56,1.22-.86,1.83a.36.36,0,0,1-.24.2c-.08,0-.2-.11-.25-.2l-.86-1.83a5,5,0,0,0-2.41-2.43l-1.78-.85a1.36,1.36,0,0,1-.31-.28,2,2,0,0,1,.32-.27c.6-.3,1.22-.57,1.83-.87a5,5,0,0,0,2.31-2.34c.3-.6.58-1.21.87-1.82A4.65,4.65,0,0,1,359,228Z"/><circle class="cls-10" cx="150.65" cy="251.23" r="3.99"/><circle class="cls-10" cx="528.25" cy="258.85" r="3.99"/><path class="cls-10" d="M500,128h0a21,21,0,0,0-3.85-4.82L484.84,109l-10.1,7.51L269.19,96.16c-13.74-1.37-27.31,8.59-30.31,22.23L193.27,325.87l-10.55,7.85,12.25,14a21.9,21.9,0,0,0,16.71,10L425.39,379c13.74,1.36,27.31-8.6,30.31-22.24l46.65-212.21A22.77,22.77,0,0,0,500,128Z"/><g class="cls-11"><polygon class="cls-12" points="450.27 381.42 417.63 337.14 472.01 89.77 520.16 94.54 450.27 381.42"/></g><path class="cls-13" d="M500,128h0a21,21,0,0,0-3.85-4.82L484.84,109l-10.1,7.51L269.19,96.16c-13.74-1.37-27.31,8.59-30.31,22.23L193.27,325.87l-10.55,7.85,12.25,14a21.9,21.9,0,0,0,16.71,10L425.39,379c13.74,1.36,27.31-8.6,30.31-22.24l46.65-212.21A22.77,22.77,0,0,0,500,128Z"/><path class="cls-9" d="M226.76,103.43l-23.33,106.1,54,5.35a18.74,18.74,0,0,1,2.76,6.65c.38,2.59-1.43,6.52-1.43,6.52h0a17.15,17.15,0,0,0-2.76,7.27,13.85,13.85,0,0,0,11.93,15.75c8.95,1.27,18-5.15,19.91-14a15.14,15.14,0,0,0,.2-5.51h0a40.26,40.26,0,0,1,.79-7c.74-3.36,6-5.92,6-5.92l40.34,4L363.92,91.78,257.06,81.19C243.32,79.83,229.75,89.78,226.76,103.43Z"/><g class="cls-14"><path class="cls-15" d="M301.89,103.73s14.19-1.47,18.59,8.56-9,82.83-9,82.83l-37.05-3.67Z"/><g class="cls-16"><path class="cls-17" d="M310.16,142.49s.75,19.18-7,30.16S283,188.56,283,188.56L266.85,187l9.93-45.16Z"/></g><path class="cls-13" d="M301.89,103.73s14.19-1.47,18.59,8.56-9,82.83-9,82.83l-37.05-3.67Z"/><path class="cls-9" d="M247.29,137.47s-4.95-13.68,5.41-28.49c9.48-13.57,28.77-12.58,38.61-10.16a33.55,33.55,0,0,1,23.57,23.08c4.65,16.15-7.2,32-11.76,35.89s-11.72,10.36-17.9,9.6S247.29,137.47,247.29,137.47Z"/><g class="cls-18"><path class="cls-15" d="M246.44,141.34s-4.95-13.68,5.41-28.49c9.48-13.57,28.77-12.58,38.61-10.16A33.55,33.55,0,0,1,314,125.77c4.65,16.14-7.2,32-11.76,35.88s-11.72,10.37-17.9,9.61S246.44,141.34,246.44,141.34Z"/></g><path class="cls-13" d="M247.29,137.47s-4.95-13.68,5.41-28.49c9.48-13.57,28.77-12.58,38.61-10.16a33.55,33.55,0,0,1,23.57,23.08c4.65,16.15-7.2,32-11.76,35.89s-11.72,10.36-17.9,9.6S247.29,137.47,247.29,137.47Z"/><path class="cls-12" d="M263,185.07s-26.26-1.54-32.79.62-20.08,16.49-23,20.54-11.37,38-11.37,38l124,12.29s7.46-46.67-3.12-57.68C308.42,190.2,283,188.56,283,188.56Z"/><g class="cls-19"><path class="cls-10" d="M258.84,184.66c-1.89.13-11.16,23.36,4.47,25.16s37.06-21,37.06-21S278,179,258.84,184.66"/></g><path class="cls-13" d="M263,185.07s-26.26-1.54-32.79.62-20.08,16.49-23,20.54-11.37,38-11.37,38l124,12.29s7.46-46.67-3.12-57.68C308.42,190.2,283,188.56,283,188.56Z"/><path class="cls-20" d="M249.21,130.23a33.17,33.17,0,0,0,9.42-6,55.42,55.42,0,0,0,6.09-7.24s2.57,7.43,7.5,10.92S285,132,285,132a11.6,11.6,0,0,0,2.89,6.63,11.85,11.85,0,0,0,5.78,3.74s3.35-4.34,7-1.14,3,9.47-.49,13.13-10.09,6.34-10.09,6.34l-7,27.83s-8.42,17.18-17.06,14.82-3-18.31-3-18.31L266,173.19s-11.22,1.89-16.1-5.93-4.48-16.46-3.53-24.2A63.81,63.81,0,0,1,249.21,130.23Z"/><g class="cls-21"><path class="cls-4" d="M266,173.19a33.25,33.25,0,0,0,8.72-2.64c3.68-1.89,6.89-3.69,6.89-3.69"/><path class="cls-4" d="M263.06,141.33s-.84,5.22-2.34,7-2.12,1.25-2.47,3.13a3.29,3.29,0,0,0,1.5,3.08"/><path class="cls-4" d="M270.89,141.21a4.61,4.61,0,0,0,3.37,1.68,6,6,0,0,0,4-.95"/><path class="cls-4" d="M257.58,160.74s4.11.18,6.47,1.43"/><path class="cls-4" d="M252,138.21a4.31,4.31,0,0,0,3.36,1.8,5.05,5.05,0,0,0,3.73-.87"/><path class="cls-4" d="M294.44,147.42a3.36,3.36,0,0,1,3-1.33c2,.2,1.43,4.71-1.08,5.78"/><ellipse class="cls-22" cx="277.38" cy="152.77" rx="2.71" ry="4.32" transform="translate(118.77 426.85) rotate(-88.79)"/><ellipse class="cls-22" cx="249.29" cy="148.26" rx="2.71" ry="4.32" transform="translate(95.78 394.35) rotate(-88.79)"/></g><path class="cls-13" d="M249.21,130.23a33.17,33.17,0,0,0,9.42-6,55.42,55.42,0,0,0,6.09-7.24s2.57,7.43,7.5,10.92S285,132,285,132a11.6,11.6,0,0,0,2.89,6.63,11.85,11.85,0,0,0,5.78,3.74s3.35-4.34,7-1.14,3,9.47-.49,13.13-10.09,6.34-10.09,6.34l-7,27.83s-8.42,17.18-17.06,14.82-3-18.31-3-18.31L266,173.19s-11.22,1.89-16.1-5.93-4.48-16.46-3.53-24.2A63.81,63.81,0,0,1,249.21,130.23Z"/><path class="cls-9" d="M259.1,160.88l-19.84,27.43a1.32,1.32,0,0,0,.42,2l2,.94a1.6,1.6,0,0,0,1.93-.59l20.18-28.64A15.07,15.07,0,0,0,259.1,160.88Z"/><g class="cls-23"><line class="cls-24" x1="262.53" y1="159.96" x2="243.39" y2="186.63"/></g><path class="cls-13" d="M259.1,160.88l-19.84,27.43a1.32,1.32,0,0,0,.42,2l2,.94a1.6,1.6,0,0,0,1.93-.59l20.18-28.64A15.07,15.07,0,0,0,259.1,160.88Z"/><path class="cls-25" d="M289,144.16s-4.32,2.69-3.31,6,4.45,1.61,4.9-.31S289,144.16,289,144.16Z"/><path class="cls-25" d="M290.16,160.67s-4.32,2.7-3.3,6,4.45,1.61,4.89-.31S290.16,160.67,290.16,160.67Z"/></g><path class="cls-13" d="M226.76,103.43l-23.33,106.1,54,5.35a18.74,18.74,0,0,1,2.76,6.65c.38,2.59-1.43,6.52-1.43,6.52h0a17.15,17.15,0,0,0-2.76,7.27,13.85,13.85,0,0,0,11.93,15.75c8.95,1.27,18-5.15,19.91-14a15.14,15.14,0,0,0,.2-5.51h0a40.26,40.26,0,0,1,.79-7c.74-3.36,6-5.92,6-5.92l40.34,4L363.92,91.78,257.06,81.19C243.32,79.83,229.75,89.78,226.76,103.43Z"/><path class="cls-26" d="M343.7,183.78l8.17-37.16a25.73,25.73,0,0,1-7.19,3.48c-2.71.67-6.56-.65-6.56-.65h0a14.62,14.62,0,0,0-5.76-1.78,18.39,18.39,0,0,0-19.24,14.11c-1.91,8.67,3.62,16.39,12.35,17.25a16.52,16.52,0,0,0,5.66-.43h0a42.75,42.75,0,0,1,7.15,0C341.67,178.91,343.7,183.78,343.7,183.78Z"/><path class="cls-9" d="M426,231.59a18.64,18.64,0,0,1-2.76-6.65c-.38-2.58,1.43-6.51,1.43-6.51h0a17.19,17.19,0,0,0,2.75-7.27,13.86,13.86,0,0,0-11.93-15.76c-8.95-1.26-18,5.16-19.91,14a15.16,15.16,0,0,0-.2,5.51h0a40.17,40.17,0,0,1-.79,7c-.74,3.37-6,5.93-6,5.93l-53.43-5.3L306.41,353.4,413.27,364c13.74,1.36,27.31-8.59,30.31-22.24l23.32-106.1Zm-91.4,81.16a14.79,14.79,0,0,1-5.76-1.78h0s-3.85-1.32-6.56-.65a25.73,25.73,0,0,0-7.19,3.48l8.17-37.15s2,4.87,5.42,5.2a41.57,41.57,0,0,0,7.15,0h0a16.78,16.78,0,0,1,5.66-.44c8.73.87,14.26,8.59,12.35,17.25A18.41,18.41,0,0,1,334.62,312.75Z"/><g class="cls-27"><path class="cls-15" d="M372.27,249s-3.89-5.61-12.89-5-19.67,15.21-22.94,32.73-5,85.47-5,85.47l26.95-3.61s-3.17-65-2.07-75.17,2.24-18.52,6.86-21S372.27,249,372.27,249Z"/><g class="cls-28"><path class="cls-17" d="M357.5,274.12s-6.7,21.39-7.72,38.47-.51,27.75-.51,27.75l12.39-2.95-4.16-63.27"/></g><path class="cls-13" d="M372.27,249s-3.89-5.61-12.89-5-19.67,15.21-22.94,32.73-5,85.47-5,85.47l26.95-3.61s-3.17-65-2.07-75.17,2.24-18.52,6.86-21S372.27,249,372.27,249Z"/><path class="cls-9" d="M418.63,273.15A18.28,18.28,0,0,0,422.06,251c-6.75-13.28-21.74-11.92-32-9.57s-24.54,9.73-29.54,24.58a37,37,0,0,0,4.16,32.65c3.8,5.3,13.26,10.16,13.26,10.16Z"/><g class="cls-29"><path class="cls-15" d="M415.15,275.47a18.26,18.26,0,0,0,3.43-22.14c-6.75-13.28-21.74-11.92-32-9.58S362,253.49,357,268.34A37,37,0,0,0,361.18,301c3.79,5.3,13.25,10.15,13.25,10.15Z"/><path class="cls-17" d="M358.47,278.4s5.62,15,17.61,19.27c7,2.52,8.5,2.75,8.5,2.75l-8.26,15.93S363.65,309.6,361.18,301s-2.71-22.59-2.71-22.59"/></g><path class="cls-13" d="M418.63,273.15A18.28,18.28,0,0,0,422.06,251c-6.75-13.28-21.74-11.92-32-9.57s-24.54,9.73-29.54,24.58a37,37,0,0,0,4.16,32.65c3.8,5.3,13.26,10.16,13.26,10.16Z"/><path class="cls-12" d="M386.79,325.84c-9.16-4.21-24.8-5.43-34-3.37S332.38,330,328.74,334.6,319,354.09,319,354.09l103.61,10.27s2.47-21.2-5-27.22S386.79,325.84,386.79,325.84Z"/><g class="cls-30"><path class="cls-10" d="M354.59,315.66s-3.08,10.12,11.33,17.52,23.15,3.14,23.15,3.14l-13.86-21.56Z"/><line class="cls-4" x1="354.59" y1="343.26" x2="352.99" y2="357.46"/></g><path class="cls-13" d="M386.79,325.84c-9.16-4.21-24.8-5.43-34-3.37S332.38,330,328.74,334.6,319,354.09,319,354.09l103.61,10.27s2.47-21.2-5-27.22S386.79,325.84,386.79,325.84Z"/><path class="cls-20" d="M416.66,263.5a46.53,46.53,0,0,1,2,9.65c.36,4.79-1.24,11.29,1.83,14.26s3.19,5.06,1.41,6.82a17.12,17.12,0,0,0-4.59,6.91c-.94,3-1.34,7.07-4.27,10.24-2,2.16-7.68,3.45-12.2,2.84l-4.52-.6L393.14,329s.9,6.41-2.28,9.49-10.75.72-13.36-3.77A33.86,33.86,0,0,1,374,324.58l3.9-15.75,2.28-9.5s-8.36-2.09-6.64-10,8.82-4.09,8.82-4.09l3.08-7.43a11.2,11.2,0,0,0,8.5-.41c4.71-2.08,5.64-4.86,5.64-4.86a17.9,17.9,0,0,0,9.46-2.48A35.72,35.72,0,0,0,416.66,263.5Z"/><g class="cls-31"><path class="cls-22" d="M371.78,319a30.51,30.51,0,0,0,12.77-1.29c7.28-2.23,9.25-4.61,9.25-4.61L377,306.21Z"/><path class="cls-4" d="M385.44,309.75s6.33,3.26,10.85,3.87"/><path class="cls-22" d="M403.58,270.28a15.38,15.38,0,0,1-7.95,10.51c-6.57,3.29-15.37.67-15.37.67l1.11-7.79Z"/><path class="cls-4" d="M381,289.28a2.14,2.14,0,0,0-2.44.32c-1.42,1-.07,3.21-.07,3.21"/><ellipse class="cls-22" cx="399.11" cy="291.16" rx="5" ry="2.75" transform="translate(-45.91 76.64) rotate(-10.38)"/><ellipse class="cls-17" cx="409.08" cy="279.44" rx="2.84" ry="2.03" transform="translate(32.79 601.69) rotate(-74.91)"/><path class="cls-4" d="M407.58,300.9s3.05-1.19,5-.93"/></g><path class="cls-13" d="M416.66,263.5a46.53,46.53,0,0,1,2,9.65c.36,4.79-1.24,11.29,1.83,14.26s3.19,5.06,1.41,6.82a17.12,17.12,0,0,0-4.59,6.91c-.94,3-1.34,7.07-4.27,10.24-2,2.16-7.68,3.45-12.2,2.84l-4.52-.6L393.14,329s.9,6.41-2.28,9.49-10.75.72-13.36-3.77A33.86,33.86,0,0,1,374,324.58l3.9-15.75,2.28-9.5s-8.36-2.09-6.64-10,8.82-4.09,8.82-4.09l3.08-7.43a11.2,11.2,0,0,0,8.5-.41c4.71-2.08,5.64-4.86,5.64-4.86a17.9,17.9,0,0,0,9.46-2.48A35.72,35.72,0,0,0,416.66,263.5Z"/><path class="cls-13" d="M428.37,293.47a5.46,5.46,0,0,1,6.4,2.15c1.71,2.63,5.24,2.22,6.71,1.61a11.09,11.09,0,0,0,2.65-1.63"/><path class="cls-13" d="M427.51,298.5a4.67,4.67,0,0,1,5,2.71c1.07,2.44,4.06,2.61,5.36,2.32a8.93,8.93,0,0,0,2.42-1"/></g><path class="cls-13" d="M426,231.59a18.64,18.64,0,0,1-2.76-6.65c-.38-2.58,1.43-6.51,1.43-6.51h0a17.19,17.19,0,0,0,2.75-7.27,13.86,13.86,0,0,0-11.93-15.76c-8.95-1.26-18,5.16-19.91,14a15.16,15.16,0,0,0-.2,5.51h0a40.17,40.17,0,0,1-.79,7c-.74,3.37-6,5.93-6,5.93l-53.43-5.3L306.41,353.4,413.27,364c13.74,1.36,27.31-8.59,30.31-22.24l23.32-106.1Zm-91.4,81.16a14.79,14.79,0,0,1-5.76-1.78h0s-3.85-1.32-6.56-.65a25.73,25.73,0,0,0-7.19,3.48l8.17-37.15s2,4.87,5.42,5.2a41.57,41.57,0,0,0,7.15,0h0a16.78,16.78,0,0,1,5.66-.44c8.73.87,14.26,8.59,12.35,17.25A18.41,18.41,0,0,1,334.62,312.75Z"/><path class="cls-9" d="M343.42,281.64a16.08,16.08,0,0,0-7.56.13h0a41.57,41.57,0,0,1-7.15,0c-3.39-.34-5.42-5.21-5.42-5.21l11.88-54-40.31-4s-5.26,2.55-6,5.92a40.17,40.17,0,0,0-.79,7h0a15.46,15.46,0,0,1-.74,7.4c-2.65,7.57-10.61,12.89-18.42,12.25-8.89-.72-14.56-8.52-12.63-17.27a17.27,17.27,0,0,1,2.5-5.86h0s1.81-3.93,1.43-6.51a18.84,18.84,0,0,0-2.76-6.65l-54-5.36L180.11,315.64c-3,13.64,5.7,25.81,19.44,27.17L306.41,353.4l8.72-39.65a25.6,25.6,0,0,1,7.18-3.48c2.71-.67,6.56.65,6.56.65h0a14.79,14.79,0,0,0,5.76,1.78,18.4,18.4,0,0,0,19.3-14.4A13.92,13.92,0,0,0,343.42,281.64Z"/><g class="cls-32"><path class="cls-12" d="M250.59,262.06s-21.94-3-42,5.93-35.17,77.89-35.17,77.89l135.9,13.47s15.4-51.81,12.24-66.07-15.16-24.39-29.26-27.1S250.59,262.06,250.59,262.06Z"/><g class="cls-33"><path class="cls-10" d="M266.8,358.86c.52-1.09-5-82.66-5-82.66l17.76-5.34L299,359.49Z"/><path class="cls-10" d="M166.94,336.45s49.19-32.08,55.33-36,12.67-12.39,15.47-11.65-.28,10.76-.28,10.76l4.07,10.19-53.39,43.6-25.78-2.55Z"/></g><path class="cls-13" d="M250.59,262.06s-21.94-3-42,5.93-35.17,77.89-35.17,77.89l135.9,13.47s15.4-51.81,12.24-66.07-15.16-24.39-29.26-27.1S250.59,262.06,250.59,262.06Z"/><path class="cls-20" d="M256,237.52l-5.39,24.54s-4.52,20.58,8.92,21.92,18.61-16.92,18.61-16.92L284,240.3Z"/><g class="cls-34"><path class="cls-22" d="M263.91,287.56c-4.22.06-13.79-29.55-11.2-35.14s10.45-5.32,10.45-5.32l17.22-.9-1.74,39.67Z"/></g><path class="cls-13" d="M256,237.52l-5.39,24.54s-4.52,20.58,8.92,21.92,18.61-16.92,18.61-16.92L284,240.3Z"/><path class="cls-4" d="M173.46,345.88s51.76-41.64,54.22-44,6.5-10.81,10.06-13.1,3.09,2,2.13,4.86a62.76,62.76,0,0,1-2.41,5.9s10.86-12.05,14.17-12.83,2.82.63.16,4.07-8.09,9-8.09,9,13.12-12.78,16-12.16,1.5,4.22-3.51,8.19-9.52,8.1-9.52,8.1,13-10.55,14.63-9.74,1,4.07-3.91,7.21-9.06,6.09-9.06,6.09,10.8-6.53,11.9-4.87-6.31,6.56-11.74,8.95-15.28,7.08-19,10-21,27.77-21,27.77Z"/><path class="cls-4" d="M252.13,208.53s-5.23,16-4.41,24.39,5.3,16.69,21.18,18.26,26.67-9.53,28.46-17.7A158.64,158.64,0,0,0,299.78,214Z"/><path class="cls-4" d="M309.36,359.35s-24.76-85.93-25-89.06,2.63-11.91,1.45-15.53-3.9,0-5.21,2.79a62.84,62.84,0,0,0-2.34,5.92s.05-15.11-2-17.41-2.71-.93-3.07,3.16a112.65,112.65,0,0,0-.06,11.27s-1.22-16.83-3.94-17.8-4.25,2.6-3.13,8.3,1.73,11.29,1.73,11.29-2.74-15-4.61-15.18-3.74,2.72-2.09,7.72,2.81,9.45,2.81,9.45-3.88-10.69-5.95-9.93.28,8.43,2.88,13.09,7,13.39,7.86,17.63,10.21,71.27,10.21,71.27Z"/></g><path class="cls-13" d="M343.42,281.64a16.08,16.08,0,0,0-7.56.13h0a41.57,41.57,0,0,1-7.15,0c-3.39-.34-5.42-5.21-5.42-5.21l11.88-54-40.31-4s-5.26,2.55-6,5.92a40.17,40.17,0,0,0-.79,7h0a15.46,15.46,0,0,1-.74,7.4c-2.65,7.57-10.61,12.89-18.42,12.25-8.89-.72-14.56-8.52-12.63-17.27a17.27,17.27,0,0,1,2.5-5.86h0s1.81-3.93,1.43-6.51a18.84,18.84,0,0,0-2.76-6.65l-54-5.36L180.11,315.64c-3,13.64,5.7,25.81,19.44,27.17L306.41,353.4l8.72-39.65a25.6,25.6,0,0,1,7.18-3.48c2.71-.67,6.56.65,6.56.65h0a14.79,14.79,0,0,0,5.76,1.78,18.4,18.4,0,0,0,19.3-14.4A13.92,13.92,0,0,0,343.42,281.64Z"/><path class="cls-9" d="M363.92,91.78l-12.05,54.84a25.73,25.73,0,0,1-7.19,3.48c-2.71.67-6.56-.65-6.56-.65h0a14.88,14.88,0,0,0-7.19-1.86,18.62,18.62,0,0,0-17.65,13.54c-2.34,8.92,3.24,17,12.19,17.9a16.52,16.52,0,0,0,5.66-.43h0a42.75,42.75,0,0,1,7.15,0c3.39.34,5.42,5.21,5.42,5.21l-8.53,38.81,53.2,5.27s5.27-2.55,6-5.92a40.17,40.17,0,0,0,.79-7h0a15.51,15.51,0,0,1,.75-7.41c2.65-7.57,10.61-12.88,18.43-12.24,8.88.73,14.54,8.52,12.62,17.27a17.49,17.49,0,0,1-2.51,5.86h0s-1.81,3.93-1.44,6.51a18.84,18.84,0,0,0,2.76,6.65l41.11,4.08,23.33-106.11c3-13.64-5.71-25.81-19.45-27.17Z"/><g class="cls-35"><path class="cls-15" d="M401.22,119s-2.31-6.51-10.94-8S368,121.59,360.66,138.34s-25.49,84.25-25.49,84.25l26.33,2.61s12.79-65.71,16.29-75.59,6.61-18,11.57-19.39S401.22,119,401.22,119Z"/><g class="cls-36"><path class="cls-17" d="M381.18,140.66s-11.53,19.83-16.64,36.67-7.22,27.6-7.22,27.6l12.43-.09,11.43-64.18"/></g><path class="cls-13" d="M401.22,119s-2.31-6.51-10.94-8S368,121.59,360.66,138.34s-25.49,84.25-25.49,84.25l26.33,2.61s12.79-65.71,16.29-75.59,6.61-18,11.57-19.39S401.22,119,401.22,119Z"/><path class="cls-9" d="M439.16,153.79s11.77-6.5,8.61-21.33-17.64-16.92-27.94-17-25.54,4.06-33.87,17.75-6.29,27.42-4,33.59S392,180.05,392,180.05Z"/><g class="cls-37"><path class="cls-15" d="M435.31,155.31s11.77-6.51,8.61-21.33S426.28,117.05,416,117s-25.55,4.07-33.88,17.76-6.29,27.41-4,33.58,10.06,13.2,10.06,13.2Z"/><path class="cls-17" d="M381.05,145.16s1.68,16.24,12,23.32c6,4.14,7.36,4.71,7.36,4.71l-11.67,14s-10.33-9.67-10.58-18.84,2.93-23.2,2.93-23.2"/></g><path class="cls-13" d="M439.16,153.79s11.77-6.5,8.61-21.33-17.64-16.92-27.94-17-25.54,4.06-33.87,17.75-6.29,27.42-4,33.59S392,180.05,392,180.05Z"/><path class="cls-12" d="M398.27,196.17c-9.16-4.2-24.81-5.42-34-3.36s-20.44,7.54-24.08,12.12-4.4,20-4.4,20l98.26,9.74s2.47-21.2-5-27.21S398.27,196.17,398.27,196.17Z"/><g class="cls-38"><path class="cls-10" d="M366.07,186s-3.09,10.11,11.32,17.51,23.15,3.15,23.15,3.15L386.68,185.1Z"/><polygon class="cls-10" points="428.73 201.78 392.84 241.72 438.6 242.84 454.01 210.02 428.73 201.78"/></g><path class="cls-13" d="M398.27,196.17c-9.16-4.2-24.81-5.42-34-3.36s-20.44,7.54-24.08,12.12-4.4,20-4.4,20l98.26,9.74s2.47-21.2-5-27.21S398.27,196.17,398.27,196.17Z"/><path class="cls-20" d="M406.63,245.07s22.21-29.16,25.48-34.61,6.8-13,8.53-14.22,3.17-.72,2.29,1.88-3.47,9.15-3.47,9.15,6.37-7.2,8.48-11.13,2.39-8.53,3.89-10.14,3.44-1,3.76.37,1.17-1.53,2.72-1.48,1.75,1.93,1.33,2.92.81-.85,1.52.66-.55,6.76-2.34,10.6-4.13,10.32-6.31,13.61S438,230.12,436.51,232s-7.1,15.29-7.1,15.29Z"/><g class="cls-39"><path class="cls-4" d="M455.59,186.37A54.75,54.75,0,0,1,453,195.3a96.2,96.2,0,0,1-5.23,9.18"/><path class="cls-4" d="M459.64,187.81a107.76,107.76,0,0,1-3.79,11.07c-1.56,3.35-4.15,7.53-4.15,7.53"/></g><path class="cls-13" d="M406.63,245.07s22.21-29.16,25.48-34.61,6.8-13,8.53-14.22,3.17-.72,2.29,1.88-3.47,9.15-3.47,9.15,6.37-7.2,8.48-11.13,2.39-8.53,3.89-10.14,3.44-1,3.76.37,1.17-1.53,2.72-1.48,1.75,1.93,1.33,2.92.81-.85,1.52.66-.55,6.76-2.34,10.6-4.13,10.32-6.31,13.61S438,230.12,436.51,232s-7.1,15.29-7.1,15.29Z"/><path class="cls-20" d="M439.63,143.7a49.93,49.93,0,0,1-.47,10.09c-.82,4.87-3.91,11-1.73,14.68s1.79,5.79-.33,7.14a17.57,17.57,0,0,0-6,5.84c-1.62,2.81-3,6.75-6.52,9.25-2.41,1.7-8.09,1.67-12.22,0l-4.12-1.64-6.71,14.67s-.71,6.61-4.47,9-10.32-1.76-11.7-6.85a36,36,0,0,1-.82-11l7.5-14.84,4.46-9s-7.1-3.77-3.49-11.23c3.23-6.69,9-2.33,9-2.33l4.71-6.71a10.37,10.37,0,0,0,8.13,1.55c5-1,6.52-3.56,6.52-3.56a16.59,16.59,0,0,0,9.53-.29A35.46,35.46,0,0,0,439.63,143.7Z"/><g class="cls-40"><path class="cls-22" d="M383.77,188.79a28.07,28.07,0,0,0,12.38,1.66C403.57,189.9,406,188,406,188l-14.25-10.76Z"/><path class="cls-4" d="M398.92,182.71s5.19,4.72,9.31,6.37"/><path class="cls-4" d="M423.73,158.55a6.44,6.44,0,0,0,2.67,2,13.93,13.93,0,0,0,4.33.33"/><path class="cls-4" d="M428.23,178.6a3.3,3.3,0,0,0-2.92-1.21,2.63,2.63,0,0,0-2.37,3,2.86,2.86,0,0,0,1.57,1.82"/><path class="cls-22" d="M425.64,147.46s-2.79,6.83-10.06,8.67c-7,1.76-14.69-2.88-14.69-2.88l2.94-7.53Z"/><path class="cls-4" d="M399.71,161.23a2,2,0,0,0-2.38-.23c-1.59.69-.85,3.18-.85,3.18"/><ellipse class="cls-22" cx="416.34" cy="167.29" rx="2.82" ry="4.87" transform="translate(233.01 576.82) rotate(-87.77)"/></g><path class="cls-13" d="M439.63,143.7a49.93,49.93,0,0,1-.47,10.09c-.82,4.87-3.91,11-1.73,14.68s1.79,5.79-.33,7.14a17.57,17.57,0,0,0-6,5.84c-1.62,2.81-3,6.75-6.52,9.25-2.41,1.7-8.09,1.67-12.22,0l-4.12-1.64-6.71,14.67s-.71,6.61-4.47,9-10.32-1.76-11.7-6.85a36,36,0,0,1-.82-11l7.5-14.84,4.46-9s-7.1-3.77-3.49-11.23c3.23-6.69,9-2.33,9-2.33l4.71-6.71a10.37,10.37,0,0,0,8.13,1.55c5-1,6.52-3.56,6.52-3.56a16.59,16.59,0,0,0,9.53-.29A35.46,35.46,0,0,0,439.63,143.7Z"/><line class="cls-4" x1="439.26" y1="180.76" x2="445.8" y2="181.4"/><line class="cls-4" x1="435.72" y1="187.43" x2="439.76" y2="190.89"/></g><path class="cls-13" d="M363.92,91.78l-12.05,54.84a25.73,25.73,0,0,1-7.19,3.48c-2.71.67-6.56-.65-6.56-.65h0a14.88,14.88,0,0,0-7.19-1.86,18.62,18.62,0,0,0-17.65,13.54c-2.34,8.92,3.24,17,12.19,17.9a16.52,16.52,0,0,0,5.66-.43h0a42.75,42.75,0,0,1,7.15,0c3.39.34,5.42,5.21,5.42,5.21l-8.53,38.81,53.2,5.27s5.27-2.55,6-5.92a40.17,40.17,0,0,0,.79-7h0a15.51,15.51,0,0,1,.75-7.41c2.65-7.57,10.61-12.88,18.43-12.24,8.88.73,14.54,8.52,12.62,17.27a17.49,17.49,0,0,1-2.51,5.86h0s-1.81,3.93-1.44,6.51a18.84,18.84,0,0,0,2.76,6.65l41.11,4.08,23.33-106.11c3-13.64-5.71-25.81-19.45-27.17Z"/><path class="cls-41" d="M548.53,240.88c-3,11.92-11.08,22.24-21.37,29-2.2,1.45-1.18,13.66-3.56,14.76-3.15,1.44-9.76-8.36-13.12-7.6a44.63,44.63,0,0,1-13.24,1c-22.63-1.7-36.37-21.1-30.68-43.32s28.65-38.87,51.29-37.17S554.22,218.65,548.53,240.88Z"/><g class="cls-42"><path class="cls-9" d="M505.71,257.42l-6.25-.47a2.86,2.86,0,0,1-2.63-3.71L505,221.35a4.38,4.38,0,0,1,4.39-3.18l6.25.47a2.87,2.87,0,0,1,2.63,3.71l-8.17,31.89A4.37,4.37,0,0,1,505.71,257.42Z"/><path class="cls-9" d="M487,239.38l1.58-6.14a4.35,4.35,0,0,1,4.38-3.17l32.48,2.44a2.85,2.85,0,0,1,2.62,3.7l-1.57,6.14a4.37,4.37,0,0,1-4.38,3.18l-32.48-2.44A2.87,2.87,0,0,1,487,239.38Z"/></g><path class="cls-13" d="M548.53,240.88c-3,11.92-11.08,22.24-21.37,29-2.2,1.45-1.18,13.66-3.56,14.76-3.15,1.44-9.76-8.36-13.12-7.6a44.63,44.63,0,0,1-13.24,1c-22.63-1.7-36.37-21.1-30.68-43.32s28.65-38.87,51.29-37.17S554.22,218.65,548.53,240.88Z"/><line class="cls-43" x1="190.66" y1="187.33" x2="176.02" y2="242.95"/><line class="cls-44" x1="520.09" y1="129.06" x2="512.16" y2="164.19"/><path class="cls-15" d="M490.72,334.5l7,6.95a11.2,11.2,0,0,0,1.09,1,18.06,18.06,0,0,0,24.46-1l25.64-25.61,25.61-25.61a18.07,18.07,0,0,0,0-25.56L571.81,262l-4.28-4.29a4.85,4.85,0,0,0-6.85,0l-13.6,13.6a4.85,4.85,0,0,0,0,6.82l1.32,1.29a7.59,7.59,0,0,1,0,10.74l-12.61,12.62-12.61,12.58a7.56,7.56,0,0,1-10.72,0l-1.32-1.29a4.83,4.83,0,0,0-6.81,0l-13.61,13.6A4.87,4.87,0,0,0,490.72,334.5Z"/><g class="cls-45"><path class="cls-46" d="M486.36,331.08l6.95,6.95a12.6,12.6,0,0,0,1.1,1,18,18,0,0,0,24.46-1l25.63-25.61,25.61-25.61a18,18,0,0,0,0-25.55l-2.66-2.67-4.29-4.29a4.83,4.83,0,0,0-6.84,0l-13.6,13.61a4.83,4.83,0,0,0,0,6.81L544,276a7.62,7.62,0,0,1,0,10.75l-12.62,12.61L518.81,312a7.55,7.55,0,0,1-10.71,0l-1.32-1.29a4.85,4.85,0,0,0-6.82,0l-13.6,13.61A4.83,4.83,0,0,0,486.36,331.08Z"/><path class="cls-43" d="M558.4,280.83l1.05,1.08a4,4,0,0,1,.06,5.53l-12.93,14.08"/></g><path class="cls-13" d="M490.72,334.5l7,6.95a11.2,11.2,0,0,0,1.09,1,18.06,18.06,0,0,0,24.46-1l25.64-25.61,25.61-25.61a18.07,18.07,0,0,0,0-25.56L571.81,262l-4.28-4.29a4.85,4.85,0,0,0-6.85,0l-13.6,13.6a4.85,4.85,0,0,0,0,6.82l1.32,1.29a7.59,7.59,0,0,1,0,10.74l-12.61,12.62-12.61,12.58a7.56,7.56,0,0,1-10.72,0l-1.32-1.29a4.83,4.83,0,0,0-6.81,0l-13.61,13.6A4.87,4.87,0,0,0,490.72,334.5Z"/><path class="cls-44" d="M555.28,199.65a30.3,30.3,0,0,1,6.85,11.15c3.29,9.91,2.21,14.64,2.21,14.64"/></g></svg>