<svg id="Covid_Medical_Illustration" data-name="Covid Medical Illustration" xmlns="http://www.w3.org/2000/svg" xmlns:xlink="http://www.w3.org/1999/xlink" viewBox="0 0 700 500"><defs><style>.cls-1,.cls-10{fill:#fff;}.cls-1,.cls-12,.cls-13,.cls-14,.cls-2,.cls-3,.cls-36,.cls-4,.cls-7{stroke:#303870;}.cls-1,.cls-12,.cls-13,.cls-14,.cls-15,.cls-2,.cls-21,.cls-3,.cls-36,.cls-4,.cls-7{stroke-linecap:round;stroke-linejoin:round;stroke-width:2.25px;}.cls-16,.cls-2{fill:#f4b3a8;}.cls-28,.cls-3{fill:#feded5;}.cls-4,.cls-5,.cls-6{fill:#f87b5a;}.cls-6{clip-path:url(#clip-path);}.cls-23,.cls-7{fill:#8981ea;}.cls-8{fill:#b8f0ff;}.cls-13,.cls-9{fill:#80d8ff;}.cls-11{clip-path:url(#clip-path-2);}.cls-12,.cls-15,.cls-21{fill:none;}.cls-14,.cls-27{fill:#303870;}.cls-15{stroke:#80d8ff;}.cls-17{clip-path:url(#clip-path-3);}.cls-18{clip-path:url(#clip-path-4);}.cls-19{clip-path:url(#clip-path-5);}.cls-20{fill:#f25444;}.cls-21{stroke:#fff;}.cls-22{clip-path:url(#clip-path-6);}.cls-24{clip-path:url(#clip-path-7);}.cls-25,.cls-36{fill:#6851f9;}.cls-26{clip-path:url(#clip-path-8);}.cls-29{clip-path:url(#clip-path-9);}.cls-30{clip-path:url(#clip-path-10);}.cls-31{clip-path:url(#clip-path-11);}.cls-32{clip-path:url(#clip-path-12);}.cls-33{clip-path:url(#clip-path-13);}.cls-34{clip-path:url(#clip-path-14);}.cls-35{clip-path:url(#clip-path-15);}</style><clipPath id="clip-path"><path class="cls-5" d="M309.86,232.57c-11.31-7-15-24.6-11.19-42.31s3.52-33.62,4.26-52.1-.33-45,25.93-53.26A59.61,59.61,0,0,1,345.92,82c21.68-.3,37.05,13.39,41,32.12,4.88,23.34,5.5,50.15,10.86,65.51s10.86,33.29,0,44.6S309.86,232.57,309.86,232.57Z"/></clipPath><clipPath id="clip-path-2"><rect class="cls-1" x="196.86" y="128.63" width="35.67" height="63.7" rx="6.87" transform="translate(-41.63 82.08) rotate(-19.77)"/></clipPath><clipPath id="clip-path-3"><path class="cls-2" d="M456.19,91.61c-3.71,3.16-9.93,10.58-13.31,15.38s-4.37,7.2-3.17,10.15,3.93,8.4,5.13,9.81,10.36,4.91,13.86,3.71,17-18.32,18.54-21.16-.87-12-2.29-13.42-8.77-7.9-12.26-7.58A12.87,12.87,0,0,0,456.19,91.61Z"/></clipPath><clipPath id="clip-path-4"><path class="cls-1" d="M309.49,228.2c-11.31-7-16.44-25-12.59-42.68s4.92-33.25,5.66-51.73-.33-45,25.93-53.26a59.61,59.61,0,0,1,17.06-2.88c21.68-.3,37.05,13.38,41,32.12,4.88,23.34,5.5,50.15,10.86,65.51s10.86,33.29,0,44.6S309.49,228.2,309.49,228.2Z"/></clipPath><clipPath id="clip-path-5"><path class="cls-6" d="M309.86,232.57c-11.31-7-15.39-24.7-11.55-42.41s3.88-33.52,4.62-52"/></clipPath><clipPath id="clip-path-6"><path class="cls-1" d="M349.63,204.19c-20.72-.12-69.88,2.91-86.75,19.78s-22.11,43.64-24.73,65.75a307.76,307.76,0,0,0-2.33,37.82H271.9l-7.57,91.92h169l-5.24-94.54h36.08s-4.95-58.18-22.4-81.46S400.6,204.48,349.63,204.19Z"/></clipPath><clipPath id="clip-path-7"><path class="cls-7" d="M291.39,204.19s4.24,22.69,18.61,33.71c15.3,11.73,27.06,4.33,31.71,0a19.77,19.77,0,0,0,5.73-9.35L324.55,197.5Z"/></clipPath><clipPath id="clip-path-8"><path class="cls-7" d="M403.5,204.19s-4.25,22.69-18.62,33.71c-15.3,11.73-27.05,4.33-31.71,0a19.87,19.87,0,0,1-5.73-9.35l22.89-31.05Z"/></clipPath><clipPath id="clip-path-9"><path class="cls-3" d="M408.33,305.14s4.37,51.49,12.22,71.56,11.2,35.2,24.58,35.2h22s5.15-.43,7.48-10.62-13.3-107.78-13.3-107.78Z"/></clipPath><clipPath id="clip-path-10"><path class="cls-1" d="M421.86,228.55s-11.64-8.07-21.38-4.87S390,231.83,390,231.83s-6.4.07-8.87,6.07-.87,9.2-.87,9.2a13.46,13.46,0,0,0-6.11,13.09c1.16,8.87,7,10.33,7,10.33s-4.07,14.54,6,25.31,14.69,11.63,14.69,11.63.87,6.11,5.67,7.86a18.18,18.18,0,0,0,9,.86s6.25,5.1,16.29,3.06,12.07-9.6,12.07-9.6a15.22,15.22,0,0,0,7.86.88c4.21-.73,5.38-4.95,5.38-4.95s6.11-1.6,7.27-7.13-1.89-8-1.89-8a13.69,13.69,0,0,0,9.45-10.76c1.75-8.87-2.47-10-2.47-10s6.4-1,5.82-10.18-6.69-10.29-6.69-10.29-.58-10.51-6.69-15.89-10.18-4.73-10.18-4.73-3.06-7.63-17.31-6.91A19.48,19.48,0,0,0,421.86,228.55Z"/></clipPath><clipPath id="clip-path-11"><path class="cls-3" d="M315.89,129.19s-5.55,25.39-.43,41c3.07,9.34,16.43,21.12,31.79,21.12s28.81-9.6,33.29-22.83-1.92-41.4-1.92-41.4-7.25-25-33.29-23.89S315.89,129.19,315.89,129.19Z"/></clipPath><clipPath id="clip-path-12"><path class="cls-4" d="M313.29,130.26s1.64,3.94,7.08,4.16S327.2,131,327.2,131s1,3.84,9.06,3.84,8.65-3.62,8.65-3.62,1.17,2.66,5.76,2.66,5.76-1.81,5.76-1.81,2,2.77,7.57,2.77,7.15-2.88,7.15-2.88,1.07,2.56,5.87,2.56,6-1.66,6-1.66-3.74-32.8-36.07-32.37S313.29,130.26,313.29,130.26Z"/></clipPath><clipPath id="clip-path-13"><path class="cls-3" d="M314.47,137.55a12.45,12.45,0,0,0-8.19-4.66c-5.26-.57-10.81,7-6.82,15.22s13.83,10.24,13.83,10.24Z"/></clipPath><clipPath id="clip-path-14"><path class="cls-3" d="M381,137.55a12.45,12.45,0,0,1,8.18-4.66c5.27-.57,10.82,7,6.83,15.22s-13.83,10.24-13.83,10.24Z"/></clipPath><clipPath id="clip-path-15"><path class="cls-3" d="M246.59,327.54h43.92s76.8-39.86,85.24-47.13S397.06,255,402.4,253.06s8.3,1.75,5.24,7-5.34,8.08-2.18,7,12.11-5.35,14-7.75,3.38-9.27,7.09-10,3.17,4.59,2.62,7.2-3.27,8.19-5.67,9.82-10.91,6.44-10.91,6.44,13.31-6.87,16.25-11.13,5.79-9.82,7.53-6.54-1.2,8.29-2.62,10.36-18.21,14.29-18.21,14.29,18.54-10.36,20-13.09,1.2-4.47,3.93-4.69,1.2,8,0,10.14-8,7.75-10.91,9.5-11,6.1-11,6.1,14.4-4.36,17.13-7.2,6.87-5.89,5.78-1.2S426.3,292.88,412,299.75s-23.67,15-33.92,22-33,37.52-59.35,52.94c-20.45,12-46,12.8-60.22-7S246.59,327.54,246.59,327.54Z"/></clipPath></defs><g id="Wash_your_hand" data-name="Wash your hand"><path class="cls-8" d="M210,298.53c0-77.22,62.82-140,140-140s140,62.82,140,140a140.11,140.11,0,0,1-69.48,120.93H521.75A209,209,0,0,0,560,298.53c0-116-94-210-210-210s-210,94-210,210a209,209,0,0,0,38.29,120.93H279.44A140.11,140.11,0,0,1,210,298.53Z"/><path class="cls-9" d="M490,298.53c0-77.22-62.82-140-140-140s-140,62.82-140,140a140.11,140.11,0,0,0,69.48,120.93H420.56A140.11,140.11,0,0,0,490,298.53Z"/><rect class="cls-10" x="196.86" y="128.63" width="35.67" height="63.7" rx="6.87" transform="translate(-41.63 82.08) rotate(-19.77)"/><g class="cls-11"><path class="cls-8" d="M230,150.38s9.62,26.79,1.07,30.5c-7.71,3.34-29.84,10.51-29.84,10.51l4.88,8.82,46.74-14.83-22.85-35"/></g><rect class="cls-12" x="196.86" y="128.63" width="35.67" height="63.7" rx="6.87" transform="translate(-41.63 82.08) rotate(-19.77)"/><path class="cls-13" d="M197.61,122.68h9.9a2.16,2.16,0,0,1,2.16,2.16v5.9a0,0,0,0,1,0,0H195.44a0,0,0,0,1,0,0v-5.9A2.16,2.16,0,0,1,197.61,122.68Z" transform="translate(-30.92 75.98) rotate(-19.77)"/><rect class="cls-14" x="196.83" y="109.04" width="3.89" height="14.3" transform="translate(-27.58 74.09) rotate(-19.77)"/><rect class="cls-14" x="195.55" y="99.84" width="3.89" height="14.3" transform="translate(231.37 -115.06) rotate(70.23)"/><line class="cls-15" x1="197.5" y1="147.2" x2="202.56" y2="161.8"/><line class="cls-15" x1="206.16" y1="170.89" x2="208.69" y2="178.19"/><path class="cls-16" d="M456.19,91.61c-3.71,3.16-9.93,10.58-13.31,15.38s-4.37,7.2-3.17,10.15,3.93,8.4,5.13,9.81,10.36,4.91,13.86,3.71,17-18.32,18.54-21.16-.87-12-2.29-13.42-8.77-7.9-12.26-7.58A12.87,12.87,0,0,0,456.19,91.61Z"/><g class="cls-17"><path class="cls-3" d="M437.42,113s14.08,9,18.77,7,16.47-16.14,18-20.51.65-6.67-3.17-11-11.34-5.61-18.11.83S437.42,113,437.42,113Z"/><line class="cls-12" x1="461.53" y1="98.59" x2="451.6" y2="111.46"/></g><path class="cls-12" d="M456.19,91.61c-3.71,3.16-9.93,10.58-13.31,15.38s-4.37,7.2-3.17,10.15,3.93,8.4,5.13,9.81,10.36,4.91,13.86,3.71,17-18.32,18.54-21.16-.87-12-2.29-13.42-8.77-7.9-12.26-7.58A12.87,12.87,0,0,0,456.19,91.61Z"/><path class="cls-10" d="M309.49,228.2c-11.31-7-16.44-25-12.59-42.68s4.92-33.25,5.66-51.73-.33-45,25.93-53.26a59.61,59.61,0,0,1,17.06-2.88c21.68-.3,37.05,13.38,41,32.12,4.88,23.34,5.5,50.15,10.86,65.51s10.86,33.29,0,44.6S309.49,228.2,309.49,228.2Z"/><g class="cls-18"><path class="cls-5" d="M309.86,232.57c-11.31-7-15-24.6-11.19-42.31s3.52-33.62,4.26-52.1-.33-45,25.93-53.26A59.61,59.61,0,0,1,345.92,82c21.68-.3,37.05,13.39,41,32.12,4.88,23.34,5.5,50.15,10.86,65.51s10.86,33.29,0,44.6S309.86,232.57,309.86,232.57Z"/><path class="cls-5" d="M309.86,232.57c-11.31-7-15.39-24.7-11.55-42.41s3.88-33.52,4.62-52"/><g class="cls-19"><ellipse class="cls-5" cx="348.08" cy="137.23" rx="37.88" ry="38.52"/></g><path class="cls-20" d="M306.28,147.2s9.18,23,8.19,47.73c-.69,17.29,10.48,36.44,10.48,36.44h57.18s8.6-36.61,4.41-64.16-15-25.57-15-25.57Z"/><ellipse class="cls-13" cx="347.71" cy="132.86" rx="37.88" ry="38.52"/><path class="cls-21" d="M321.56,93.9c.75-.55,1.56-1.09,2.42-1.61,6.49-3.9,10.86-4,10.86-4"/><path class="cls-21" d="M313.71,102.25a26.51,26.51,0,0,1,3.94-5"/></g><path class="cls-12" d="M309.49,228.2c-11.31-7-16.44-25-12.59-42.68s4.92-33.25,5.66-51.73-.33-45,25.93-53.26a59.61,59.61,0,0,1,17.06-2.88c21.68-.3,37.05,13.38,41,32.12,4.88,23.34,5.5,50.15,10.86,65.51s10.86,33.29,0,44.6S309.49,228.2,309.49,228.2Z"/><path class="cls-10" d="M349.63,204.19c-20.72-.12-69.88,2.91-86.75,19.78s-22.11,43.64-24.73,65.75a307.76,307.76,0,0,0-2.33,37.82H271.9l-7.57,91.92h169l-5.24-94.54h36.08s-4.95-58.18-22.4-81.46S400.6,204.48,349.63,204.19Z"/><g class="cls-22"><polygon class="cls-9" points="276.56 327.38 267.41 327.38 258.12 422.83 272.48 422.83 276.56 327.38"/><path class="cls-23" d="M291.39,204.19s4.24,22.69,18.61,33.71c15.3,11.73,27.06,4.33,31.71,0a19.77,19.77,0,0,0,5.73-9.35L324.55,197.5Z"/><g class="cls-24"><path class="cls-25" d="M306.28,197.58s8.71,27,43.72,26.66,39.19-27.79,39.19-27.79Z"/></g><path class="cls-12" d="M291.39,204.19s4.24,22.69,18.61,33.71c15.3,11.73,27.06,4.33,31.71,0a19.77,19.77,0,0,0,5.73-9.35L324.55,197.5Z"/><path class="cls-23" d="M403.5,204.19s-4.25,22.69-18.62,33.71c-15.3,11.73-27.05,4.33-31.71,0a19.87,19.87,0,0,1-5.73-9.35l22.89-31.05Z"/><g class="cls-26"><path class="cls-25" d="M306.28,197.58s8.71,27,43.72,26.66,39.19-27.79,39.19-27.79Z"/></g><path class="cls-12" d="M403.5,204.19s-4.25,22.69-18.62,33.71c-15.3,11.73-27.05,4.33-31.71,0a19.87,19.87,0,0,1-5.73-9.35l22.89-31.05Z"/><line class="cls-12" x1="347.44" y1="228.55" x2="347.44" y2="419.46"/><circle class="cls-27" cx="333.06" cy="266.37" r="2.84"/><circle class="cls-27" cx="333.06" cy="295.39" r="2.84"/><circle class="cls-27" cx="333.06" cy="324.41" r="2.84"/><circle class="cls-27" cx="333.06" cy="353.43" r="2.84"/><circle class="cls-27" cx="333.06" cy="382.44" r="2.84"/><polyline class="cls-12" points="295.63 256.01 298.1 327.86 271.9 327.54"/><path class="cls-9" d="M258.12,228.55s-14.45,30.6-15.39,64.95c-.66,24.22.38,40,.38,40h-16.9s-1.5-29.28,7.89-55.19S258.12,228.55,258.12,228.55Z"/><path class="cls-9" d="M272.76,390.73s6.75,3.94,25.34-2.25S336.31,362,336.31,362l-63.55,6.2Z"/><path class="cls-9" d="M420.37,234.5s-11.63-8.07-21.38-4.87-10.47,8.14-10.47,8.14-6.4.08-8.87,6.07-.88,9.2-.88,9.2a13.44,13.44,0,0,0-6.1,13.09c1.16,8.88,7,10.33,7,10.33s-4.08,14.55,6,25.31,14.69,11.64,14.69,11.64.87,6.11,5.67,7.85a18.12,18.12,0,0,0,9,.87s6.26,5.1,16.29,3.06,12.08-9.6,12.08-9.6a15.1,15.1,0,0,0,7.85.87c4.22-.73,5.38-4.94,5.38-4.94s6.11-1.6,7.28-7.13-1.9-8-1.9-8a13.71,13.71,0,0,0,9.46-10.76c1.74-8.88-2.47-10-2.47-10s6.4-1,5.81-10.18-6.69-10.3-6.69-10.3-.58-10.5-6.69-15.88-10.18-4.73-10.18-4.73-3-7.64-17.31-6.91A19.48,19.48,0,0,0,420.37,234.5Z"/><path class="cls-9" d="M402,317.82s6.37,47.57,13.64,66.63c9,23.58,19.87,24.95,19.87,24.95l-7.85-90.19Z"/></g><path class="cls-12" d="M349.63,204.19c-20.72-.12-69.88,2.91-86.75,19.78s-22.11,43.64-24.73,65.75a307.76,307.76,0,0,0-2.33,37.82H271.9l-7.57,91.92h169l-5.24-94.54h36.08s-4.95-58.18-22.4-81.46S400.6,204.48,349.63,204.19Z"/><path class="cls-28" d="M408.33,305.14s4.37,51.49,12.22,71.56,11.2,35.2,24.58,35.2h22s5.15-.43,7.48-10.62-13.3-107.78-13.3-107.78Z"/><g class="cls-29"><path class="cls-16" d="M420.37,234.5s-11.63-8.07-21.38-4.87-10.47,8.14-10.47,8.14-6.4.08-8.87,6.07-.88,9.2-.88,9.2a13.44,13.44,0,0,0-6.1,13.09c1.16,8.88,7,10.33,7,10.33s-4.08,14.55,6,25.31,14.69,11.64,14.69,11.64.87,6.11,5.67,7.85a18.12,18.12,0,0,0,9,.87s6.26,5.1,16.29,3.06,12.08-9.6,12.08-9.6a15.1,15.1,0,0,0,7.85.87c4.22-.73,5.38-4.94,5.38-4.94s6.11-1.6,7.28-7.13-1.9-8-1.9-8a13.71,13.71,0,0,0,9.46-10.76c1.74-8.88-2.47-10-2.47-10s6.4-1,5.81-10.18-6.69-10.3-6.69-10.3-.58-10.5-6.69-15.88-10.18-4.73-10.18-4.73-3-7.64-17.31-6.91A19.48,19.48,0,0,0,420.37,234.5Z"/><path class="cls-16" d="M465.34,370.75h0L447,302.32l18.4-3.88,3.91,27.65A99.14,99.14,0,0,1,465.34,370.75Z"/><line class="cls-3" x1="449.58" y1="310.68" x2="466.69" y2="375.87"/><ellipse class="cls-16" cx="466.21" cy="409.83" rx="17.21" ry="13.89"/></g><path class="cls-12" d="M408.33,305.14s4.37,51.49,12.22,71.56,11.2,35.2,24.58,35.2h22s5.15-.43,7.48-10.62-13.3-107.78-13.3-107.78Z"/><path class="cls-10" d="M421.86,228.55s-11.64-8.07-21.38-4.87S390,231.83,390,231.83s-6.4.07-8.87,6.07-.87,9.2-.87,9.2a13.46,13.46,0,0,0-6.11,13.09c1.16,8.87,7,10.33,7,10.33s-4.07,14.54,6,25.31,14.69,11.63,14.69,11.63.87,6.11,5.67,7.86a18.18,18.18,0,0,0,9,.86s6.25,5.1,16.29,3.06,12.07-9.6,12.07-9.6a15.22,15.22,0,0,0,7.86.88c4.21-.73,5.38-4.95,5.38-4.95s6.11-1.6,7.27-7.13-1.89-8-1.89-8a13.69,13.69,0,0,0,9.45-10.76c1.75-8.87-2.47-10-2.47-10s6.4-1,5.82-10.18-6.69-10.29-6.69-10.29-.58-10.51-6.69-15.89-10.18-4.73-10.18-4.73-3.06-7.63-17.31-6.91A19.48,19.48,0,0,0,421.86,228.55Z"/><g class="cls-30"><path class="cls-9" d="M408.26,254a5.39,5.39,0,0,1,3.41,5.92c-.5,4.64-3.34,10.4-3.34,10.4l18.18-21.06,13.86,30s7.34,7.69-9.93,16.7-30.14,17.47-30.14,17.47l-18.17-25.55L408.26,254"/><path class="cls-15" d="M404.91,242.5a12.52,12.52,0,0,1,8.16-5.31,9.32,9.32,0,0,1,8.64,3"/><path class="cls-15" d="M386.33,260a8.52,8.52,0,0,1,1-6.58,6.35,6.35,0,0,1,5.43-3.07"/><path class="cls-15" d="M442.78,242.51a8.55,8.55,0,0,1,6.25,2.27,6.38,6.38,0,0,1,1.92,5.95"/><path class="cls-15" d="M448.37,293.19a8.58,8.58,0,0,1-3.92,5.38,6.37,6.37,0,0,1-6.24.18"/><path class="cls-15" d="M457.34,263.84a13,13,0,0,1,5.08,8.76,9.68,9.68,0,0,1-3.57,8.8"/></g><path class="cls-12" d="M421.86,228.55s-11.64-8.07-21.38-4.87S390,231.83,390,231.83s-6.4.07-8.87,6.07-.87,9.2-.87,9.2a13.46,13.46,0,0,0-6.11,13.09c1.16,8.87,7,10.33,7,10.33s-4.07,14.54,6,25.31,14.69,11.63,14.69,11.63.87,6.11,5.67,7.86a18.18,18.18,0,0,0,9,.86s6.25,5.1,16.29,3.06,12.07-9.6,12.07-9.6a15.22,15.22,0,0,0,7.86.88c4.21-.73,5.38-4.95,5.38-4.95s6.11-1.6,7.27-7.13-1.89-8-1.89-8a13.69,13.69,0,0,0,9.45-10.76c1.75-8.87-2.47-10-2.47-10s6.4-1,5.82-10.18-6.69-10.29-6.69-10.29-.58-10.51-6.69-15.89-10.18-4.73-10.18-4.73-3.06-7.63-17.31-6.91A19.48,19.48,0,0,0,421.86,228.55Z"/><path class="cls-3" d="M330.28,184.84v19.64s-1.74,24.07,17.16,24.07S365,202.88,365,202.88v-18Z"/><path class="cls-28" d="M315.89,129.19s-5.55,25.39-.43,41c3.07,9.34,16.43,21.12,31.79,21.12s28.81-9.6,33.29-22.83-1.92-41.4-1.92-41.4-7.25-25-33.29-23.89S315.89,129.19,315.89,129.19Z"/><g class="cls-31"><path class="cls-5" d="M313.29,130.26s1.64,3.94,7.08,4.16S327.2,131,327.2,131s1,3.84,9.06,3.84,8.65-3.62,8.65-3.62,1.17,2.66,5.76,2.66,5.76-1.81,5.76-1.81,2,2.77,7.57,2.77,7.15-2.88,7.15-2.88,1.07,2.56,5.87,2.56,6-1.66,6-1.66-3.74-32.8-36.07-32.37S313.29,130.26,313.29,130.26Z"/><g class="cls-32"><path class="cls-4" d="M327.2,131a126.53,126.53,0,0,1-.24-14.51"/><line class="cls-4" x1="344.02" y1="110.3" x2="344.91" y2="131.22"/><line class="cls-4" x1="356.1" y1="115.51" x2="356.43" y2="132.07"/><path class="cls-4" d="M369.62,118.74A37.9,37.9,0,0,1,371.15,132"/><path class="cls-20" d="M315.19,132.86s4.12-20.27,25.43-25.88,38,20.07,38,20.07-7.31-33.93-36-29.7-27.4,35.51-27.4,35.51"/></g><path class="cls-12" d="M313.29,130.26s1.64,3.94,7.08,4.16S327.2,131,327.2,131s1,3.84,9.06,3.84,8.65-3.62,8.65-3.62,1.17,2.66,5.76,2.66,5.76-1.81,5.76-1.81,2,2.77,7.57,2.77,7.15-2.88,7.15-2.88,1.07,2.56,5.87,2.56,6-1.66,6-1.66-3.74-32.8-36.07-32.37S313.29,130.26,313.29,130.26Z"/><path class="cls-12" d="M323.12,146.54a5.46,5.46,0,0,0,10,0"/><path class="cls-12" d="M362.17,146.54a5.46,5.46,0,0,0,10,0"/><path class="cls-12" d="M345.83,144.81s-.29,4.14-1.83,5.87-1.64,2.89,0,4.33l1.64,1.45"/><path class="cls-12" d="M335,164.16a23.2,23.2,0,0,0,23.1,0"/><path class="cls-16" d="M347.66,172.92a14.8,14.8,0,0,0,4.71-.49,10.46,10.46,0,0,0,3.18-1.34s1,4.42-3.27,5S347.66,172.92,347.66,172.92Z"/></g><path class="cls-12" d="M315.89,129.19s-5.55,25.39-.43,41c3.07,9.34,16.43,21.12,31.79,21.12s28.81-9.6,33.29-22.83-1.92-41.4-1.92-41.4-7.25-25-33.29-23.89S315.89,129.19,315.89,129.19Z"/><path class="cls-28" d="M314.47,137.55a12.45,12.45,0,0,0-8.19-4.66c-5.26-.57-10.81,7-6.82,15.22s13.83,10.24,13.83,10.24Z"/><g class="cls-33"><path class="cls-3" d="M306.83,139.2s-2.16-1-2.53,2.63a5.9,5.9,0,0,0,2,5.37"/><path class="cls-16" d="M313.29,132.86s-3.92,18.83-3.83,25.63,5.82,5.68,5.82,5.68l2.25-30.88Z"/></g><path class="cls-12" d="M314.47,137.55a12.45,12.45,0,0,0-8.19-4.66c-5.26-.57-10.81,7-6.82,15.22s13.83,10.24,13.83,10.24Z"/><path class="cls-28" d="M381,137.55a12.45,12.45,0,0,1,8.18-4.66c5.27-.57,10.82,7,6.83,15.22s-13.83,10.24-13.83,10.24Z"/><g class="cls-34"><path class="cls-3" d="M387.08,140s2.06-1.86,3.92-.79a2.22,2.22,0,0,1,1.29,2.62"/><line class="cls-3" x1="390.6" y1="147.2" x2="387.5" y2="150.28"/><path class="cls-16" d="M382.71,132.86s1.69,15.87,2.54,21.78,1.29,12.57,1.29,12.57-9.88-5.25-9.6-5.67.08-27,.08-27Z"/></g><path class="cls-12" d="M381,137.55a12.45,12.45,0,0,1,8.18-4.66c5.27-.57,10.82,7,6.83,15.22s-13.83,10.24-13.83,10.24Z"/><circle class="cls-1" cx="461.14" cy="207.29" r="7.17"/><circle class="cls-1" cx="485.54" cy="232.93" r="4.37"/><circle class="cls-1" cx="488.69" cy="273.45" r="3.15"/><path class="cls-28" d="M246.59,327.54h43.92s76.8-39.86,85.24-47.13S397.06,255,402.4,253.06s8.3,1.75,5.24,7-5.34,8.08-2.18,7,12.11-5.35,14-7.75,3.38-9.27,7.09-10,3.17,4.59,2.62,7.2-3.27,8.19-5.67,9.82-10.91,6.44-10.91,6.44,13.31-6.87,16.25-11.13,5.79-9.82,7.53-6.54-1.2,8.29-2.62,10.36-18.21,14.29-18.21,14.29,18.54-10.36,20-13.09,1.2-4.47,3.93-4.69,1.2,8,0,10.14-8,7.75-10.91,9.5-11,6.1-11,6.1,14.4-4.36,17.13-7.2,6.87-5.89,5.78-1.2S426.3,292.88,412,299.75s-23.67,15-33.92,22-33,37.52-59.35,52.94c-20.45,12-46,12.8-60.22-7S246.59,327.54,246.59,327.54Z"/><g class="cls-35"><line class="cls-3" x1="290.51" y1="327.54" x2="266.76" y2="339.11"/><path class="cls-16" d="M240.1,341.36s7.51-7.5,23.65-9.38a248.47,248.47,0,0,0,26.76-4.44V316.18H242Z"/><ellipse class="cls-16" cx="285.26" cy="383.2" rx="20.84" ry="15.02"/></g><path class="cls-12" d="M246.59,327.54h43.92s76.8-39.86,85.24-47.13S397.06,255,402.4,253.06s8.3,1.75,5.24,7-5.34,8.08-2.18,7,12.11-5.35,14-7.75,3.38-9.27,7.09-10,3.17,4.59,2.62,7.2-3.27,8.19-5.67,9.82-10.91,6.44-10.91,6.44,13.31-6.87,16.25-11.13,5.79-9.82,7.53-6.54-1.2,8.29-2.62,10.36-18.21,14.29-18.21,14.29,18.54-10.36,20-13.09,1.2-4.47,3.93-4.69,1.2,8,0,10.14-8,7.75-10.91,9.5-11,6.1-11,6.1,14.4-4.36,17.13-7.2,6.87-5.89,5.78-1.2S426.3,292.88,412,299.75s-23.67,15-33.92,22-33,37.52-59.35,52.94c-20.45,12-46,12.8-60.22-7S246.59,327.54,246.59,327.54Z"/><ellipse class="cls-16" cx="324.16" cy="156.97" rx="6.07" ry="2.32"/><ellipse class="cls-16" cx="372.31" cy="156.97" rx="6.07" ry="2.32"/><polygon class="cls-36" points="521.34 188.63 500.67 193.19 496.48 165.07 511.07 161.85 521.34 188.63"/><path class="cls-2" d="M495.53,157.93h7.53a1.8,1.8,0,0,1,1.8,1.8v4.64a0,0,0,0,1,0,0H493.73a0,0,0,0,1,0,0v-4.64A1.8,1.8,0,0,1,495.53,157.93Z" transform="translate(-22.99 111.34) rotate(-12.44)"/><polygon class="cls-7" points="513.45 190.37 492.78 194.93 488.6 166.81 505.42 163.1 513.45 190.37"/><line class="cls-2" x1="155.63" y1="419.46" x2="318.09" y2="419.46"/><line class="cls-2" x1="461.14" y1="419.46" x2="542.37" y2="419.46"/></g></svg>