<svg id="Covid_Medical_Illustration" data-name="Covid Medical Illustration" xmlns="http://www.w3.org/2000/svg" xmlns:xlink="http://www.w3.org/1999/xlink" viewBox="0 0 700 500"><defs><style>.cls-1{fill:#6851f9;}.cls-2,.cls-7{fill:#b8f0ff;}.cls-10,.cls-2,.cls-22,.cls-24,.cls-25,.cls-29,.cls-3,.cls-4{stroke:#303870;}.cls-10,.cls-2,.cls-22,.cls-23,.cls-24,.cls-25,.cls-29,.cls-3,.cls-4{stroke-linecap:round;stroke-linejoin:round;stroke-width:2.25px;}.cls-11,.cls-3{fill:#fff;}.cls-14,.cls-4{fill:#feded5;}.cls-5{clip-path:url(#clip-path);}.cls-13,.cls-6{fill:#8981ea;}.cls-6{opacity:0.5;}.cls-8{clip-path:url(#clip-path-2);}.cls-29,.cls-9{fill:#80d8ff;}.cls-10,.cls-23{fill:none;}.cls-12{clip-path:url(#clip-path-3);}.cls-15{clip-path:url(#clip-path-4);}.cls-16,.cls-24{fill:#f4b3a8;}.cls-17{clip-path:url(#clip-path-5);}.cls-18{fill:#303870;}.cls-19{clip-path:url(#clip-path-6);}.cls-20,.cls-22{fill:#f87b5a;}.cls-21{fill:#f25444;}.cls-23{stroke:#fff;}.cls-25{fill:#ec8d1e;}.cls-26{clip-path:url(#clip-path-7);}.cls-27{clip-path:url(#clip-path-8);}.cls-28{fill:#83ffcc;}</style><clipPath id="clip-path"><path class="cls-1" d="M568.29,404H189S73.71,179.83,127.87,120.91c42.83-46.6,159.87-3.17,190,51.25s88.53-30.27,137.5-11.83C552.65,196.94,564.38,397.24,568.29,404Z"/></clipPath><clipPath id="clip-path-2"><polygon class="cls-2" points="236.86 221.01 347.22 110.66 457.57 221.01 457.57 403.97 236.86 403.97 236.86 221.01"/></clipPath><clipPath id="clip-path-3"><path class="cls-3" d="M304.78,268.59s15.44.61,22.1-7,5.75-20.74,5.75-20.74l1.4-.45a26.35,26.35,0,0,0-3.59-17.26c-8.21-12.92-25.66-12.49-25.66-12.49s-4.51-2.52-8.23-2.13-18.11,2.81-24,23.93-7.78,46.32-7.72,64.48a58.42,58.42,0,0,0,3.86,19.53l9.76-2s-4.54-16.58-4.31-22.94a57.75,57.75,0,0,1,1.13-10.21s.68,12.26,2.95,19.52a122.36,122.36,0,0,1,3.41,13.85l27.47-7Z"/></clipPath><clipPath id="clip-path-4"><path class="cls-4" d="M319.46,278.69l2.12,11.47s0,6.36-9.53,6.13A20,20,0,0,1,297.29,289l-2.35-24.68Z"/></clipPath><clipPath id="clip-path-5"><path class="cls-4" d="M298.42,232s3.63,4.54,3.63,8.63v6l30.58-5.75s4.24,15,2.73,23.16-6.52,13.06-15.9,14.64c-10.74,1.82-19.07-6.47-21.79-10.4l-2.73-3.94a2.81,2.81,0,0,1-3.63,2.12c-3-.75-8.18-5.3-7.57-12s5.6-5.29,6.81-4.54a21.64,21.64,0,0,1,2.27,1.67,32.55,32.55,0,0,1,.91-11.66C295.39,233.78,298.42,232,298.42,232Z"/></clipPath><clipPath id="clip-path-6"><path class="cls-3" d="M294,279s4.43,5.71,9.54,7.52,8.63,2.56,11,2.33,6.76-1.92,7.27-4.9,0-4,0-4a13.71,13.71,0,0,1,2.16,4c.43,1.25.73,2.1,1.42,2.56s20.71-.34,30.25,7.15S374.71,312,379,336.94s0,53.13,0,53.13H271.86s-8.86.91-15.22-8.86-10.44-35-5.45-52.22,21.12-35.65,29.07-39.51a60.12,60.12,0,0,1,13.11-4.88Z"/></clipPath><clipPath id="clip-path-7"><path class="cls-3" d="M323.66,331.26a86.12,86.12,0,0,1,5.75-7.61,76.89,76.89,0,0,1,5.59-5.36l2.82,2.27a7.14,7.14,0,0,0,3.18-3.38c1.05-2.4.32-3,.32-3s.37-.83,2.35,0A3.75,3.75,0,0,1,346,316.5a4,4,0,0,1,2.73,1,3.32,3.32,0,0,1,1.24,2.21s.23-.75,1.71,0a3,3,0,0,1,1.69,1.81,5.17,5.17,0,0,1,1.83,1c.68.66.91,3.72-2.95,7.93s-5.34,6.69-9.54,8.4a31.27,31.27,0,0,0-7.16,4.09Z"/></clipPath><clipPath id="clip-path-8"><polygon class="cls-3" points="358.41 384.81 433.7 384.81 442.54 332.68 367.26 332.68 358.41 384.81"/></clipPath></defs><g id="Work_from_home" data-name="Work from home"><path class="cls-1" d="M568.29,404H189S73.71,179.83,127.87,120.91c42.83-46.6,159.87-3.17,190,51.25s88.53-30.27,137.5-11.83C552.65,196.94,564.38,397.24,568.29,404Z"/><g class="cls-5"><path class="cls-6" d="M585.68,276.72s-57.52-46.4-128.72-6.87-121.51,60.72-170.24,36.3S150.2,265,125,294.3s.87,114.71.87,114.71H587.42Z"/></g><path class="cls-3" d="M472.7,224.29a3.25,3.25,0,0,0,0-4.58L347.27,94.28l0,.06-.06-.06L221.73,219.71a3.25,3.25,0,0,0,0,4.58l3.64,3.64a3.25,3.25,0,0,0,4.58,0l115-115a3.23,3.23,0,0,1,4.58,0l115,115a3.25,3.25,0,0,0,4.58,0Z"/><polygon class="cls-7" points="236.86 221.01 347.22 110.66 457.57 221.01 457.57 403.97 236.86 403.97 236.86 221.01"/><g class="cls-8"><polygon class="cls-9" points="228.9 225.4 339.25 115.05 449.61 225.4 449.61 408.35 228.9 408.35 228.9 225.4"/><rect class="cls-3" x="225.58" y="185.62" width="243.27" height="13.88" rx="3.65"/><rect class="cls-3" x="340.32" y="94.28" width="13.8" height="91.33"/></g><polygon class="cls-10" points="236.86 221.01 347.22 110.66 457.57 221.01 457.57 403.97 236.86 403.97 236.86 221.01"/><rect class="cls-3" x="225.58" y="390.09" width="243.27" height="13.88" rx="3.65"/><path class="cls-11" d="M304.78,268.59s15.44.61,22.1-7,5.75-20.74,5.75-20.74l1.4-.45a26.35,26.35,0,0,0-3.59-17.26c-8.21-12.92-25.66-12.49-25.66-12.49s-4.51-2.52-8.23-2.13-18.11,2.81-24,23.93-7.78,46.32-7.72,64.48a58.42,58.42,0,0,0,3.86,19.53l9.76-2s-4.54-16.58-4.31-22.94a57.75,57.75,0,0,1,1.13-10.21s.68,12.26,2.95,19.52a122.36,122.36,0,0,1,3.41,13.85l27.47-7Z"/><g class="cls-12"><path class="cls-13" d="M301.73,271.82s15.44.6,22.1-7,5.75-20.74,5.75-20.74l4.42-1.07s0-7.67-5.28-17.25c-8-14.5-27-11.88-27-11.88s-4.51-2.53-8.23-2.13-18.11,2.81-24,23.93-7.78,46.32-7.72,64.48a58.42,58.42,0,0,0,3.86,19.53l9.76-2s-4.54-16.58-4.31-22.94a57.8,57.8,0,0,1,1.13-10.22s.68,12.27,3,19.53a122.36,122.36,0,0,1,3.41,13.85l27.47-7Z"/><path class="cls-1" d="M289.61,221.27s-16.29,15.36-18.54,43.08-1.13,44.33,2.25,55.38,39.42-5.91,39.42-5.91l-4.48-51.31Z"/><path class="cls-10" d="M304.78,210.69s-12.87,3-17.94,15.72A38.47,38.47,0,0,0,285.73,250"/><path class="cls-10" d="M306.51,229.7a11.61,11.61,0,0,1,3.55,7.36,32.31,32.31,0,0,1-.59,8.12"/><path class="cls-10" d="M316.22,229.51a11.46,11.46,0,0,1,2,6.12,38.8,38.8,0,0,1-.34,6.74"/><path class="cls-10" d="M325.79,228.45a11.4,11.4,0,0,1,2,6.11,37.66,37.66,0,0,1-.34,6.74"/></g><path class="cls-10" d="M304.78,268.59s15.44.61,22.1-7,5.75-20.74,5.75-20.74l1.4-.45a26.35,26.35,0,0,0-3.59-17.26c-8.21-12.92-25.66-12.49-25.66-12.49s-4.51-2.52-8.23-2.13-18.11,2.81-24,23.93-7.78,46.32-7.72,64.48a58.42,58.42,0,0,0,3.86,19.53l9.76-2s-4.54-16.58-4.31-22.94a57.75,57.75,0,0,1,1.13-10.21s.68,12.26,2.95,19.52a122.36,122.36,0,0,1,3.41,13.85l27.47-7Z"/><path class="cls-14" d="M319.46,278.69l2.12,11.47s0,6.36-9.53,6.13A20,20,0,0,1,297.29,289l-2.35-24.68Z"/><g class="cls-15"><path class="cls-16" d="M315.84,279s-13.38,2.46-23.09-1.34-.42-15.1-.42-15.1l19.85,8.06,3.66,8.38"/></g><path class="cls-10" d="M319.46,278.69l2.12,11.47s0,6.36-9.53,6.13A20,20,0,0,1,297.29,289l-2.35-24.68Z"/><path class="cls-14" d="M298.42,232s3.63,4.54,3.63,8.63v6l30.58-5.75s4.24,15,2.73,23.16-6.52,13.06-15.9,14.64c-10.74,1.82-19.07-6.47-21.79-10.4l-2.73-3.94a2.81,2.81,0,0,1-3.63,2.12c-3-.75-8.18-5.3-7.57-12s5.6-5.29,6.81-4.54a21.64,21.64,0,0,1,2.27,1.67,32.55,32.55,0,0,1,.91-11.66C295.39,233.78,298.42,232,298.42,232Z"/><g class="cls-17"><path class="cls-10" d="M320,250s.81,3.5,2.43,4.77,1.85,2.25.57,3.71l-1.29,1.46"/><path class="cls-10" d="M322.31,265.28a6.37,6.37,0,0,1-6.3-.93"/><path class="cls-16" d="M323.08,268.37a9.67,9.67,0,0,1-3,.65,6.52,6.52,0,0,1-2.23-.2s.3,2.93,3,2.44A2.42,2.42,0,0,0,323.08,268.37Z"/><ellipse class="cls-16" cx="304.11" cy="260.42" rx="3.75" ry="2.09"/><path class="cls-4" d="M290.5,254.66s-1.88-.57-2.54.8"/><line class="cls-4" x1="289.09" y1="259.54" x2="291.06" y2="260.95"/><ellipse class="cls-18" cx="307.71" cy="251.67" rx="2.29" ry="2.85" transform="translate(-40.72 60.31) rotate(-10.5)"/><ellipse class="cls-18" cx="328.48" cy="248.7" rx="2.29" ry="2.85" transform="translate(-39.83 64.05) rotate(-10.5)"/></g><path class="cls-10" d="M298.42,232s3.63,4.54,3.63,8.63v6l30.58-5.75s4.24,15,2.73,23.16-6.52,13.06-15.9,14.64c-10.74,1.82-19.07-6.47-21.79-10.4l-2.73-3.94a2.81,2.81,0,0,1-3.63,2.12c-3-.75-8.18-5.3-7.57-12s5.6-5.29,6.81-4.54a21.64,21.64,0,0,1,2.27,1.67,32.55,32.55,0,0,1,.91-11.66C295.39,233.78,298.42,232,298.42,232Z"/><path class="cls-11" d="M294,279s4.43,5.71,9.54,7.52,8.63,2.56,11,2.33,6.76-1.92,7.27-4.9,0-4,0-4a13.71,13.71,0,0,1,2.16,4c.43,1.25.73,2.1,1.42,2.56s20.71-.34,30.25,7.15S374.71,312,379,336.94s0,53.13,0,53.13H271.86s-8.86.91-15.22-8.86-10.44-35-5.45-52.22,21.12-35.65,29.07-39.51a60.12,60.12,0,0,1,13.11-4.88Z"/><g class="cls-19"><path class="cls-20" d="M382.25,378.83c-1.93-2.25-5.52-50.28-16.51-66.74s-19.94-22.53-34.23-28.62-47.82-8.63-47.82-8.63l-40.78,5.49V390.09H384.82Z"/><polygon class="cls-21" points="285.02 328.39 293.88 348.7 283.69 355.78 285.02 328.39"/><line class="cls-3" x1="285.25" y1="323.54" x2="283.69" y2="355.78"/><line class="cls-3" x1="316.64" y1="297.31" x2="314.54" y2="288.8"/><path class="cls-10" d="M305.86,296.75s9,2.15,12.71.22,4.66-3.29,4.66-3.29"/><path class="cls-10" d="M294.94,288.4a23.44,23.44,0,0,0,3.08,3.12"/><line class="cls-3" x1="316.81" y1="298.05" x2="325.82" y2="390.07"/><path class="cls-22" d="M275,364s14.54-12.49,26.12-20.67,20.43-14.07,20.43-14.07l15.22,15s-19.38,26.11-28.54,34.52-11,11.35-20.06,11.35"/><path class="cls-23" d="M330.57,344.1s-17.08,19.9-25.34,27.78-21.54,18.21-21.54,18.21"/><path class="cls-23" d="M283.69,293.8a63.28,63.28,0,0,0-20.5,22.7C255.58,331.24,255.3,343,255.3,343"/><path class="cls-21" d="M382.25,340.14s-19.87-1.86-26.67,7.9-16.33,45.8-16.33,45.8h49.86Z"/></g><path class="cls-10" d="M294,279s4.43,5.71,9.54,7.52,8.63,2.56,11,2.33,6.76-1.92,7.27-4.9,0-4,0-4a13.71,13.71,0,0,1,2.16,4c.43,1.25.73,2.1,1.42,2.56s20.71-.34,30.25,7.15S374.71,312,379,336.94s0,53.13,0,53.13H271.86s-8.86.91-15.22-8.86-10.44-35-5.45-52.22,21.12-35.65,29.07-39.51a60.12,60.12,0,0,1,13.11-4.88Z"/><path class="cls-24" d="M330.39,317.09h23a3.58,3.58,0,0,1,3.58,3.58v0a3.58,3.58,0,0,1-3.58,3.58h-23a0,0,0,0,1,0,0v-7.15a0,0,0,0,1,0,0Z" transform="matrix(0.78, 0.63, -0.63, 0.78, 276.78, -144.59)"/><path class="cls-3" d="M337.8,302.06l-4.66-3.74-13.56,16.87,4.66,3.74c2.57,2.07,7.69,0,11.44-4.69S340.38,304.13,337.8,302.06Z"/><ellipse class="cls-25" cx="326.36" cy="306.75" rx="10.82" ry="5.98" transform="translate(-117.2 368.87) rotate(-51.2)"/><path class="cls-3" d="M365.46,324.3l-4.66-3.74-13.56,16.87,4.66,3.74c2.57,2.07,7.69,0,11.44-4.69S368,326.37,365.46,324.3Z"/><ellipse class="cls-25" cx="354.02" cy="328.99" rx="10.82" ry="5.98" transform="translate(-124.21 398.73) rotate(-51.2)"/><path class="cls-11" d="M323.66,331.26a86.12,86.12,0,0,1,5.75-7.61,76.89,76.89,0,0,1,5.59-5.36l2.82,2.27a7.14,7.14,0,0,0,3.18-3.38c1.05-2.4.32-3,.32-3s.37-.83,2.35,0A3.75,3.75,0,0,1,346,316.5a4,4,0,0,1,2.73,1,3.32,3.32,0,0,1,1.24,2.21s.23-.75,1.71,0a3,3,0,0,1,1.69,1.81,5.17,5.17,0,0,1,1.83,1c.68.66.91,3.72-2.95,7.93s-5.34,6.69-9.54,8.4a31.27,31.27,0,0,0-7.16,4.09Z"/><g class="cls-26"><polygon class="cls-16" points="330.53 321.67 334.89 322.99 339.25 318.39 334.21 315.87 330.53 321.67"/><path class="cls-10" d="M337.82,320.56a24.69,24.69,0,0,1-3.61,2.92"/><path class="cls-10" d="M346,316.5s-1.47,4.2-3.06,5.9a25.94,25.94,0,0,1-3.31,3"/><path class="cls-10" d="M350,319.73a28.3,28.3,0,0,1-3.23,5.4,49.7,49.7,0,0,1-3.92,3.86"/><path class="cls-10" d="M353.36,321.54s-1.41,4.33-2.77,5.8-4.57,4.51-4.57,4.51"/><path class="cls-16" d="M326.36,325.52s11.05,17.64,13.26,18.21-4.17,7.51-7.17,3.56-12.87-16-12.87-16Z"/></g><path class="cls-10" d="M323.66,331.26a86.12,86.12,0,0,1,5.75-7.61,76.89,76.89,0,0,1,5.59-5.36l2.82,2.27a7.14,7.14,0,0,0,3.18-3.38c1.05-2.4.32-3,.32-3s.37-.83,2.35,0A3.75,3.75,0,0,1,346,316.5a4,4,0,0,1,2.73,1,3.32,3.32,0,0,1,1.24,2.21s.23-.75,1.71,0a3,3,0,0,1,1.69,1.81,5.17,5.17,0,0,1,1.83,1c.68.66.91,3.72-2.95,7.93s-5.34,6.69-9.54,8.4a31.27,31.27,0,0,0-7.16,4.09Z"/><g id="Laptop"><polygon class="cls-11" points="358.41 384.81 433.7 384.81 442.54 332.68 367.26 332.68 358.41 384.81"/><g class="cls-27"><polygon class="cls-1" points="353.77 384.81 429.05 384.81 437.9 332.68 362.62 332.68 353.77 384.81"/></g><polygon class="cls-10" points="358.41 384.81 433.7 384.81 442.54 332.68 367.26 332.68 358.41 384.81"/><rect class="cls-3" x="333.52" y="384.81" width="100.17" height="5.28" transform="translate(767.22 774.9) rotate(-180)"/><circle class="cls-3" cx="402.14" cy="358.75" r="4.72"/></g><path class="cls-11" d="M509.86,313.82c.11.19.19.29.24.39l.81,1.72a4.89,4.89,0,0,0,2.29,2.33c.59.28,1.18.54,1.77.83a1.5,1.5,0,0,1,.27.24c-.1.09-.17.22-.29.27l-1.75.85a4.74,4.74,0,0,0-2.29,2.32c-.28.58-.55,1.18-.83,1.76-.05.09-.16.2-.24.2s-.19-.11-.24-.2c-.28-.58-.55-1.17-.83-1.76a4.88,4.88,0,0,0-2.32-2.34l-1.72-.82a1.24,1.24,0,0,1-.29-.27,1.53,1.53,0,0,1,.3-.27c.58-.28,1.18-.54,1.76-.83a4.77,4.77,0,0,0,2.24-2.26c.28-.58.55-1.17.84-1.75A3,3,0,0,1,509.86,313.82Z"/><path class="cls-11" d="M166.91,296.35l.16.25c.17.37.34.75.52,1.11a3.08,3.08,0,0,0,1.48,1.5l1.14.54a.52.52,0,0,1,.17.16c-.06.06-.11.14-.18.17l-1.13.55a3.08,3.08,0,0,0-1.48,1.5c-.18.37-.35.76-.54,1.13,0,.06-.1.13-.15.13s-.12-.07-.15-.13c-.19-.37-.36-.75-.54-1.13a3.16,3.16,0,0,0-1.5-1.52l-1.11-.52a.18.18,0,1,1,0-.35c.37-.18.76-.35,1.13-.54a3.14,3.14,0,0,0,1.45-1.45c.18-.38.35-.76.54-1.14C166.77,296.54,166.83,296.47,166.91,296.35Z"/><path class="cls-11" d="M180.23,166.11a3.32,3.32,0,0,1,.27.43c.31.64.6,1.28.91,1.91A5.35,5.35,0,0,0,184,171c.65.32,1.31.61,2,.92a1.88,1.88,0,0,1,.3.27c-.11.11-.19.25-.32.31-.64.32-1.3.62-1.95.93A5.44,5.44,0,0,0,181.4,176c-.31.65-.61,1.31-.92,2,0,.09-.17.22-.26.22s-.22-.12-.27-.22l-.92-1.95a5.45,5.45,0,0,0-2.58-2.61l-1.91-.91a1.55,1.55,0,0,1-.33-.3,1.81,1.81,0,0,1,.34-.29c.65-.32,1.31-.61,2-.93a5.37,5.37,0,0,0,2.48-2.5c.31-.65.61-1.31.93-1.95A4.75,4.75,0,0,1,180.23,166.11Z"/><circle class="cls-28" cx="203.63" cy="224.96" r="2.49"/><circle class="cls-28" cx="501.95" cy="235.05" r="2.49"/><path class="cls-3" d="M465.48,237.53H391.26a9,9,0,0,0-9,9v47.31a9,9,0,0,0,9,9h23v8.47l12.39-8.47h38.86a9,9,0,0,0,9-9V246.54A9,9,0,0,0,465.48,237.53Z"/><path class="cls-29" d="M391.26,237.53h74.22a9,9,0,0,1,9,9v1.52a0,0,0,0,1,0,0H382.25a0,0,0,0,1,0,0v-1.52A9,9,0,0,1,391.26,237.53Z"/><circle class="cls-11" cx="394.53" cy="243.16" r="1.74"/><circle class="cls-11" cx="404.3" cy="243.16" r="1.74"/><circle class="cls-11" cx="414.56" cy="243.16" r="1.74"/><path class="cls-10" d="M411,272.51a7.72,7.72,0,1,0-9.87,0"/><path class="cls-10" d="M419.35,282.07v6.1H392.8v-6.1a9.66,9.66,0,0,1,8.35-9.56,7.73,7.73,0,0,0,9.87,0A9.65,9.65,0,0,1,419.35,282.07Z"/><rect class="cls-9" x="432.69" y="257.31" width="34.16" height="4.39"/><rect class="cls-9" x="432.69" y="268.12" width="34.16" height="4.39"/><rect class="cls-9" x="432.69" y="278.95" width="19.71" height="4.39"/><line class="cls-10" x1="174.21" y1="403.97" x2="260.37" y2="403.97"/><line class="cls-10" x1="512.65" y1="403.97" x2="598.81" y2="403.97"/></g></svg>